G75*
G70*
%OFA0B0*%
%FSLAX24Y24*%
%IPPOS*%
%LPD*%
%AMOC8*
5,1,8,0,0,1.08239X$1,22.5*
%
%ADD10R,2.8346X0.1575*%
%ADD11R,0.1969X1.3780*%
%ADD12R,1.3780X0.1575*%
%ADD13R,1.9625X0.1250*%
%ADD14R,2.2000X0.0750*%
%ADD15R,0.1625X1.0250*%
%ADD16R,0.0500X0.1250*%
%ADD17R,0.0500X1.1250*%
%ADD18R,0.1500X0.1500*%
%ADD19R,0.1500X0.1375*%
%ADD20R,0.2039X0.0939*%
%ADD21C,0.0899*%
%ADD22R,0.1181X0.1181*%
%ADD23C,0.0606*%
%ADD24C,0.0748*%
%ADD25R,0.0457X0.0457*%
%ADD26R,0.0339X0.0339*%
%ADD27OC8,0.0339*%
%ADD28C,0.0457*%
%ADD29C,0.0378*%
%ADD30OC8,0.0378*%
%ADD31C,0.0339*%
%ADD32C,0.0535*%
%ADD33C,0.0614*%
%ADD34R,0.0378X0.0378*%
D10*
X028791Y000732D03*
D11*
X041972Y007150D03*
X041967Y013611D03*
D12*
X008825Y000758D03*
D13*
X031173Y020290D03*
D14*
X010945Y020540D03*
D15*
X000778Y005490D03*
D16*
X001730Y000990D03*
D17*
X000220Y015305D03*
D18*
X002875Y015125D03*
D19*
X003000Y009313D03*
D20*
X041510Y007252D03*
X041510Y003772D03*
X041430Y013364D03*
X041430Y016844D03*
D21*
X029441Y009444D03*
X021961Y009444D03*
X029441Y005704D03*
X029441Y001964D03*
X021961Y001964D03*
D22*
X034281Y005370D03*
X034281Y014819D03*
D23*
X012125Y011158D02*
X012125Y010592D01*
X011125Y010592D02*
X011125Y011158D01*
X010125Y011158D02*
X010125Y010592D01*
X009125Y010592D02*
X009125Y011158D01*
X008125Y011158D02*
X008125Y010592D01*
D24*
X008125Y012375D03*
X009125Y012375D03*
X010125Y012375D03*
X011125Y012375D03*
X012125Y012375D03*
X013125Y012375D03*
X014125Y012375D03*
X015125Y012375D03*
X016125Y012375D03*
X017125Y012375D03*
X018125Y012375D03*
X019125Y012375D03*
X020125Y012375D03*
X007125Y012375D03*
X006125Y012375D03*
X005125Y012375D03*
X004125Y012375D03*
X003125Y012375D03*
X002125Y012375D03*
X001125Y012375D03*
X001125Y019375D03*
X002125Y019375D03*
X003125Y019375D03*
X004125Y019375D03*
X005125Y019375D03*
X006125Y019375D03*
X007125Y019375D03*
X008125Y019375D03*
X009125Y019375D03*
X010125Y019375D03*
X011125Y019375D03*
X012125Y019375D03*
X013125Y019375D03*
X014125Y019375D03*
X015125Y019375D03*
X016125Y019375D03*
X017125Y019375D03*
X018125Y019375D03*
X019125Y019375D03*
X020125Y019375D03*
D25*
X023530Y020356D03*
X025498Y020356D03*
X027467Y020356D03*
X029435Y020356D03*
X031404Y020356D03*
X033372Y020356D03*
X035341Y020356D03*
X037309Y020356D03*
X039278Y020356D03*
X041903Y019731D03*
X041903Y018106D03*
X041854Y016859D03*
X040854Y016859D03*
X040854Y013359D03*
X041854Y013359D03*
X041908Y011835D03*
X041908Y010261D03*
X041908Y008686D03*
X041908Y007255D03*
X040977Y007255D03*
X040977Y003818D03*
X042033Y003818D03*
X041246Y000883D03*
X039278Y000883D03*
X037309Y000883D03*
X035341Y000883D03*
X033372Y000883D03*
X031404Y000883D03*
X029435Y000883D03*
X027467Y000883D03*
X025498Y000883D03*
X023530Y000883D03*
X022093Y000856D03*
X020124Y000856D03*
X018499Y001409D03*
X017749Y001409D03*
X017124Y001409D03*
X016374Y001409D03*
X015624Y001409D03*
X015624Y002159D03*
X016374Y002159D03*
X017124Y002159D03*
X017749Y002159D03*
X018499Y002159D03*
X018524Y002909D03*
X017799Y002909D03*
X017049Y002909D03*
X016349Y002909D03*
X015624Y002909D03*
X015624Y003659D03*
X016349Y003659D03*
X017074Y003659D03*
X017799Y003659D03*
X018524Y003659D03*
X017124Y005159D03*
X023998Y006508D03*
X024873Y006508D03*
X018349Y008659D03*
X016474Y009159D03*
X015474Y009284D03*
X014349Y009284D03*
X004166Y006888D03*
X003586Y006878D03*
X000774Y006204D03*
X000774Y007829D03*
X000774Y009704D03*
X000899Y004579D03*
X000774Y003204D03*
X000649Y001329D03*
X003274Y000856D03*
X005657Y000856D03*
X006843Y001894D03*
X008218Y001894D03*
X009598Y001874D03*
X010311Y000856D03*
X012062Y000856D03*
X013906Y000856D03*
X008125Y000856D03*
X000624Y014972D03*
X004024Y016829D03*
X000599Y018097D03*
X028560Y016606D03*
D26*
X031256Y016728D03*
X031242Y017399D03*
X033212Y017872D03*
X034501Y019106D03*
X036416Y019098D03*
X037525Y017458D03*
X039452Y016194D03*
X037043Y016027D03*
X031259Y016141D03*
X031241Y015485D03*
X029516Y014249D03*
X034501Y009657D03*
X036416Y009660D03*
X037525Y008009D03*
X039452Y006745D03*
X040220Y008381D03*
X040220Y009131D03*
X036722Y003158D03*
X036057Y003150D03*
X037541Y002683D03*
X035407Y002091D03*
X034750Y002259D03*
X031577Y003266D03*
X026861Y001988D03*
X026041Y001988D03*
X025096Y003943D03*
X023376Y003913D03*
X021321Y003158D03*
X013864Y003304D03*
X005131Y007943D03*
X004961Y009003D03*
X005021Y009883D03*
X003051Y003883D03*
X002731Y001573D03*
D27*
X021250Y003625D03*
X021250Y004250D03*
X022000Y012250D03*
X021375Y012500D03*
X028336Y013449D03*
X022000Y017875D03*
X021375Y017875D03*
D28*
X026250Y007000D03*
X027500Y004875D03*
D29*
X037094Y019243D03*
D30*
X029625Y008375D03*
X029875Y007750D03*
X027125Y007750D03*
D31*
X038125Y013625D03*
X038375Y015625D03*
D32*
X018250Y005125D03*
X012000Y005125D03*
X002875Y015000D03*
D33*
X003000Y009375D03*
D34*
X013125Y016625D03*
M02*
