%
M48
M72
T01C0.0118
T02C0.0130
T03C0.0157
T04C0.0197
T05C0.0236
T06C0.0315
T07C0.0394
T08C0.0472
%
T01
X32837Y6234
T02
X33888Y5764
X34281Y5764
X34281Y5370
X33888Y5370
X33888Y4976
X34281Y4976
X34675Y4976
X34675Y5370
X34675Y5764
X34675Y14425
X34281Y14425
X33888Y14425
X33888Y14819
X34281Y14819
X34675Y14819
X34675Y15213
X34281Y15213
X33888Y15213
T03
X32835Y15210
X32875Y15625
X31241Y15485
X31259Y16141
X31256Y16728
X31242Y17399
X33212Y17872
X33947Y18008
X34521Y19176
X36416Y19088
X37525Y17458
X39452Y16194
X37043Y16027
X40211Y17850
X40191Y18631
X32700Y14406
X35030Y13382
X34250Y13000
X34207Y12206
X34730Y11688
X35407Y11540
X37561Y12096
X36782Y12637
X36047Y12649
X35499Y13727
X32250Y12625
X31625Y12250
X31477Y12714
X30750Y12250
X28750Y11375
X27750Y12000
X25500Y11125
X25375Y9625
X24896Y8727
X28646Y8977
X29089Y7651
X31242Y7951
X31256Y7280
X31259Y6692
X31201Y6096
X32780Y5780
X32700Y4957
X33000Y4125
X33000Y3625
X33060Y3060
X32875Y2625
X31477Y3266
X34207Y2757
X34730Y2239
X35407Y2091
X36057Y3150
X36722Y3158
X37561Y2683
X35030Y3933
X35499Y4278
X34250Y3500
X38250Y6250
X37013Y6568
X39452Y6745
X37525Y8009
X40220Y8381
X37094Y9794
X36416Y9640
X34521Y9727
X33125Y10500
X32125Y9375
X33212Y8424
X33947Y8559
X33125Y11875
X28336Y13449
X29516Y14249
X30150Y15250
X25625Y16375
X22338Y20363
X16500Y7125
X23376Y3913
X25066Y3983
X26666Y4613
X28339Y4401
X28750Y3125
X26861Y1988
X26041Y1988
X21321Y3158
T04
X38125Y13625
X38375Y15625
T05
X37094Y19243
X24625Y16375
X23875Y15625
X23875Y13000
X24625Y12625
X29625Y8375
X29875Y7750
X27125Y7750
X13125Y16625
T06
X649Y1329
X2731Y1563
X3274Y856
X5657Y856
X6968Y1894
X8218Y1894
X9218Y1894
X8125Y856
X10311Y856
X12062Y856
X13906Y856
X15624Y1409
X16374Y1409
X17124Y1409
X17749Y1409
X18499Y1409
X18499Y2159
X17749Y2159
X17124Y2159
X16374Y2159
X15624Y2159
X15624Y2909
X16349Y2909
X17049Y2909
X17799Y2909
X18524Y2909
X18524Y3659
X17799Y3659
X17074Y3659
X16349Y3659
X15624Y3659
X13974Y3284
X17124Y5159
X23998Y6508
X24873Y6508
X26250Y7000
X27500Y4875
X27467Y883
X29435Y883
X31404Y883
X33372Y883
X35341Y883
X37309Y883
X39278Y883
X41246Y883
X40977Y3818
X42033Y3818
X41908Y7255
X40977Y7255
X41908Y8686
X41908Y10261
X41908Y11835
X41854Y13359
X40854Y13359
X40854Y16859
X41854Y16859
X41903Y18106
X41903Y19731
X39278Y20356
X37309Y20356
X35341Y20356
X33372Y20356
X31404Y20356
X29435Y20356
X27467Y20356
X25498Y20356
X23530Y20356
X28560Y16606
X27375Y14875
X16474Y9159
X15474Y9284
X14349Y9284
X17474Y8909
X18349Y8659
X12125Y10875
X11125Y10875
X10125Y10875
X9125Y10875
X8125Y10875
X4981Y9813
X4981Y9063
X5121Y7993
X4166Y6888
X3586Y6878
X774Y6204
X774Y7829
X774Y9704
X899Y4579
X2981Y3813
X774Y3204
X20124Y856
X22093Y856
X23530Y883
X25498Y883
X624Y14972
X4024Y16829
X599Y18097
T07
X1125Y19375
X2125Y19375
X3125Y19375
X4125Y19375
X5125Y19375
X6125Y19375
X7125Y19375
X8125Y19375
X9125Y19375
X10125Y19375
X11125Y19375
X12125Y19375
X13125Y19375
X14125Y19375
X15125Y19375
X16125Y19375
X17125Y19375
X18125Y19375
X19125Y19375
X20125Y19375
X20125Y12375
X19125Y12375
X18125Y12375
X17125Y12375
X16125Y12375
X15125Y12375
X14125Y12375
X13125Y12375
X12125Y12375
X11125Y12375
X10125Y12375
X9125Y12375
X8125Y12375
X7125Y12375
X6125Y12375
X5125Y12375
X4125Y12375
X3125Y12375
X2125Y12375
X1125Y12375
X2875Y15000
X21961Y9444
X29441Y9444
X29441Y5704
X29441Y1964
X21961Y1964
X18250Y5125
X12000Y5125
T08
X3000Y9375
M30
