G75*
G70*
%OFA0B0*%
%FSLAX24Y24*%
%IPPOS*%
%LPD*%
%AMOC8*
5,1,8,0,0,1.08239X$1,22.5*
%
%ADD10R,0.0394X0.0433*%
%ADD11R,0.0591X0.0512*%
%ADD12R,0.0512X0.0591*%
%ADD13R,0.0433X0.0394*%
%ADD14R,0.2000X0.0900*%
%ADD15C,0.0860*%
%ADD16C,0.0330*%
%ADD17C,0.0118*%
%ADD18R,0.0236X0.0492*%
%ADD19C,0.0567*%
%ADD20R,0.0551X0.0236*%
%ADD21R,0.0256X0.0600*%
%ADD22R,0.1220X0.1024*%
%ADD23R,0.0420X0.0900*%
%ADD24R,0.4200X0.3500*%
%ADD25R,0.1063X0.0630*%
%ADD26R,0.0354X0.1102*%
%ADD27C,0.0709*%
%ADD28R,0.0315X0.0315*%
%ADD29R,0.0551X0.0394*%
%ADD30R,0.0417X0.0417*%
%ADD31R,0.0260X0.0260*%
%ADD32C,0.0400*%
%ADD33C,0.0120*%
%ADD34C,0.0160*%
%ADD35C,0.0240*%
%ADD36C,0.0260*%
%ADD37C,0.0417*%
%ADD38C,0.0320*%
%ADD39OC8,0.0260*%
%ADD40C,0.0339*%
%ADD41C,0.0100*%
%ADD42C,0.0220*%
%ADD43OC8,0.0339*%
%ADD44C,0.0299*%
%ADD45C,0.0660*%
%ADD46C,0.0496*%
%ADD47C,0.0575*%
%ADD48C,0.0500*%
%ADD49R,0.0339X0.0339*%
D10*
X016450Y007931D03*
X016450Y008600D03*
X023986Y005939D03*
X024874Y005940D03*
X024874Y005271D03*
X023986Y005270D03*
X026048Y003097D03*
X026856Y003101D03*
X026856Y002432D03*
X026048Y002428D03*
X031589Y003693D03*
X032333Y003693D03*
X032333Y004362D03*
X031589Y004362D03*
X031553Y005370D03*
X032293Y005370D03*
X032293Y006039D03*
X031553Y006039D03*
X033207Y007323D03*
X034498Y007319D03*
X034498Y007988D03*
X034498Y008559D03*
X035128Y008559D03*
X035778Y007988D03*
X036427Y007988D03*
X037549Y007594D03*
X038339Y007522D03*
X039008Y007522D03*
X037549Y006925D03*
X036427Y007319D03*
X035778Y007319D03*
X033207Y007992D03*
X034498Y009228D03*
X035128Y009228D03*
X029460Y010750D03*
X028790Y010750D03*
X028270Y010750D03*
X027600Y010750D03*
X027085Y010750D03*
X026415Y010750D03*
X027295Y010085D03*
X027295Y009415D03*
X028335Y009425D03*
X028335Y010095D03*
X027150Y008750D03*
X026480Y008750D03*
X025960Y008750D03*
X025290Y008750D03*
X031679Y013142D03*
X032333Y013142D03*
X032333Y013811D03*
X031679Y013811D03*
X031663Y014819D03*
X032293Y014819D03*
X032293Y015488D03*
X031663Y015488D03*
X033207Y016772D03*
X034498Y016768D03*
X034498Y017437D03*
X034498Y018008D03*
X035128Y018008D03*
X035128Y018677D03*
X034498Y018677D03*
X035778Y017437D03*
X036427Y017437D03*
X037549Y017043D03*
X038359Y017001D03*
X039028Y017001D03*
X037549Y016374D03*
X036427Y016768D03*
X035778Y016768D03*
X033207Y017441D03*
X036053Y013709D03*
X036773Y013709D03*
X037558Y013190D03*
X036773Y013039D03*
X036053Y013039D03*
X035415Y012642D03*
X034748Y012811D03*
X034748Y012142D03*
X035415Y011972D03*
X036045Y011938D03*
X036714Y011938D03*
X037558Y012520D03*
X036703Y004260D03*
X036053Y004260D03*
X036053Y003591D03*
X036703Y003591D03*
X037538Y003786D03*
X037538Y003117D03*
X036714Y002489D03*
X036045Y002489D03*
X035415Y002524D03*
X034748Y002693D03*
X035415Y003193D03*
X034748Y003362D03*
X005835Y016000D03*
X005165Y016000D03*
X003960Y017625D03*
X003290Y017625D03*
D11*
X014375Y008749D03*
X015500Y008749D03*
X015500Y008001D03*
X014375Y008001D03*
X017510Y008257D03*
X018385Y008007D03*
X017510Y007509D03*
X018385Y007259D03*
X013875Y006210D03*
X013875Y005540D03*
X013875Y004585D03*
X013875Y003915D03*
X004500Y003876D03*
X003625Y003876D03*
X003625Y004624D03*
X004500Y004624D03*
X003625Y002835D03*
X002750Y002835D03*
X002750Y002165D03*
X003625Y002165D03*
X027165Y013012D03*
X027165Y013760D03*
X029528Y013760D03*
X029528Y013012D03*
X028502Y015236D03*
X028502Y015984D03*
D12*
X030540Y009375D03*
X031210Y009375D03*
X029904Y007149D03*
X029156Y007149D03*
X024770Y003095D03*
X024100Y003095D03*
X011999Y009750D03*
X011251Y009750D03*
X004374Y009875D03*
X003626Y009875D03*
X003626Y009000D03*
X004374Y009000D03*
X010665Y016625D03*
X011335Y016625D03*
X007999Y017000D03*
X007251Y017000D03*
D13*
X016125Y014460D03*
X017125Y014460D03*
X017125Y013790D03*
X016125Y013790D03*
X019125Y013665D03*
X019125Y014335D03*
X020125Y014460D03*
X020125Y013790D03*
X030685Y014947D03*
X030685Y015616D03*
X031667Y016138D03*
X032337Y016138D03*
X032333Y016736D03*
X031663Y016736D03*
X031653Y017414D03*
X032322Y017414D03*
X033848Y017437D03*
X035128Y017437D03*
X035778Y018008D03*
X036427Y018008D03*
X037096Y018008D03*
X037096Y018677D03*
X036427Y018677D03*
X035778Y018677D03*
X039102Y018643D03*
X039772Y018643D03*
X039776Y017846D03*
X039106Y017846D03*
X039026Y016197D03*
X038356Y016197D03*
X037530Y015843D03*
X037530Y015173D03*
X038356Y015154D03*
X039026Y015154D03*
X037543Y014389D03*
X037543Y013720D03*
X033756Y012782D03*
X033756Y012113D03*
X030845Y013149D03*
X030845Y013818D03*
X035984Y016020D03*
X036653Y016020D03*
X035128Y016768D03*
X033848Y016768D03*
X035778Y009228D03*
X036427Y009228D03*
X037096Y009228D03*
X037096Y008559D03*
X036427Y008559D03*
X035778Y008559D03*
X035128Y007988D03*
X033848Y007988D03*
X033848Y007319D03*
X035128Y007319D03*
X035994Y006571D03*
X036663Y006571D03*
X037530Y006394D03*
X038356Y006748D03*
X039026Y006748D03*
X039026Y005705D03*
X038356Y005705D03*
X037530Y005724D03*
X037543Y004941D03*
X037543Y004271D03*
X033756Y003334D03*
X033756Y002664D03*
X030845Y003700D03*
X030845Y004370D03*
X030685Y005498D03*
X030685Y006168D03*
X031667Y006689D03*
X032337Y006689D03*
X032333Y007287D03*
X031663Y007287D03*
X031653Y007965D03*
X032322Y007965D03*
X027698Y006904D03*
X027029Y006904D03*
X027032Y006104D03*
X027701Y006104D03*
X023156Y005943D03*
X023156Y005274D03*
X023995Y003940D03*
X024665Y003940D03*
X039106Y008398D03*
X039776Y008398D03*
X039772Y009194D03*
X039102Y009194D03*
D14*
X041510Y007252D03*
X041510Y005512D03*
X041510Y003772D03*
X041430Y013364D03*
X041430Y015104D03*
X041430Y016844D03*
D15*
X029441Y009444D03*
X021961Y009444D03*
X029441Y005704D03*
X029441Y001964D03*
X021961Y001964D03*
D16*
X033888Y004976D03*
X034281Y004976D03*
X034675Y004976D03*
X034675Y005370D03*
X034281Y005370D03*
X033888Y005370D03*
X033888Y005764D03*
X034281Y005764D03*
X034675Y005764D03*
X034675Y014425D03*
X034281Y014425D03*
X033888Y014425D03*
X033888Y014819D03*
X034281Y014819D03*
X034675Y014819D03*
X034675Y015213D03*
X034281Y015213D03*
X033888Y015213D03*
D17*
X033435Y015311D02*
X033199Y015311D01*
X033199Y015114D02*
X033435Y015114D01*
X033435Y014917D02*
X033199Y014917D01*
X033199Y014720D02*
X033435Y014720D01*
X033435Y014524D02*
X033199Y014524D01*
X033199Y014327D02*
X033435Y014327D01*
X033435Y014130D02*
X033199Y014130D01*
X033593Y013972D02*
X033593Y013736D01*
X033789Y013736D02*
X033789Y013972D01*
X033986Y013972D02*
X033986Y013736D01*
X034183Y013736D02*
X034183Y013972D01*
X034380Y013972D02*
X034380Y013736D01*
X034577Y013736D02*
X034577Y013972D01*
X034774Y013972D02*
X034774Y013736D01*
X034970Y013736D02*
X034970Y013972D01*
X035128Y014130D02*
X035364Y014130D01*
X035364Y014327D02*
X035128Y014327D01*
X035128Y014524D02*
X035364Y014524D01*
X035364Y014720D02*
X035128Y014720D01*
X035128Y014917D02*
X035364Y014917D01*
X035364Y015114D02*
X035128Y015114D01*
X035128Y015311D02*
X035364Y015311D01*
X035364Y015508D02*
X035128Y015508D01*
X034970Y015665D02*
X034970Y015901D01*
X034774Y015901D02*
X034774Y015665D01*
X034577Y015665D02*
X034577Y015901D01*
X034380Y015901D02*
X034380Y015665D01*
X034183Y015665D02*
X034183Y015901D01*
X033986Y015901D02*
X033986Y015665D01*
X033789Y015665D02*
X033789Y015901D01*
X033593Y015901D02*
X033593Y015665D01*
X033435Y015508D02*
X033199Y015508D01*
X033593Y006453D02*
X033593Y006217D01*
X033789Y006217D02*
X033789Y006453D01*
X033986Y006453D02*
X033986Y006217D01*
X034183Y006217D02*
X034183Y006453D01*
X034380Y006453D02*
X034380Y006217D01*
X034577Y006217D02*
X034577Y006453D01*
X034774Y006453D02*
X034774Y006217D01*
X034970Y006217D02*
X034970Y006453D01*
X035128Y006059D02*
X035364Y006059D01*
X035364Y005862D02*
X035128Y005862D01*
X035128Y005665D02*
X035364Y005665D01*
X035364Y005469D02*
X035128Y005469D01*
X035128Y005272D02*
X035364Y005272D01*
X035364Y005075D02*
X035128Y005075D01*
X035128Y004878D02*
X035364Y004878D01*
X035364Y004681D02*
X035128Y004681D01*
X034970Y004524D02*
X034970Y004288D01*
X034774Y004288D02*
X034774Y004524D01*
X034577Y004524D02*
X034577Y004288D01*
X034380Y004288D02*
X034380Y004524D01*
X034183Y004524D02*
X034183Y004288D01*
X033986Y004288D02*
X033986Y004524D01*
X033789Y004524D02*
X033789Y004288D01*
X033593Y004288D02*
X033593Y004524D01*
X033435Y004681D02*
X033199Y004681D01*
X033199Y004878D02*
X033435Y004878D01*
X033435Y005075D02*
X033199Y005075D01*
X033199Y005272D02*
X033435Y005272D01*
X033435Y005469D02*
X033199Y005469D01*
X033199Y005665D02*
X033435Y005665D01*
X033435Y005862D02*
X033199Y005862D01*
X033199Y006059D02*
X033435Y006059D01*
D18*
X028720Y004823D03*
X028346Y004823D03*
X027972Y004823D03*
X027972Y003839D03*
X028720Y003839D03*
X028720Y012894D03*
X027972Y012894D03*
X027972Y013878D03*
X028346Y013878D03*
X028720Y013878D03*
D19*
X012125Y011158D02*
X012125Y010592D01*
X011125Y010592D02*
X011125Y011158D01*
X010125Y011158D02*
X010125Y010592D01*
X009125Y010592D02*
X009125Y011158D01*
X008125Y011158D02*
X008125Y010592D01*
D20*
X021863Y003909D03*
X021863Y003535D03*
X021863Y003161D03*
X022847Y003161D03*
X022847Y003535D03*
X022847Y003909D03*
D21*
X004625Y005807D03*
X004125Y005807D03*
X003625Y005807D03*
X003125Y005807D03*
X003125Y007943D03*
X003625Y007943D03*
X004125Y007943D03*
X004625Y007943D03*
D22*
X003875Y006875D03*
D23*
X015785Y006055D03*
X016455Y006055D03*
X017125Y006055D03*
X017795Y006055D03*
X018465Y006055D03*
D24*
X017125Y002405D03*
D25*
X009625Y002574D03*
X008250Y002574D03*
X007000Y002574D03*
X007000Y003676D03*
X008250Y003676D03*
X009625Y003676D03*
D26*
X008426Y005375D03*
X007324Y005375D03*
D27*
X007125Y012375D03*
X006125Y012375D03*
X005125Y012375D03*
X004125Y012375D03*
X003125Y012375D03*
X002125Y012375D03*
X001125Y012375D03*
X008125Y012375D03*
X009125Y012375D03*
X010125Y012375D03*
X011125Y012375D03*
X012125Y012375D03*
X013125Y012375D03*
X014125Y012375D03*
X015125Y012375D03*
X016125Y012375D03*
X017125Y012375D03*
X018125Y012375D03*
X019125Y012375D03*
X020125Y012375D03*
X020125Y019375D03*
X019125Y019375D03*
X018125Y019375D03*
X017125Y019375D03*
X016125Y019375D03*
X015125Y019375D03*
X014125Y019375D03*
X013125Y019375D03*
X012125Y019375D03*
X011125Y019375D03*
X010125Y019375D03*
X009125Y019375D03*
X008125Y019375D03*
X007125Y019375D03*
X006125Y019375D03*
X005125Y019375D03*
X004125Y019375D03*
X003125Y019375D03*
X002125Y019375D03*
X001125Y019375D03*
D28*
X016125Y015670D03*
X017125Y015670D03*
X017125Y015080D03*
X016125Y015080D03*
X019125Y015080D03*
X020125Y015080D03*
X020125Y015670D03*
X019125Y015670D03*
D29*
X009558Y016625D03*
X008692Y016251D03*
X008692Y016999D03*
X005683Y017250D03*
X004817Y016876D03*
X004817Y017624D03*
D30*
X000649Y001329D03*
X002731Y001563D03*
X003274Y000856D03*
X005657Y000856D03*
X006968Y001894D03*
X008218Y001894D03*
X009218Y001894D03*
X008125Y000856D03*
X010311Y000856D03*
X012062Y000856D03*
X013906Y000856D03*
X015624Y001409D03*
X016374Y001409D03*
X017124Y001409D03*
X017749Y001409D03*
X018499Y001409D03*
X018499Y002159D03*
X017749Y002159D03*
X017124Y002159D03*
X016374Y002159D03*
X015624Y002159D03*
X015624Y002909D03*
X016349Y002909D03*
X017049Y002909D03*
X017799Y002909D03*
X018524Y002909D03*
X018524Y003659D03*
X017799Y003659D03*
X017074Y003659D03*
X016349Y003659D03*
X015624Y003659D03*
X013974Y003284D03*
X017124Y005159D03*
X023998Y006508D03*
X024873Y006508D03*
X018349Y008659D03*
X017474Y008909D03*
X016474Y009159D03*
X015474Y009284D03*
X014349Y009284D03*
X005121Y007993D03*
X004981Y009063D03*
X004981Y009813D03*
X000774Y009704D03*
X000774Y007829D03*
X003586Y006878D03*
X004166Y006888D03*
X000774Y006204D03*
X000899Y004579D03*
X002981Y003813D03*
X000774Y003204D03*
X020124Y000856D03*
X022093Y000856D03*
X023530Y000883D03*
X025498Y000883D03*
X027467Y000883D03*
X029435Y000883D03*
X031404Y000883D03*
X033372Y000883D03*
X035341Y000883D03*
X037309Y000883D03*
X039278Y000883D03*
X041246Y000883D03*
X040977Y003818D03*
X042033Y003818D03*
X041908Y007255D03*
X040977Y007255D03*
X041908Y008686D03*
X041908Y010261D03*
X041908Y011835D03*
X041854Y013359D03*
X040854Y013359D03*
X040854Y016859D03*
X041854Y016859D03*
X041903Y018106D03*
X041903Y019731D03*
X039278Y020356D03*
X037309Y020356D03*
X035341Y020356D03*
X033372Y020356D03*
X031404Y020356D03*
X029435Y020356D03*
X027467Y020356D03*
X025498Y020356D03*
X023530Y020356D03*
X028560Y016606D03*
X004024Y016829D03*
X000599Y018097D03*
X000624Y014972D03*
D31*
X022338Y020363D03*
X031242Y017399D03*
X031256Y016728D03*
X031259Y016141D03*
X031241Y015485D03*
X032875Y015625D03*
X029516Y014249D03*
X028336Y013449D03*
X030750Y012250D03*
X031477Y012714D03*
X032250Y012625D03*
X031625Y012250D03*
X034207Y012206D03*
X034730Y011688D03*
X035407Y011540D03*
X037561Y012096D03*
X036782Y012637D03*
X036047Y012649D03*
X035030Y013382D03*
X037043Y016027D03*
X039452Y016194D03*
X037525Y017458D03*
X040211Y017850D03*
X040191Y018631D03*
X036416Y019088D03*
X034521Y019176D03*
X033947Y018008D03*
X033212Y017872D03*
X034521Y009727D03*
X036416Y009640D03*
X033947Y008559D03*
X033212Y008424D03*
X031242Y007951D03*
X031256Y007280D03*
X031259Y006692D03*
X031201Y006096D03*
X029089Y007651D03*
X028646Y008977D03*
X024896Y008727D03*
X026666Y004613D03*
X025066Y003983D03*
X023376Y003913D03*
X021321Y003158D03*
X026041Y001988D03*
X026861Y001988D03*
X031477Y003266D03*
X034207Y002757D03*
X034730Y002239D03*
X035407Y002091D03*
X036057Y003150D03*
X036722Y003158D03*
X037561Y002683D03*
X035030Y003933D03*
X037013Y006568D03*
X039452Y006745D03*
X037525Y008009D03*
X040220Y008381D03*
X028339Y004401D03*
D32*
X035702Y005115D02*
X035817Y005001D01*
X035701Y005656D02*
X035856Y005705D01*
X038049Y005705D01*
X038356Y005705D01*
X038376Y005705D01*
X039026Y005705D02*
X041510Y005705D01*
X041510Y005512D01*
X034498Y007988D02*
X033848Y007988D01*
X033844Y007992D01*
X033207Y007992D01*
X035817Y014449D02*
X035702Y014563D01*
X035701Y015105D02*
X035856Y015154D01*
X038049Y015154D01*
X038356Y015154D01*
X038376Y015154D01*
X039026Y015154D02*
X041017Y015154D01*
X041017Y015123D01*
X034498Y017437D02*
X033848Y017437D01*
X033844Y017441D01*
X033207Y017441D01*
X016500Y007125D02*
X016455Y007080D01*
X016455Y006055D01*
X017795Y006055D02*
X018465Y006055D01*
X009500Y005375D02*
X009500Y003801D01*
X009412Y003713D01*
X009375Y003676D01*
X009500Y005375D02*
X008426Y005375D01*
X007324Y005375D02*
X005125Y005375D01*
X003875Y007943D02*
X003875Y008500D01*
X003625Y008750D01*
X003625Y008999D01*
D33*
X013875Y003915D02*
X013875Y003383D01*
X013974Y003284D01*
X020500Y004250D02*
X021250Y003500D01*
X021828Y003500D01*
X021863Y003535D01*
X021829Y003875D02*
X021863Y003909D01*
X021829Y003875D02*
X021375Y003875D01*
X020750Y004500D01*
X020750Y009875D01*
X021875Y011000D01*
X021875Y019000D01*
X020875Y020000D01*
X019250Y020000D01*
X019125Y019875D01*
X019125Y019373D01*
X020125Y019375D02*
X020632Y019375D01*
X020632Y019368D01*
X021625Y018375D01*
X021625Y011125D01*
X020500Y010000D01*
X020500Y004250D01*
X030000Y006375D02*
X030207Y006168D01*
X030685Y006168D01*
X030000Y006375D02*
X030000Y007054D01*
X029904Y007149D01*
X032333Y007287D02*
X032337Y007283D01*
X032337Y006689D01*
X032356Y006709D01*
X032825Y006709D01*
X032963Y006571D01*
X033474Y006571D01*
X033593Y006453D01*
X033593Y006335D01*
X033789Y006335D02*
X033789Y006591D01*
X033514Y006866D01*
X033317Y006866D01*
X033199Y006984D01*
X033199Y007315D01*
X033207Y007323D01*
X032948Y007323D01*
X032779Y007492D01*
X032779Y007740D01*
X032546Y007973D01*
X032330Y007973D01*
X032322Y007965D01*
X033848Y007319D02*
X033848Y006925D01*
X033986Y006787D01*
X033986Y006335D01*
X034183Y006335D02*
X034183Y005862D01*
X034281Y005764D01*
X033888Y005764D02*
X033789Y005665D01*
X033317Y005665D01*
X033315Y005860D02*
X032880Y005860D01*
X032800Y005780D01*
X032780Y005780D01*
X032746Y005469D02*
X032648Y005370D01*
X032293Y005370D01*
X032746Y005469D02*
X033317Y005469D01*
X033317Y005272D02*
X033015Y005272D01*
X032700Y004957D01*
X032963Y004681D02*
X032667Y004386D01*
X032356Y004386D01*
X032333Y004362D01*
X031672Y004370D02*
X031589Y004362D01*
X032963Y004681D02*
X033317Y004681D01*
X033317Y004878D02*
X033789Y004878D01*
X033888Y004976D01*
X033986Y004406D02*
X033986Y004111D01*
X033625Y003750D01*
X033540Y003750D01*
X033350Y003560D01*
X033350Y003350D01*
X033060Y003060D01*
X033125Y002625D02*
X032875Y002625D01*
X033125Y002625D02*
X033625Y003125D01*
X033625Y003202D01*
X033756Y003334D01*
X033737Y003467D01*
X033788Y003518D01*
X034183Y003953D01*
X034183Y004406D01*
X034380Y004406D02*
X034380Y003630D01*
X034250Y003500D01*
X034577Y003819D02*
X034756Y003640D01*
X034756Y003370D01*
X034748Y003362D01*
X035415Y003193D02*
X036045Y002564D01*
X036045Y002489D01*
X037538Y003786D02*
X037543Y003859D01*
X037543Y004271D01*
X036703Y004260D02*
X036053Y004260D01*
X036000Y004207D01*
X035799Y004207D01*
X035728Y004278D01*
X035499Y004278D01*
X034970Y004406D02*
X034970Y004681D01*
X034675Y004976D01*
X034774Y005075D01*
X035246Y005075D01*
X035246Y005272D02*
X035443Y005272D01*
X035561Y005154D01*
X035702Y005115D01*
X035435Y004878D02*
X036053Y004260D01*
X035246Y004681D02*
X034970Y004681D01*
X034774Y004406D02*
X034774Y004071D01*
X035030Y003933D01*
X034577Y003819D02*
X034577Y004406D01*
X033789Y004406D02*
X033789Y004164D01*
X033750Y004125D01*
X033625Y004125D01*
X033125Y003625D01*
X033000Y003625D01*
X035246Y004878D02*
X035435Y004878D01*
X035513Y005469D02*
X035246Y005469D01*
X035513Y005469D02*
X035701Y005656D01*
X035679Y006059D02*
X035876Y006256D01*
X035876Y006453D01*
X035994Y006571D01*
X035994Y006902D01*
X036049Y006957D01*
X037518Y006957D01*
X037549Y006925D01*
X036427Y007319D02*
X035778Y007319D01*
X035778Y007102D01*
X035541Y006866D01*
X035522Y006866D01*
X035423Y006768D01*
X034754Y006768D01*
X034577Y006591D01*
X034577Y006335D01*
X034774Y006335D02*
X034774Y005862D01*
X034675Y005764D01*
X035246Y006059D02*
X034970Y006335D01*
X034380Y006335D02*
X034380Y006787D01*
X034498Y006906D01*
X034498Y007319D01*
X035128Y007319D01*
X035128Y007988D02*
X035128Y008559D01*
X034498Y008559D01*
X033947Y008559D01*
X035128Y009228D02*
X035778Y009228D01*
X037094Y009231D02*
X037094Y009794D01*
X037094Y009231D02*
X037096Y009228D01*
X037096Y008559D02*
X036427Y008559D01*
X035778Y008559D01*
X035778Y007988D02*
X036427Y007988D01*
X036878Y007990D02*
X037506Y007990D01*
X037525Y008009D01*
X035679Y006059D02*
X035246Y006059D01*
X033317Y005862D02*
X033315Y005860D01*
X032293Y006039D02*
X031553Y006039D01*
X031553Y005370D02*
X031179Y005370D01*
X031051Y005499D01*
X030685Y005499D01*
X030685Y005498D01*
X037530Y005724D02*
X038030Y005724D01*
X038049Y005705D01*
X038348Y005028D02*
X037543Y004941D01*
X025625Y011250D02*
X025500Y011125D01*
X025625Y011250D02*
X025625Y016375D01*
X024625Y016375D02*
X024625Y012625D01*
X023875Y013000D02*
X023875Y015625D01*
X028336Y013449D02*
X028336Y012461D01*
X028250Y012375D01*
X027375Y012375D01*
X027250Y012500D01*
X027250Y012927D01*
X027165Y013012D01*
X030750Y012250D02*
X031250Y011750D01*
X032430Y011750D01*
X033350Y012670D01*
X033350Y013130D01*
X033520Y013300D01*
X033790Y013300D01*
X033986Y013496D01*
X033986Y013854D01*
X033789Y013854D02*
X033789Y013589D01*
X033720Y013520D01*
X033240Y013520D01*
X033100Y013380D01*
X033100Y012870D01*
X032680Y012450D01*
X032670Y012450D01*
X032470Y012250D01*
X031625Y012250D01*
X032250Y012625D02*
X032485Y012625D01*
X032630Y012770D01*
X032640Y012770D01*
X032810Y012940D01*
X032810Y013560D01*
X033104Y013854D01*
X033593Y013854D01*
X033317Y014130D02*
X032963Y014130D01*
X032667Y013835D01*
X032356Y013835D01*
X032333Y013811D01*
X031679Y013811D02*
X031672Y013818D01*
X032700Y014406D02*
X033015Y014720D01*
X033317Y014720D01*
X033317Y014917D02*
X032746Y014917D01*
X032648Y014819D01*
X032293Y014819D01*
X031663Y014819D02*
X031179Y014819D01*
X031051Y014947D01*
X030685Y014947D01*
X030685Y014947D01*
X031663Y015488D02*
X032293Y015488D01*
X032875Y015625D02*
X032992Y015508D01*
X033317Y015508D01*
X033317Y015311D02*
X032936Y015311D01*
X032835Y015210D01*
X033317Y015114D02*
X033789Y015114D01*
X033888Y015213D01*
X034183Y015311D02*
X034281Y015213D01*
X034183Y015311D02*
X034183Y015783D01*
X033986Y015783D02*
X033986Y016236D01*
X033848Y016374D01*
X033848Y016768D01*
X033207Y016772D02*
X032948Y016772D01*
X032779Y016940D01*
X032779Y017189D01*
X032546Y017422D01*
X032330Y017422D01*
X032322Y017414D01*
X032333Y016736D02*
X032337Y016732D01*
X032337Y016138D01*
X032356Y016157D01*
X032825Y016157D01*
X032963Y016020D01*
X033474Y016020D01*
X033593Y015902D01*
X033593Y015783D01*
X033789Y015783D02*
X033789Y016039D01*
X033514Y016315D01*
X033317Y016315D01*
X033199Y016433D01*
X033199Y016764D01*
X033207Y016772D01*
X034380Y016236D02*
X034498Y016354D01*
X034498Y016768D01*
X035128Y016768D01*
X035522Y016315D02*
X035541Y016315D01*
X035778Y016551D01*
X035778Y016768D01*
X036427Y016768D01*
X036049Y016406D02*
X037518Y016406D01*
X037549Y016374D01*
X038080Y015920D02*
X038375Y015625D01*
X038030Y015173D02*
X037530Y015173D01*
X038030Y015173D02*
X038049Y015154D01*
X038348Y014476D02*
X037543Y014389D01*
X037456Y013807D02*
X037108Y013807D01*
X036978Y013677D01*
X036734Y013677D01*
X036773Y013709D01*
X036053Y013709D01*
X036035Y013727D01*
X035499Y013727D01*
X035625Y014125D02*
X035637Y014125D01*
X036053Y013709D01*
X036000Y013656D01*
X035625Y014125D02*
X035423Y014327D01*
X035246Y014327D01*
X035246Y014524D02*
X034774Y014524D01*
X034675Y014425D01*
X034970Y014130D01*
X034970Y013854D01*
X034774Y013854D02*
X034774Y013520D01*
X035030Y013382D01*
X034756Y013089D02*
X034756Y012819D01*
X034748Y012811D01*
X034756Y013089D02*
X034577Y013268D01*
X034577Y013854D01*
X034380Y013854D02*
X034380Y013130D01*
X034250Y013000D01*
X034183Y013402D02*
X033788Y012967D01*
X033737Y012915D01*
X033737Y012737D01*
X033250Y012250D01*
X033250Y012000D01*
X033125Y011875D01*
X033756Y012782D02*
X033737Y012915D01*
X034183Y013402D02*
X034183Y013854D01*
X034970Y014130D02*
X035246Y014130D01*
X035561Y014602D02*
X035443Y014720D01*
X035246Y014720D01*
X035246Y014917D02*
X035513Y014917D01*
X035701Y015105D01*
X034774Y015311D02*
X034675Y015213D01*
X034774Y015311D02*
X034774Y015783D01*
X034970Y015783D02*
X035246Y015508D01*
X035679Y015508D01*
X035876Y015705D01*
X035876Y015902D01*
X035984Y016020D01*
X035994Y016350D01*
X036049Y016406D01*
X035522Y016315D02*
X035423Y016217D01*
X034754Y016217D01*
X034577Y016039D01*
X034577Y015783D01*
X034380Y015783D02*
X034380Y016236D01*
X035128Y017437D02*
X035128Y018008D01*
X034498Y018008D01*
X033947Y018008D01*
X035128Y018677D02*
X035778Y018677D01*
X035778Y018008D02*
X036427Y018008D01*
X037096Y018008D01*
X036878Y017439D02*
X037506Y017439D01*
X037525Y017458D01*
X036427Y017437D02*
X035778Y017437D01*
X037096Y018677D02*
X037094Y018680D01*
X037094Y019243D01*
X039772Y018643D02*
X040179Y018643D01*
X040191Y018631D01*
X040211Y017850D02*
X040208Y017846D01*
X039776Y017846D01*
X035702Y014563D02*
X035561Y014602D01*
X033888Y014425D02*
X033789Y014327D01*
X033317Y014327D01*
X035415Y012642D02*
X036045Y012012D01*
X036045Y011938D01*
X037558Y013190D02*
X037543Y013308D01*
X037543Y013720D01*
X037456Y013807D01*
X037943Y013807D01*
X038125Y013625D01*
D34*
X036773Y013039D02*
X036793Y012696D01*
X036782Y012637D01*
X036053Y012646D02*
X036053Y013039D01*
X036047Y012649D02*
X036053Y012646D01*
X034748Y012142D02*
X034748Y011688D01*
X034730Y011688D01*
X035398Y011701D02*
X035407Y011540D01*
X035398Y011701D02*
X035415Y011972D01*
X034213Y012200D02*
X034213Y011367D01*
X034470Y011110D01*
X036420Y011110D01*
X036720Y011410D01*
X036720Y011932D01*
X036714Y011938D01*
X037561Y012096D02*
X037567Y012228D01*
X037558Y012520D01*
X034207Y012206D02*
X034114Y012113D01*
X033756Y012113D01*
X031679Y013088D02*
X031477Y012714D01*
X031679Y013088D02*
X031679Y013142D01*
X032333Y013142D01*
X032333Y013811D02*
X031679Y013811D01*
X030852Y013811D01*
X030845Y013818D01*
X030845Y013149D02*
X030707Y013012D01*
X030220Y013012D01*
X030150Y013082D01*
X030150Y015250D01*
X030150Y015450D01*
X030316Y015616D01*
X030685Y015616D01*
X031241Y015488D02*
X031663Y015488D01*
X031241Y015485D02*
X031241Y015488D01*
X031259Y016138D02*
X031667Y016138D01*
X031259Y016141D02*
X031259Y016138D01*
X031256Y016728D02*
X031256Y016736D01*
X031663Y016736D01*
X031653Y017414D02*
X031242Y017414D01*
X031242Y017399D01*
X033207Y017441D02*
X033207Y017872D01*
X033212Y017872D01*
X034498Y018677D02*
X034521Y018677D01*
X034521Y019176D01*
X036416Y019088D02*
X036416Y018677D01*
X036427Y018677D01*
X036427Y017437D02*
X036878Y017437D01*
X036878Y017439D01*
X037525Y017458D02*
X037525Y017043D01*
X037549Y017043D01*
X038146Y016971D02*
X037549Y016374D01*
X037043Y016027D02*
X037013Y016020D01*
X036653Y016020D01*
X038146Y016971D02*
X038359Y017001D01*
X039028Y017001D02*
X039106Y017069D01*
X039106Y017846D01*
X039102Y017850D01*
X039102Y018643D01*
X039026Y016197D02*
X039452Y016197D01*
X039452Y016194D01*
X030220Y013012D02*
X029528Y013012D01*
X029409Y012894D01*
X028720Y012894D01*
X028336Y013449D02*
X028346Y013459D01*
X028346Y013878D01*
X027972Y013878D02*
X027283Y013878D01*
X027165Y013760D01*
X027156Y013750D01*
X027156Y014656D01*
X027375Y014875D01*
X027972Y014392D02*
X028140Y014560D01*
X028590Y014560D01*
X028740Y014410D01*
X028720Y014390D01*
X028720Y013878D01*
X027972Y013878D02*
X027972Y014392D01*
X029516Y014249D02*
X029516Y013771D01*
X029528Y013760D01*
X029508Y013780D01*
X027165Y013012D02*
X027126Y012973D01*
X027750Y012000D02*
X028375Y011375D01*
X028750Y011375D01*
X029460Y010750D02*
X032875Y010750D01*
X033125Y010500D01*
X034521Y009727D02*
X034521Y009228D01*
X034498Y009228D01*
X033212Y008424D02*
X033207Y008424D01*
X033207Y007992D01*
X031653Y007965D02*
X031242Y007965D01*
X031242Y007951D01*
X031256Y007287D02*
X031663Y007287D01*
X031256Y007280D02*
X031256Y007287D01*
X031259Y006692D02*
X031259Y006689D01*
X031667Y006689D01*
X031553Y006039D02*
X031241Y006079D01*
X031201Y006096D01*
X028720Y005330D02*
X028720Y004823D01*
X028720Y004823D01*
X028346Y004823D02*
X028346Y004408D01*
X028339Y004401D01*
X027972Y004823D02*
X027920Y004875D01*
X027972Y004903D02*
X028000Y004875D01*
X027500Y004875D01*
X027972Y004903D02*
X027972Y005292D01*
X028120Y005440D01*
X028610Y005440D01*
X028720Y005330D01*
X027972Y004903D02*
X027972Y004823D01*
X027375Y005500D02*
X026679Y004875D01*
X026666Y004613D01*
X027375Y005500D02*
X027701Y005826D01*
X027701Y006104D01*
X027701Y006901D01*
X027698Y006904D01*
X027032Y006901D02*
X027029Y006904D01*
X026346Y006904D01*
X026250Y007000D01*
X027032Y006901D02*
X027032Y006104D01*
X027125Y007750D02*
X028500Y007750D01*
X029125Y008375D01*
X029625Y008375D01*
X029375Y009125D02*
X028625Y008375D01*
X028125Y008375D01*
X027750Y008750D01*
X027150Y008750D01*
X026480Y008750D02*
X026415Y008815D01*
X026415Y010750D01*
X027295Y009415D02*
X028325Y009415D01*
X028325Y009050D01*
X028375Y009000D01*
X028623Y009000D01*
X028646Y008977D01*
X028325Y009415D02*
X028335Y009425D01*
X029375Y009378D02*
X029375Y009125D01*
X029375Y009378D02*
X029441Y009444D01*
X031210Y009375D02*
X032125Y009375D01*
X036416Y009228D02*
X036427Y009228D01*
X036416Y009228D02*
X036416Y009640D01*
X039102Y009194D02*
X039102Y008401D01*
X039106Y008398D01*
X039106Y007620D01*
X039008Y007522D01*
X039010Y007520D01*
X039010Y007270D01*
X038870Y007130D01*
X038470Y007130D01*
X038356Y007016D01*
X038356Y006748D01*
X038146Y007522D02*
X037549Y006925D01*
X037013Y006571D02*
X036663Y006571D01*
X037013Y006568D02*
X037013Y006571D01*
X038146Y007522D02*
X038339Y007522D01*
X037549Y007594D02*
X037525Y007594D01*
X037525Y008009D01*
X036878Y007990D02*
X036878Y007988D01*
X036427Y007988D01*
X039026Y006748D02*
X039452Y006748D01*
X039452Y006745D01*
X039776Y008398D02*
X039776Y009065D01*
X039772Y009194D01*
X039776Y008398D02*
X040086Y008378D01*
X040220Y008381D01*
X033593Y004406D02*
X033562Y004375D01*
X033250Y004375D01*
X033125Y004125D01*
X033000Y004125D01*
X032333Y004362D02*
X031589Y004362D01*
X030852Y004362D01*
X030845Y004370D01*
X031589Y003693D02*
X032333Y003693D01*
X031679Y003640D02*
X031477Y003266D01*
X031679Y003640D02*
X031589Y003693D01*
X033756Y002664D02*
X034114Y002664D01*
X034207Y002757D01*
X034213Y002751D02*
X034213Y001877D01*
X034340Y001750D01*
X036450Y001750D01*
X036700Y002000D01*
X036700Y002475D01*
X036714Y002489D01*
X037561Y002683D02*
X037567Y002779D01*
X037538Y003117D01*
X036722Y003158D02*
X036703Y003197D01*
X036703Y003591D01*
X036053Y003591D02*
X036053Y003197D01*
X036057Y003150D01*
X034748Y002693D02*
X034748Y002239D01*
X034730Y002239D01*
X035398Y002252D02*
X035415Y002524D01*
X035398Y002252D02*
X035407Y002091D01*
X026934Y003179D02*
X026856Y003101D01*
X026852Y003097D01*
X026048Y003097D01*
X026046Y003095D01*
X024770Y003095D01*
X024100Y003095D02*
X024005Y003000D01*
X023625Y003000D01*
X023464Y003161D01*
X022847Y003161D01*
X022847Y003535D02*
X023590Y003535D01*
X023995Y003940D01*
X023376Y003913D02*
X023373Y003909D01*
X022847Y003909D01*
X021863Y003161D02*
X021325Y003161D01*
X021321Y003158D01*
X024665Y003940D02*
X025024Y003940D01*
X025066Y003983D01*
X026875Y003179D02*
X026934Y003179D01*
X026856Y002432D02*
X026861Y002427D01*
X026861Y001988D01*
X026041Y001988D02*
X026041Y002421D01*
X026048Y002428D01*
X023088Y005875D02*
X022375Y005875D01*
X021961Y006289D01*
X021961Y009444D01*
X024896Y008727D02*
X024919Y008750D01*
X025290Y008750D01*
X025960Y008750D02*
X026480Y008750D01*
X023156Y005943D02*
X023088Y005875D01*
X018125Y006125D02*
X018055Y006055D01*
X017795Y006055D01*
X016500Y007125D02*
X014000Y007125D01*
X013875Y007000D01*
X013875Y006210D01*
X003626Y009000D02*
X003625Y008999D01*
X003625Y009499D02*
X003626Y009500D01*
X003626Y009875D01*
D35*
X003625Y009499D02*
X003626Y009000D01*
X004374Y009000D02*
X004919Y009000D01*
X004981Y009063D01*
X004981Y009813D02*
X004794Y009875D01*
X004374Y009875D01*
X007125Y011500D02*
X007125Y012363D01*
X007125Y011500D02*
X007750Y010875D01*
X008125Y010875D01*
X011125Y010875D02*
X011251Y010749D01*
X011251Y009750D01*
X011999Y009750D02*
X012125Y009501D01*
X012125Y010875D01*
X014349Y009284D02*
X014375Y009258D01*
X014375Y008749D01*
X015500Y008749D02*
X015500Y009258D01*
X015474Y009284D01*
X016450Y009136D02*
X016450Y008600D01*
X016450Y009136D02*
X016474Y009159D01*
X017474Y008909D02*
X017510Y008873D01*
X017510Y008257D01*
X018385Y008007D02*
X018385Y008623D01*
X018349Y008659D01*
X016450Y007931D02*
X016450Y007175D01*
X016500Y007125D01*
X016450Y007931D02*
X016381Y008001D01*
X015500Y008001D01*
X014375Y008001D01*
X018125Y006999D02*
X018125Y006125D01*
X017125Y006055D02*
X017125Y003710D01*
X017074Y003659D01*
X014750Y005250D02*
X014625Y005125D01*
X013875Y005125D01*
X013875Y005540D01*
X013875Y005125D02*
X013875Y004585D01*
X014750Y005250D02*
X014750Y005750D01*
X015055Y006055D01*
X015785Y006055D01*
X018125Y006999D02*
X018385Y007259D01*
X023156Y005274D02*
X023982Y005274D01*
X023986Y005270D01*
X023995Y005260D01*
X023995Y003940D01*
X023986Y005270D02*
X024873Y005270D01*
X024874Y005271D01*
X024874Y005940D02*
X024874Y006507D01*
X024873Y006508D01*
X023998Y006508D02*
X023986Y006495D01*
X023986Y005939D01*
X028720Y003839D02*
X028720Y003155D01*
X028750Y003125D01*
X028875Y003250D01*
X029750Y003250D01*
X030200Y003700D01*
X030845Y003700D01*
X028411Y001964D02*
X027875Y002500D01*
X027875Y002750D01*
X027500Y003125D01*
X026880Y003125D01*
X026856Y003101D01*
X028411Y001964D02*
X029441Y001964D01*
X034748Y003362D02*
X035415Y003193D01*
X036703Y004260D02*
X036714Y004271D01*
X037543Y004271D01*
X038250Y006250D02*
X038106Y006394D01*
X037530Y006394D01*
X038002Y006394D01*
X038356Y006748D01*
X032293Y005370D02*
X031553Y005370D01*
X029875Y007120D02*
X029904Y007149D01*
X029875Y007120D02*
X029875Y007750D01*
X029156Y007583D02*
X029089Y007651D01*
X029156Y007583D02*
X029156Y007149D01*
X029441Y009444D02*
X030471Y009444D01*
X030540Y009375D01*
X028335Y010095D02*
X028270Y010095D01*
X028270Y010750D01*
X028790Y010750D01*
X027600Y010750D02*
X027375Y010750D01*
X027375Y010085D01*
X027295Y010085D01*
X027375Y010750D02*
X027085Y010750D01*
X020125Y012375D02*
X020125Y013790D01*
X019125Y013665D02*
X019125Y012375D01*
X018125Y012375D02*
X018125Y015625D01*
X018080Y015670D01*
X017125Y015670D01*
X016125Y015670D01*
X017125Y015670D02*
X019125Y015670D01*
X020125Y015670D01*
X020125Y015080D02*
X020125Y014460D01*
X019125Y014335D02*
X019125Y015080D01*
X018125Y015625D02*
X018125Y015670D01*
X017125Y015080D02*
X017125Y014460D01*
X016125Y014460D02*
X016125Y015080D01*
X016125Y013790D02*
X016125Y012375D01*
X017125Y012375D02*
X017125Y013790D01*
X013125Y016625D02*
X011335Y016625D01*
X010665Y016625D02*
X009558Y016625D01*
X008692Y016250D02*
X008692Y016251D01*
X008692Y016250D02*
X006125Y016250D01*
X005875Y016000D01*
X005835Y016000D01*
X005875Y015960D02*
X005875Y014625D01*
X005000Y013750D01*
X002500Y013750D01*
X002125Y013375D01*
X002125Y012375D01*
X005165Y016000D02*
X005165Y016290D01*
X005375Y016500D01*
X005500Y016500D01*
X005625Y016625D01*
X005625Y017192D01*
X005683Y017250D01*
X006000Y017250D01*
X006250Y017000D01*
X007251Y017000D01*
X007999Y017000D02*
X008692Y017000D01*
X008692Y016999D01*
X004817Y016876D02*
X004817Y016829D01*
X004024Y016829D01*
X003960Y017625D02*
X004816Y017625D01*
X004817Y017624D01*
X003290Y017625D02*
X003250Y017665D01*
X003250Y018000D01*
X003000Y018250D01*
X001625Y018250D01*
X001125Y018750D01*
X001125Y019375D01*
X003625Y007943D02*
X003875Y007943D01*
X004125Y007943D01*
X004625Y007943D02*
X005071Y007943D01*
X005121Y007993D01*
X004625Y005807D02*
X004625Y005625D01*
X004875Y005375D01*
X005125Y005375D01*
X005250Y005250D01*
X005250Y004125D01*
X005000Y003875D01*
X004501Y003875D01*
X004500Y003876D01*
X003625Y003876D02*
X003045Y003876D01*
X002981Y003813D01*
X002375Y003210D02*
X002750Y002835D01*
X003625Y002835D01*
X002375Y003210D02*
X002375Y004750D01*
X003125Y005500D01*
X003125Y005807D01*
X003625Y005807D02*
X003625Y004624D01*
X004500Y004624D02*
X004500Y005000D01*
X004125Y005375D01*
X004125Y005807D01*
X006176Y003676D02*
X006000Y003500D01*
X006000Y002375D01*
X005750Y002125D01*
X003665Y002125D01*
X003625Y002165D01*
X002750Y002165D02*
X002750Y001581D01*
X002731Y001563D01*
X006176Y003676D02*
X007000Y003676D01*
X008250Y003676D01*
X009375Y003676D01*
X009625Y003676D01*
X009625Y002574D02*
X009625Y002000D01*
X009500Y001875D01*
X009237Y001875D01*
X009218Y001894D01*
X008218Y001894D02*
X008218Y002542D01*
X008250Y002574D01*
X007000Y002574D02*
X006968Y002542D01*
X006968Y001894D01*
X028590Y014560D02*
X028590Y015148D01*
X028502Y015236D01*
X028502Y015984D02*
X028502Y016548D01*
X028560Y016606D01*
X031663Y014819D02*
X032293Y014819D01*
X034748Y012811D02*
X035415Y012642D01*
D36*
X034250Y013000D03*
X035499Y013727D03*
X032835Y015210D03*
X030150Y015250D03*
X025625Y016375D03*
X027750Y012000D03*
X028750Y011375D03*
X025500Y011125D03*
X025375Y009625D03*
X032125Y009375D03*
X033125Y010500D03*
X033125Y011875D03*
X037094Y009794D03*
X038250Y006250D03*
X035499Y004278D03*
X034250Y003500D03*
X033000Y003625D03*
X033000Y004125D03*
X033060Y003060D03*
X032875Y002625D03*
X028750Y003125D03*
X016500Y007125D03*
D37*
X026250Y007000D03*
X027500Y004875D03*
X027375Y014875D03*
D38*
X034207Y012206D02*
X034213Y012200D01*
X041017Y015123D02*
X041430Y015104D01*
X038356Y016197D02*
X038080Y015920D01*
X038002Y015843D01*
X037530Y015843D01*
X034207Y002757D02*
X034213Y002751D01*
D39*
X032700Y004957D03*
X032780Y005780D03*
X032700Y014406D03*
D40*
X024625Y012625D03*
X024625Y016375D03*
X037094Y019243D03*
D41*
X032837Y006234D02*
X032894Y006176D01*
X032894Y006174D01*
X033009Y006059D01*
X033317Y006059D01*
D42*
X032837Y006234D03*
D43*
X029875Y007750D03*
X029625Y008375D03*
X027125Y007750D03*
X023875Y013000D03*
X023875Y015625D03*
D44*
X038125Y013625D03*
X038375Y015625D03*
D45*
X018125Y006125D02*
X018125Y005250D01*
X018250Y005125D01*
X012000Y005125D02*
X010625Y003750D01*
X009449Y003750D01*
X009412Y003713D01*
D46*
X012000Y005125D03*
X018250Y005125D03*
X002875Y015000D03*
D47*
X003000Y009375D03*
D48*
X003625Y009375D01*
X003625Y009499D01*
D49*
X013125Y016625D03*
M02*
