G75*
G70*
%OFA0B0*%
%FSLAX24Y24*%
%IPPOS*%
%LPD*%
%AMOC8*
5,1,8,0,0,1.08239X$1,22.5*
%
%ADD10C,0.0060*%
%ADD11C,0.0040*%
%ADD12C,0.0080*%
%ADD13C,0.0157*%
%ADD14C,0.0079*%
%ADD15R,0.0098X0.0098*%
D10*
X008369Y014405D02*
X008582Y014619D01*
X008582Y015046D01*
X008155Y015046D02*
X008155Y014619D01*
X008369Y014405D01*
X009444Y014405D02*
X009871Y014405D01*
X009658Y014405D02*
X009658Y015046D01*
X009444Y014832D01*
X010089Y014512D02*
X010195Y014512D01*
X010195Y014405D01*
X010089Y014405D01*
X010089Y014512D01*
X010411Y014405D02*
X010838Y014405D01*
X010624Y014405D02*
X010624Y015046D01*
X010411Y014832D01*
X015829Y016030D02*
X015829Y016350D01*
X015936Y016457D01*
X016150Y016457D01*
X016256Y016350D01*
X016256Y016030D01*
X016470Y016030D02*
X015829Y016030D01*
X015829Y016675D02*
X016470Y016675D01*
X016470Y017102D01*
X016470Y017319D02*
X015829Y017319D01*
X016470Y017319D02*
X016470Y017746D01*
X016470Y017964D02*
X016470Y018391D01*
X016470Y018177D02*
X015829Y018177D01*
X016043Y017964D01*
X016829Y018070D02*
X016936Y017964D01*
X016829Y018070D02*
X016829Y018284D01*
X016936Y018391D01*
X017043Y018391D01*
X017470Y017964D01*
X017470Y018391D01*
X017470Y017746D02*
X017470Y017319D01*
X016829Y017319D01*
X017470Y017102D02*
X017470Y016675D01*
X016829Y016675D01*
X016936Y016457D02*
X017150Y016457D01*
X017256Y016350D01*
X017256Y016030D01*
X017470Y016030D02*
X016829Y016030D01*
X016829Y016350D01*
X016936Y016457D01*
X018704Y016350D02*
X018704Y016137D01*
X018811Y016030D01*
X019238Y016030D01*
X019345Y016137D01*
X019345Y016350D01*
X019238Y016457D01*
X019025Y016457D01*
X019025Y016244D01*
X018811Y016457D02*
X018704Y016350D01*
X018704Y016675D02*
X018704Y016995D01*
X018811Y017102D01*
X019025Y017102D01*
X019131Y016995D01*
X019131Y016675D01*
X019345Y016675D02*
X018704Y016675D01*
X019704Y016781D02*
X019704Y016995D01*
X019811Y017102D01*
X020238Y017102D01*
X020345Y016995D01*
X020345Y016781D01*
X020238Y016675D01*
X019811Y016675D01*
X019704Y016781D01*
X019811Y017319D02*
X019704Y017426D01*
X019704Y017639D01*
X019811Y017746D01*
X019704Y017964D02*
X020345Y017964D01*
X020131Y017964D02*
X019704Y018391D01*
X020025Y018070D02*
X020345Y018391D01*
X020238Y017746D02*
X020345Y017639D01*
X020345Y017426D01*
X020238Y017319D01*
X019811Y017319D01*
X019345Y017426D02*
X019345Y017639D01*
X019238Y017746D01*
X019131Y017746D01*
X019025Y017639D01*
X019025Y017426D01*
X018918Y017319D01*
X018811Y017319D01*
X018704Y017426D01*
X018704Y017639D01*
X018811Y017746D01*
X019238Y017319D02*
X019345Y017426D01*
X020345Y016457D02*
X020345Y016030D01*
X019704Y016030D01*
X039642Y012467D02*
X039642Y012361D01*
X039749Y012254D01*
X039962Y012254D01*
X040069Y012147D01*
X040069Y012040D01*
X039962Y011934D01*
X039749Y011934D01*
X039642Y012040D01*
X040287Y012040D02*
X040393Y011934D01*
X040607Y011934D01*
X040714Y012040D01*
X040931Y011934D02*
X040931Y012574D01*
X040714Y012467D02*
X040607Y012574D01*
X040393Y012574D01*
X040287Y012467D01*
X040287Y012040D01*
X040931Y012147D02*
X041358Y012574D01*
X041576Y012467D02*
X041682Y012574D01*
X041896Y012574D01*
X042003Y012467D01*
X042003Y012361D01*
X041576Y011934D01*
X042003Y011934D01*
X041358Y011934D02*
X041038Y012254D01*
X040069Y012467D02*
X039962Y012574D01*
X039749Y012574D01*
X039642Y012467D01*
X039828Y002982D02*
X039721Y002876D01*
X039721Y002769D01*
X039828Y002662D01*
X040042Y002662D01*
X040149Y002555D01*
X040149Y002449D01*
X040042Y002342D01*
X039828Y002342D01*
X039721Y002449D01*
X040366Y002449D02*
X040473Y002342D01*
X040686Y002342D01*
X040793Y002449D01*
X041011Y002555D02*
X041438Y002982D01*
X041655Y002769D02*
X041869Y002982D01*
X041869Y002342D01*
X042082Y002342D02*
X041655Y002342D01*
X041438Y002342D02*
X041117Y002662D01*
X041011Y002982D02*
X041011Y002342D01*
X040366Y002449D02*
X040366Y002876D01*
X040473Y002982D01*
X040686Y002982D01*
X040793Y002876D01*
X040149Y002876D02*
X040042Y002982D01*
X039828Y002982D01*
D11*
X004045Y001669D02*
X004045Y001439D01*
X004505Y001439D01*
X004352Y001439D02*
X004352Y001669D01*
X004275Y001746D01*
X004121Y001746D01*
X004045Y001669D01*
X004198Y001899D02*
X004045Y002053D01*
X004505Y002053D01*
X004505Y002206D02*
X004505Y001899D01*
X004505Y001746D02*
X004352Y001592D01*
X004275Y002360D02*
X004275Y002667D01*
X004505Y002590D02*
X004045Y002590D01*
X004275Y002360D01*
X002330Y002220D02*
X001870Y002220D01*
X001870Y002450D01*
X001946Y002527D01*
X002100Y002527D01*
X002177Y002450D01*
X002177Y002220D01*
X002177Y002373D02*
X002330Y002527D01*
X002330Y002680D02*
X002330Y002987D01*
X002330Y002834D02*
X001870Y002834D01*
X002023Y002680D01*
X001870Y003141D02*
X001870Y003448D01*
X001946Y003448D01*
X002253Y003141D01*
X002330Y003141D01*
X004145Y003466D02*
X004221Y003389D01*
X004528Y003389D01*
X004605Y003466D01*
X004605Y003619D01*
X004528Y003696D01*
X004605Y003849D02*
X004298Y004156D01*
X004221Y004156D01*
X004145Y004079D01*
X004145Y003926D01*
X004221Y003849D01*
X004221Y003696D02*
X004145Y003619D01*
X004145Y003466D01*
X004605Y003849D02*
X004605Y004156D01*
X004605Y004310D02*
X004605Y004617D01*
X004605Y004463D02*
X004145Y004463D01*
X004298Y004310D01*
X005020Y004386D02*
X005096Y004310D01*
X005020Y004386D02*
X005020Y004540D01*
X005096Y004617D01*
X005173Y004617D01*
X005480Y004310D01*
X005480Y004617D01*
X006345Y004554D02*
X006345Y004247D01*
X006422Y004170D01*
X006575Y004170D01*
X006652Y004247D01*
X006805Y004247D02*
X006805Y004170D01*
X006805Y004247D02*
X007112Y004554D01*
X007112Y004630D01*
X006805Y004630D01*
X006652Y004554D02*
X006575Y004630D01*
X006422Y004630D01*
X006345Y004554D01*
X007266Y004554D02*
X007343Y004630D01*
X007496Y004630D01*
X007573Y004554D01*
X007573Y004477D01*
X007266Y004170D01*
X007573Y004170D01*
X007720Y004247D02*
X007797Y004170D01*
X007950Y004170D01*
X008027Y004247D01*
X008180Y004170D02*
X008487Y004477D01*
X008487Y004554D01*
X008411Y004630D01*
X008257Y004630D01*
X008180Y004554D01*
X008027Y004554D02*
X007950Y004630D01*
X007797Y004630D01*
X007720Y004554D01*
X007720Y004247D01*
X008180Y004170D02*
X008487Y004170D01*
X008641Y004247D02*
X008641Y004323D01*
X008718Y004400D01*
X008871Y004400D01*
X008948Y004323D01*
X008948Y004247D01*
X008871Y004170D01*
X008718Y004170D01*
X008641Y004247D01*
X008718Y004400D02*
X008641Y004477D01*
X008641Y004554D01*
X008718Y004630D01*
X008871Y004630D01*
X008948Y004554D01*
X008948Y004477D01*
X008871Y004400D01*
X009095Y004247D02*
X009172Y004170D01*
X009325Y004170D01*
X009402Y004247D01*
X009555Y004170D02*
X009862Y004170D01*
X009709Y004170D02*
X009709Y004630D01*
X009555Y004477D01*
X009402Y004554D02*
X009325Y004630D01*
X009172Y004630D01*
X009095Y004554D01*
X009095Y004247D01*
X010016Y004247D02*
X010016Y004323D01*
X010093Y004400D01*
X010246Y004400D01*
X010323Y004323D01*
X010323Y004247D01*
X010246Y004170D01*
X010093Y004170D01*
X010016Y004247D01*
X010093Y004400D02*
X010016Y004477D01*
X010016Y004554D01*
X010093Y004630D01*
X010246Y004630D01*
X010323Y004554D01*
X010323Y004477D01*
X010246Y004400D01*
X012920Y004178D02*
X013073Y004024D01*
X012996Y003871D02*
X013150Y003871D01*
X013227Y003794D01*
X013227Y003564D01*
X013380Y003564D02*
X012920Y003564D01*
X012920Y003794D01*
X012996Y003871D01*
X013227Y003717D02*
X013380Y003871D01*
X013380Y004024D02*
X013380Y004331D01*
X013380Y004178D02*
X012920Y004178D01*
X013150Y004485D02*
X013150Y004715D01*
X013227Y004792D01*
X013303Y004792D01*
X013380Y004715D01*
X013380Y004561D01*
X013303Y004485D01*
X013150Y004485D01*
X012996Y004638D01*
X012920Y004792D01*
X012920Y005189D02*
X012920Y005419D01*
X012996Y005496D01*
X013150Y005496D01*
X013227Y005419D01*
X013227Y005189D01*
X013380Y005189D02*
X012920Y005189D01*
X013227Y005342D02*
X013380Y005496D01*
X013380Y005649D02*
X013380Y005956D01*
X013380Y005803D02*
X012920Y005803D01*
X013073Y005649D01*
X013150Y006110D02*
X013073Y006263D01*
X013073Y006340D01*
X013150Y006417D01*
X013303Y006417D01*
X013380Y006340D01*
X013380Y006186D01*
X013303Y006110D01*
X013150Y006110D02*
X012920Y006110D01*
X012920Y006417D01*
X012040Y008770D02*
X012117Y008847D01*
X012117Y009154D01*
X012040Y009230D01*
X011886Y009230D01*
X011810Y009154D01*
X011810Y009077D01*
X011886Y009000D01*
X012117Y009000D01*
X012040Y008770D02*
X011886Y008770D01*
X011810Y008847D01*
X011656Y008770D02*
X011349Y008770D01*
X011656Y009077D01*
X011656Y009154D01*
X011579Y009230D01*
X011426Y009230D01*
X011349Y009154D01*
X011196Y009154D02*
X011119Y009230D01*
X010966Y009230D01*
X010889Y009154D01*
X010889Y008847D01*
X010966Y008770D01*
X011119Y008770D01*
X011196Y008847D01*
X014020Y009847D02*
X014096Y009770D01*
X014403Y009770D01*
X014480Y009847D01*
X014480Y010000D01*
X014403Y010077D01*
X014403Y010230D02*
X014480Y010230D01*
X014403Y010230D02*
X014096Y010537D01*
X014020Y010537D01*
X014020Y010230D01*
X014096Y010077D02*
X014020Y010000D01*
X014020Y009847D01*
X015145Y009847D02*
X015221Y009770D01*
X015528Y009770D01*
X015605Y009847D01*
X015605Y010000D01*
X015528Y010077D01*
X015528Y010230D02*
X015605Y010230D01*
X015528Y010230D02*
X015221Y010537D01*
X015145Y010537D01*
X015145Y010230D01*
X015221Y010077D02*
X015145Y010000D01*
X015145Y009847D01*
X016180Y009868D02*
X016257Y009791D01*
X016564Y009791D01*
X016640Y009868D01*
X016640Y010021D01*
X016564Y010098D01*
X016640Y010251D02*
X016334Y010558D01*
X016257Y010558D01*
X016180Y010481D01*
X016180Y010328D01*
X016257Y010251D01*
X016257Y010098D02*
X016180Y010021D01*
X016180Y009868D01*
X016640Y010251D02*
X016640Y010558D01*
X016564Y010712D02*
X016640Y010788D01*
X016640Y010942D01*
X016564Y011019D01*
X016487Y011019D01*
X016410Y010942D01*
X016410Y010865D01*
X016410Y010942D02*
X016334Y011019D01*
X016257Y011019D01*
X016180Y010942D01*
X016180Y010788D01*
X016257Y010712D01*
X015605Y010921D02*
X015145Y010921D01*
X015375Y010691D01*
X015375Y010998D01*
X014480Y010921D02*
X014480Y010768D01*
X014403Y010691D01*
X014250Y010844D02*
X014250Y010921D01*
X014327Y010998D01*
X014403Y010998D01*
X014480Y010921D01*
X014250Y010921D02*
X014173Y010998D01*
X014096Y010998D01*
X014020Y010921D01*
X014020Y010768D01*
X014096Y010691D01*
X017184Y010420D02*
X017338Y010267D01*
X017261Y010114D02*
X017184Y010037D01*
X017184Y009883D01*
X017261Y009807D01*
X017568Y009807D01*
X017645Y009883D01*
X017645Y010037D01*
X017568Y010114D01*
X017645Y010267D02*
X017645Y010574D01*
X017645Y010420D02*
X017184Y010420D01*
X017415Y010727D02*
X017415Y010958D01*
X017491Y011034D01*
X017568Y011034D01*
X017645Y010958D01*
X017645Y010804D01*
X017568Y010727D01*
X017415Y010727D01*
X017261Y010881D01*
X017184Y011034D01*
X018084Y011001D02*
X018084Y010694D01*
X018084Y011001D02*
X018161Y011001D01*
X018468Y010694D01*
X018545Y010694D01*
X018545Y010540D02*
X018545Y010233D01*
X018545Y010387D02*
X018084Y010387D01*
X018238Y010233D01*
X018161Y010080D02*
X018084Y010003D01*
X018084Y009850D01*
X018161Y009773D01*
X018468Y009773D01*
X018545Y009850D01*
X018545Y010003D01*
X018468Y010080D01*
X017955Y013114D02*
X017495Y013114D01*
X017495Y013344D01*
X017571Y013421D01*
X017725Y013421D01*
X017802Y013344D01*
X017802Y013114D01*
X017802Y013267D02*
X017955Y013421D01*
X017955Y013574D02*
X017955Y013881D01*
X017955Y013728D02*
X017495Y013728D01*
X017648Y013574D01*
X017648Y014035D02*
X017571Y014035D01*
X017495Y014111D01*
X017495Y014265D01*
X017571Y014342D01*
X017878Y014342D01*
X017955Y014265D01*
X017955Y014111D01*
X017878Y014035D01*
X017725Y014111D02*
X017725Y014342D01*
X017725Y014111D02*
X017648Y014035D01*
X016955Y014111D02*
X016878Y014035D01*
X016571Y014342D01*
X016878Y014342D01*
X016955Y014265D01*
X016955Y014111D01*
X016878Y014035D02*
X016571Y014035D01*
X016495Y014111D01*
X016495Y014265D01*
X016571Y014342D01*
X016571Y013881D02*
X016495Y013804D01*
X016495Y013651D01*
X016571Y013574D01*
X016571Y013421D02*
X016725Y013421D01*
X016802Y013344D01*
X016802Y013114D01*
X016955Y013114D02*
X016495Y013114D01*
X016495Y013344D01*
X016571Y013421D01*
X016802Y013267D02*
X016955Y013421D01*
X016955Y013574D02*
X016648Y013881D01*
X016571Y013881D01*
X016955Y013881D02*
X016955Y013574D01*
X019495Y013526D02*
X019571Y013449D01*
X019495Y013526D02*
X019495Y013679D01*
X019571Y013756D01*
X019648Y013756D01*
X019955Y013449D01*
X019955Y013756D01*
X019955Y013910D02*
X019955Y014217D01*
X019955Y014063D02*
X019495Y014063D01*
X019648Y013910D01*
X020495Y013728D02*
X020648Y013574D01*
X020571Y013421D02*
X020725Y013421D01*
X020802Y013344D01*
X020802Y013114D01*
X020955Y013114D02*
X020495Y013114D01*
X020495Y013344D01*
X020571Y013421D01*
X020802Y013267D02*
X020955Y013421D01*
X020955Y013574D02*
X020955Y013881D01*
X020955Y013728D02*
X020495Y013728D01*
X020571Y014035D02*
X020648Y014035D01*
X020725Y014111D01*
X020725Y014265D01*
X020802Y014342D01*
X020878Y014342D01*
X020955Y014265D01*
X020955Y014111D01*
X020878Y014035D01*
X020802Y014035D01*
X020725Y014111D01*
X020725Y014265D02*
X020648Y014342D01*
X020571Y014342D01*
X020495Y014265D01*
X020495Y014111D01*
X020571Y014035D01*
X019955Y013296D02*
X019802Y013142D01*
X019802Y013219D02*
X019802Y012989D01*
X019955Y012989D02*
X019495Y012989D01*
X019495Y013219D01*
X019571Y013296D01*
X019725Y013296D01*
X019802Y013219D01*
X026185Y013292D02*
X026185Y012985D01*
X026262Y012832D02*
X026185Y012755D01*
X026185Y012601D01*
X026262Y012525D01*
X026569Y012525D01*
X026645Y012601D01*
X026645Y012755D01*
X026569Y012832D01*
X026569Y012985D02*
X026645Y012985D01*
X026569Y012985D02*
X026262Y013292D01*
X026185Y013292D01*
X026262Y013445D02*
X026185Y013522D01*
X026185Y013676D01*
X026262Y013752D01*
X026569Y013445D01*
X026645Y013522D01*
X026645Y013676D01*
X026569Y013752D01*
X026262Y013752D01*
X026262Y013445D02*
X026569Y013445D01*
X027770Y012452D02*
X027924Y012452D01*
X027847Y012452D02*
X027847Y011991D01*
X027770Y011991D02*
X027924Y011991D01*
X028077Y012068D02*
X028154Y011991D01*
X028307Y011991D01*
X028384Y012068D01*
X028538Y011991D02*
X028845Y012298D01*
X028845Y012375D01*
X028768Y012452D01*
X028614Y012452D01*
X028538Y012375D01*
X028384Y012375D02*
X028307Y012452D01*
X028154Y012452D01*
X028077Y012375D01*
X028077Y012068D01*
X028538Y011991D02*
X028845Y011991D01*
X028795Y011580D02*
X028795Y011120D01*
X029102Y011120D01*
X029255Y011197D02*
X029332Y011120D01*
X029486Y011120D01*
X029562Y011197D01*
X029562Y011504D01*
X029486Y011580D01*
X029332Y011580D01*
X029255Y011504D01*
X029255Y011427D01*
X029332Y011350D01*
X029562Y011350D01*
X028372Y011504D02*
X028065Y011197D01*
X028065Y011120D01*
X027912Y011120D02*
X027605Y011120D01*
X027605Y011580D01*
X027187Y011580D02*
X027034Y011504D01*
X026880Y011350D01*
X027111Y011350D01*
X027187Y011273D01*
X027187Y011197D01*
X027111Y011120D01*
X026957Y011120D01*
X026880Y011197D01*
X026880Y011350D01*
X026727Y011120D02*
X026420Y011120D01*
X026420Y011580D01*
X028065Y011580D02*
X028372Y011580D01*
X028372Y011504D01*
X030674Y011835D02*
X031134Y011835D01*
X031134Y012142D01*
X031134Y012296D02*
X030827Y012603D01*
X030750Y012603D01*
X030674Y012526D01*
X030674Y012372D01*
X030750Y012296D01*
X031134Y012296D02*
X031134Y012603D01*
X031470Y012436D02*
X031547Y012513D01*
X031623Y012513D01*
X031700Y012436D01*
X031777Y012513D01*
X031853Y012513D01*
X031930Y012436D01*
X031930Y012283D01*
X031853Y012206D01*
X031930Y012053D02*
X031930Y011746D01*
X031930Y011899D02*
X031470Y011899D01*
X031623Y011746D01*
X031547Y011592D02*
X031470Y011516D01*
X031470Y011362D01*
X031547Y011285D01*
X031853Y011285D01*
X031930Y011362D01*
X031930Y011516D01*
X031853Y011592D01*
X032213Y011508D02*
X032213Y011354D01*
X032290Y011277D01*
X032596Y011277D01*
X032673Y011354D01*
X032673Y011508D01*
X032596Y011584D01*
X032673Y011738D02*
X032673Y012045D01*
X032673Y012198D02*
X032366Y012505D01*
X032290Y012505D01*
X032213Y012428D01*
X032213Y012275D01*
X032290Y012198D01*
X032213Y011891D02*
X032673Y011891D01*
X032673Y012198D02*
X032673Y012505D01*
X032213Y011891D02*
X032366Y011738D01*
X032290Y011584D02*
X032213Y011508D01*
X033526Y011607D02*
X033756Y011376D01*
X033756Y011683D01*
X033526Y011607D02*
X033987Y011607D01*
X034298Y011391D02*
X034298Y011237D01*
X034375Y011160D01*
X034451Y011160D01*
X034528Y011237D01*
X034528Y011467D01*
X034375Y011467D02*
X034298Y011391D01*
X034375Y011467D02*
X034682Y011467D01*
X034758Y011391D01*
X034758Y011237D01*
X034682Y011160D01*
X034682Y011007D02*
X034605Y011007D01*
X034528Y010930D01*
X034528Y010853D01*
X034528Y010930D02*
X034451Y011007D01*
X034375Y011007D01*
X034298Y010930D01*
X034298Y010777D01*
X034375Y010700D01*
X034375Y010546D02*
X034298Y010470D01*
X034298Y010316D01*
X034375Y010240D01*
X034682Y010240D01*
X034758Y010316D01*
X034758Y010470D01*
X034682Y010546D01*
X034682Y010700D02*
X034758Y010777D01*
X034758Y010930D01*
X034682Y011007D01*
X034946Y010912D02*
X034946Y010605D01*
X035177Y010605D01*
X035100Y010758D01*
X035100Y010835D01*
X035177Y010912D01*
X035330Y010912D01*
X035407Y010835D01*
X035407Y010681D01*
X035330Y010605D01*
X035330Y010451D02*
X035407Y010374D01*
X035407Y010221D01*
X035330Y010144D01*
X035330Y009991D02*
X035407Y009914D01*
X035407Y009761D01*
X035330Y009684D01*
X035023Y009684D01*
X034946Y009761D01*
X034946Y009914D01*
X035023Y009991D01*
X034946Y010144D02*
X035177Y010144D01*
X035100Y010298D01*
X035100Y010374D01*
X035177Y010451D01*
X035330Y010451D01*
X035562Y010367D02*
X035639Y010443D01*
X035716Y010443D01*
X035792Y010367D01*
X035869Y010443D01*
X035946Y010443D01*
X036023Y010367D01*
X036023Y010213D01*
X035946Y010136D01*
X036023Y009983D02*
X035869Y009830D01*
X035869Y009906D02*
X035869Y009676D01*
X036023Y009676D02*
X035562Y009676D01*
X035562Y009906D01*
X035639Y009983D01*
X035792Y009983D01*
X035869Y009906D01*
X036166Y009937D02*
X036243Y010014D01*
X036397Y010014D01*
X036473Y009937D01*
X036473Y009707D01*
X036473Y009860D02*
X036627Y010014D01*
X036550Y010167D02*
X036627Y010244D01*
X036627Y010397D01*
X036550Y010474D01*
X036473Y010474D01*
X036397Y010397D01*
X036397Y010321D01*
X036397Y010397D02*
X036320Y010474D01*
X036243Y010474D01*
X036166Y010397D01*
X036166Y010244D01*
X036243Y010167D01*
X036166Y009937D02*
X036166Y009707D01*
X036627Y009707D01*
X036857Y009789D02*
X036857Y009558D01*
X037317Y009558D01*
X037164Y009558D02*
X037164Y009789D01*
X037087Y009865D01*
X036934Y009865D01*
X036857Y009789D01*
X036934Y010019D02*
X036857Y010096D01*
X036857Y010249D01*
X036934Y010326D01*
X037011Y010326D01*
X037087Y010249D01*
X037164Y010326D01*
X037241Y010326D01*
X037317Y010249D01*
X037317Y010096D01*
X037241Y010019D01*
X037317Y009865D02*
X037164Y009712D01*
X037477Y009428D02*
X037400Y009351D01*
X037400Y009044D01*
X037477Y008967D01*
X037631Y008967D01*
X037707Y009044D01*
X037861Y009044D02*
X037938Y008967D01*
X038091Y008967D01*
X038168Y009044D01*
X038168Y009198D01*
X038091Y009274D01*
X038014Y009274D01*
X037861Y009198D01*
X037861Y009428D01*
X038168Y009428D01*
X038321Y009274D02*
X038475Y009428D01*
X038475Y008967D01*
X038628Y008967D02*
X038321Y008967D01*
X037707Y009351D02*
X037631Y009428D01*
X037477Y009428D01*
X037087Y010172D02*
X037087Y010249D01*
X037241Y010479D02*
X037317Y010479D01*
X037241Y010479D02*
X036934Y010786D01*
X036857Y010786D01*
X036857Y010479D01*
X036627Y010704D02*
X036627Y010858D01*
X036550Y010935D01*
X036473Y010935D01*
X036397Y010858D01*
X036397Y010628D01*
X036550Y010628D01*
X036627Y010704D01*
X036397Y010628D02*
X036243Y010781D01*
X036166Y010935D01*
X036227Y011064D02*
X035920Y011064D01*
X035920Y011525D01*
X036380Y011371D02*
X036533Y011525D01*
X036533Y011064D01*
X036380Y011064D02*
X036687Y011064D01*
X036023Y010827D02*
X035562Y010827D01*
X035792Y010597D01*
X035792Y010904D01*
X035792Y010367D02*
X035792Y010290D01*
X035639Y010136D02*
X035562Y010213D01*
X035562Y010367D01*
X034946Y010451D02*
X034946Y010144D01*
X034148Y010280D02*
X033688Y010280D01*
X033918Y010050D01*
X033918Y010357D01*
X033918Y009896D02*
X034071Y009896D01*
X034148Y009820D01*
X034148Y009666D01*
X034071Y009589D01*
X034071Y009436D02*
X034148Y009359D01*
X034148Y009206D01*
X034071Y009129D01*
X033764Y009129D01*
X033688Y009206D01*
X033688Y009359D01*
X033764Y009436D01*
X033688Y009589D02*
X033918Y009589D01*
X033841Y009743D01*
X033841Y009820D01*
X033918Y009896D01*
X033688Y009896D02*
X033688Y009589D01*
X033379Y009517D02*
X033379Y009364D01*
X033302Y009287D01*
X033302Y009134D02*
X033379Y009057D01*
X033379Y008904D01*
X033302Y008827D01*
X033302Y008673D02*
X033379Y008597D01*
X033379Y008443D01*
X033302Y008366D01*
X032995Y008366D01*
X032918Y008443D01*
X032918Y008597D01*
X032995Y008673D01*
X032995Y008827D02*
X032918Y008904D01*
X032918Y009057D01*
X032995Y009134D01*
X033072Y009134D01*
X033149Y009057D01*
X033225Y009134D01*
X033302Y009134D01*
X033149Y009057D02*
X033149Y008980D01*
X033477Y008979D02*
X033937Y008979D01*
X033937Y008826D02*
X033937Y009133D01*
X033630Y008826D02*
X033477Y008979D01*
X033553Y008672D02*
X033707Y008672D01*
X033784Y008595D01*
X033784Y008365D01*
X033937Y008365D02*
X033477Y008365D01*
X033477Y008595D01*
X033553Y008672D01*
X033784Y008519D02*
X033937Y008672D01*
X032995Y009287D02*
X032918Y009364D01*
X032918Y009517D01*
X032995Y009594D01*
X033072Y009594D01*
X033149Y009517D01*
X033225Y009594D01*
X033302Y009594D01*
X033379Y009517D01*
X033149Y009517D02*
X033149Y009441D01*
X031042Y008879D02*
X031042Y008802D01*
X030735Y008495D01*
X031042Y008495D01*
X031013Y008193D02*
X030782Y007963D01*
X031089Y007963D01*
X031013Y007733D02*
X031013Y008193D01*
X030629Y007963D02*
X030322Y007963D01*
X030552Y008193D01*
X030552Y007733D01*
X030536Y007494D02*
X030306Y007264D01*
X030613Y007264D01*
X030766Y007110D02*
X030766Y007034D01*
X030766Y007110D02*
X031073Y007417D01*
X031073Y007494D01*
X030766Y007494D01*
X030536Y007494D02*
X030536Y007034D01*
X030516Y006928D02*
X030286Y006698D01*
X030593Y006698D01*
X030746Y006698D02*
X030976Y006698D01*
X031053Y006621D01*
X031053Y006544D01*
X030976Y006468D01*
X030823Y006468D01*
X030746Y006544D01*
X030746Y006698D01*
X030899Y006851D01*
X031053Y006928D01*
X030516Y006928D02*
X030516Y006468D01*
X030132Y006544D02*
X030055Y006468D01*
X029902Y006468D01*
X029825Y006544D01*
X029825Y006851D01*
X029902Y006928D01*
X030055Y006928D01*
X030132Y006851D01*
X030076Y007034D02*
X030152Y007110D01*
X030076Y007034D02*
X029922Y007034D01*
X029845Y007110D01*
X029845Y007417D01*
X029922Y007494D01*
X030076Y007494D01*
X030152Y007417D01*
X030092Y007733D02*
X030168Y007809D01*
X030092Y007733D02*
X029938Y007733D01*
X029862Y007809D01*
X029862Y008116D01*
X029938Y008193D01*
X030092Y008193D01*
X030168Y008116D01*
X030121Y008495D02*
X029967Y008648D01*
X030044Y008648D02*
X029814Y008648D01*
X029814Y008495D02*
X029814Y008955D01*
X030044Y008955D01*
X030121Y008879D01*
X030121Y008725D01*
X030044Y008648D01*
X030274Y008495D02*
X030581Y008495D01*
X030428Y008495D02*
X030428Y008955D01*
X030274Y008802D01*
X030735Y008879D02*
X030811Y008955D01*
X030965Y008955D01*
X031042Y008879D01*
X029422Y008155D02*
X029422Y008078D01*
X029115Y007771D01*
X029115Y007694D01*
X028962Y007694D02*
X028655Y007694D01*
X028962Y008001D01*
X028962Y008078D01*
X028885Y008155D01*
X028731Y008155D01*
X028655Y008078D01*
X028501Y008078D02*
X028424Y008155D01*
X028271Y008155D01*
X028194Y008078D01*
X028194Y007771D01*
X028271Y007694D01*
X028424Y007694D01*
X028501Y007771D01*
X028464Y007085D02*
X028310Y007085D01*
X028233Y007008D01*
X028233Y006701D01*
X028310Y006624D01*
X028464Y006624D01*
X028540Y006701D01*
X028694Y006701D02*
X028771Y006624D01*
X028924Y006624D01*
X029001Y006701D01*
X029001Y006778D01*
X028924Y006854D01*
X028847Y006854D01*
X028924Y006854D02*
X029001Y006931D01*
X029001Y007008D01*
X028924Y007085D01*
X028771Y007085D01*
X028694Y007008D01*
X028540Y007008D02*
X028464Y007085D01*
X029154Y007008D02*
X029231Y007085D01*
X029384Y007085D01*
X029461Y007008D01*
X029154Y006701D01*
X029231Y006624D01*
X029384Y006624D01*
X029461Y006701D01*
X029461Y007008D01*
X029154Y007008D02*
X029154Y006701D01*
X029311Y006385D02*
X029311Y005924D01*
X029464Y005924D02*
X029157Y005924D01*
X029004Y006001D02*
X028927Y005924D01*
X028774Y005924D01*
X028697Y006001D01*
X028544Y006001D02*
X028467Y005924D01*
X028313Y005924D01*
X028237Y006001D01*
X028237Y006308D01*
X028313Y006385D01*
X028467Y006385D01*
X028544Y006308D01*
X028697Y006308D02*
X028774Y006385D01*
X028927Y006385D01*
X029004Y006308D01*
X029004Y006231D01*
X028927Y006155D01*
X029004Y006078D01*
X029004Y006001D01*
X028927Y006155D02*
X028851Y006155D01*
X029157Y006231D02*
X029311Y006385D01*
X029655Y006370D02*
X029809Y006217D01*
X029809Y006063D02*
X029886Y005987D01*
X029962Y006063D01*
X030039Y006063D01*
X030116Y005987D01*
X030116Y005833D01*
X030039Y005757D01*
X030116Y005603D02*
X030116Y005296D01*
X029655Y005296D01*
X029732Y005757D02*
X029655Y005833D01*
X029655Y005987D01*
X029732Y006063D01*
X029809Y006063D01*
X029886Y005987D02*
X029886Y005910D01*
X030116Y006217D02*
X030116Y006524D01*
X030116Y006370D02*
X029655Y006370D01*
X030952Y005056D02*
X031029Y005133D01*
X031182Y005133D01*
X031259Y005056D01*
X031413Y005133D02*
X031719Y005133D01*
X031719Y005056D01*
X031413Y004749D01*
X031413Y004673D01*
X031259Y004749D02*
X031182Y004673D01*
X031029Y004673D01*
X030952Y004749D01*
X030952Y005056D01*
X031934Y005024D02*
X031934Y004717D01*
X032011Y004640D01*
X032164Y004640D01*
X032241Y004717D01*
X032394Y004717D02*
X032471Y004640D01*
X032625Y004640D01*
X032701Y004717D01*
X032701Y004794D01*
X032625Y004871D01*
X032394Y004871D01*
X032394Y004717D01*
X032394Y004871D02*
X032548Y005024D01*
X032701Y005101D01*
X032241Y005024D02*
X032164Y005101D01*
X032011Y005101D01*
X031934Y005024D01*
X034882Y006582D02*
X034959Y006506D01*
X035113Y006506D01*
X035189Y006582D01*
X035343Y006582D02*
X035420Y006506D01*
X035573Y006506D01*
X035650Y006582D01*
X035650Y006659D01*
X035573Y006736D01*
X035420Y006736D01*
X035343Y006813D01*
X035343Y006889D01*
X035420Y006966D01*
X035573Y006966D01*
X035650Y006889D01*
X035650Y006813D01*
X035573Y006736D01*
X035420Y006736D02*
X035343Y006659D01*
X035343Y006582D01*
X035189Y006889D02*
X035113Y006966D01*
X034959Y006966D01*
X034882Y006889D01*
X034882Y006582D01*
X035678Y006080D02*
X035908Y006080D01*
X035985Y006003D01*
X035985Y005850D01*
X035908Y005773D01*
X035678Y005773D01*
X035678Y005620D02*
X035678Y006080D01*
X036138Y006003D02*
X036215Y006080D01*
X036369Y006080D01*
X036445Y006003D01*
X036445Y005927D01*
X036369Y005850D01*
X036445Y005773D01*
X036445Y005696D01*
X036369Y005620D01*
X036215Y005620D01*
X036138Y005696D01*
X035985Y005620D02*
X035831Y005773D01*
X036292Y005850D02*
X036369Y005850D01*
X036547Y005744D02*
X036470Y005667D01*
X036470Y005513D01*
X036547Y005437D01*
X036624Y005437D01*
X036700Y005513D01*
X036700Y005744D01*
X036676Y005850D02*
X036906Y005850D01*
X036854Y005744D02*
X036547Y005744D01*
X036599Y005696D02*
X036676Y005620D01*
X036829Y005620D01*
X036906Y005696D01*
X036906Y006003D01*
X036829Y006080D01*
X036676Y006080D01*
X036599Y006003D01*
X036599Y005927D01*
X036676Y005850D01*
X036854Y005744D02*
X036930Y005667D01*
X036930Y005513D01*
X036854Y005437D01*
X036854Y005283D02*
X036777Y005283D01*
X036700Y005206D01*
X036700Y004976D01*
X036854Y004976D01*
X036930Y005053D01*
X036930Y005206D01*
X036854Y005283D01*
X036547Y005130D02*
X036700Y004976D01*
X036547Y004823D02*
X036470Y004746D01*
X036470Y004593D01*
X036547Y004516D01*
X036854Y004516D01*
X036930Y004593D01*
X036930Y004746D01*
X036854Y004823D01*
X036547Y005130D02*
X036470Y005283D01*
X036214Y005310D02*
X036214Y005003D01*
X036214Y005157D02*
X035753Y005157D01*
X035907Y005003D01*
X035830Y004850D02*
X035753Y004773D01*
X035753Y004620D01*
X035830Y004543D01*
X036137Y004543D01*
X036214Y004620D01*
X036214Y004773D01*
X036137Y004850D01*
X038121Y004194D02*
X038121Y004041D01*
X038198Y003964D01*
X038275Y003964D01*
X038351Y004041D01*
X038351Y004194D01*
X038428Y004271D01*
X038505Y004271D01*
X038582Y004194D01*
X038582Y004041D01*
X038505Y003964D01*
X038428Y003964D01*
X038351Y004041D01*
X038351Y004194D02*
X038275Y004271D01*
X038198Y004271D01*
X038121Y004194D01*
X038198Y003810D02*
X038275Y003810D01*
X038351Y003734D01*
X038428Y003810D01*
X038505Y003810D01*
X038582Y003734D01*
X038582Y003580D01*
X038505Y003504D01*
X038582Y003350D02*
X038428Y003197D01*
X038428Y003273D02*
X038428Y003043D01*
X038582Y003043D02*
X038121Y003043D01*
X038121Y003273D01*
X038198Y003350D01*
X038351Y003350D01*
X038428Y003273D01*
X038198Y003504D02*
X038121Y003580D01*
X038121Y003734D01*
X038198Y003810D01*
X038351Y003734D02*
X038351Y003657D01*
X037717Y002575D02*
X037794Y002498D01*
X037794Y002345D01*
X037717Y002268D01*
X037641Y002268D01*
X037564Y002345D01*
X037564Y002498D01*
X037641Y002575D01*
X037717Y002575D01*
X037564Y002498D02*
X037487Y002575D01*
X037410Y002575D01*
X037334Y002498D01*
X037334Y002345D01*
X037410Y002268D01*
X037487Y002268D01*
X037564Y002345D01*
X037564Y002115D02*
X037564Y001808D01*
X037334Y002038D01*
X037794Y002038D01*
X036812Y001874D02*
X036735Y001951D01*
X036582Y001951D01*
X036505Y001874D01*
X036352Y001874D02*
X036352Y001797D01*
X036275Y001721D01*
X036352Y001644D01*
X036352Y001567D01*
X036275Y001490D01*
X036121Y001490D01*
X036045Y001567D01*
X035891Y001490D02*
X035584Y001490D01*
X035584Y001951D01*
X035652Y002002D02*
X035192Y002002D01*
X035422Y001771D01*
X035422Y002078D01*
X034883Y002067D02*
X034883Y001913D01*
X034807Y001837D01*
X034653Y001837D02*
X034576Y001990D01*
X034576Y002067D01*
X034653Y002143D01*
X034807Y002143D01*
X034883Y002067D01*
X034653Y001837D02*
X034423Y001837D01*
X034423Y002143D01*
X033987Y002235D02*
X033987Y001928D01*
X033680Y002235D01*
X033603Y002235D01*
X033526Y002158D01*
X033526Y002004D01*
X033603Y001928D01*
X033603Y001774D02*
X033756Y001774D01*
X033833Y001697D01*
X033833Y001467D01*
X033987Y001467D02*
X033526Y001467D01*
X033526Y001697D01*
X033603Y001774D01*
X033833Y001621D02*
X033987Y001774D01*
X034423Y001606D02*
X034423Y001453D01*
X034500Y001376D01*
X034807Y001376D01*
X034883Y001453D01*
X034883Y001606D01*
X034807Y001683D01*
X034500Y001683D02*
X034423Y001606D01*
X035192Y001541D02*
X035192Y001388D01*
X035268Y001311D01*
X035575Y001311D01*
X035652Y001388D01*
X035652Y001541D01*
X035575Y001618D01*
X035268Y001618D02*
X035192Y001541D01*
X036045Y001874D02*
X036121Y001951D01*
X036275Y001951D01*
X036352Y001874D01*
X036275Y001721D02*
X036198Y001721D01*
X036505Y001490D02*
X036812Y001797D01*
X036812Y001874D01*
X037334Y001577D02*
X037334Y001424D01*
X037410Y001347D01*
X037717Y001347D01*
X037794Y001424D01*
X037794Y001577D01*
X037717Y001654D01*
X037410Y001654D02*
X037334Y001577D01*
X036812Y001490D02*
X036505Y001490D01*
X032673Y002366D02*
X032673Y002519D01*
X032596Y002596D01*
X032673Y002749D02*
X032366Y003056D01*
X032290Y003056D01*
X032213Y002979D01*
X032213Y002826D01*
X032290Y002749D01*
X032290Y002596D02*
X032213Y002519D01*
X032213Y002366D01*
X032290Y002289D01*
X032596Y002289D01*
X032673Y002366D01*
X032673Y002749D02*
X032673Y003056D01*
X031840Y002988D02*
X031840Y002834D01*
X031763Y002757D01*
X031763Y002604D02*
X031840Y002527D01*
X031840Y002374D01*
X031763Y002297D01*
X031457Y002297D01*
X031380Y002374D01*
X031380Y002527D01*
X031457Y002604D01*
X031457Y002757D02*
X031380Y002834D01*
X031380Y002988D01*
X031457Y003064D01*
X031533Y003064D01*
X031610Y002988D01*
X031687Y003064D01*
X031763Y003064D01*
X031840Y002988D01*
X031610Y002988D02*
X031610Y002911D01*
X031134Y002924D02*
X031134Y003077D01*
X031057Y003154D01*
X030750Y003154D01*
X031057Y002847D01*
X031134Y002924D01*
X031057Y002847D02*
X030750Y002847D01*
X030674Y002924D01*
X030674Y003077D01*
X030750Y003154D01*
X030750Y002693D02*
X030827Y002693D01*
X030904Y002617D01*
X030980Y002693D01*
X031057Y002693D01*
X031134Y002617D01*
X031134Y002463D01*
X031057Y002386D01*
X031134Y002233D02*
X031134Y001926D01*
X030674Y001926D01*
X030750Y002386D02*
X030674Y002463D01*
X030674Y002617D01*
X030750Y002693D01*
X030904Y002617D02*
X030904Y002540D01*
X027576Y003612D02*
X027576Y003765D01*
X027576Y003689D02*
X027116Y003689D01*
X027116Y003765D02*
X027116Y003612D01*
X027193Y003919D02*
X027500Y003919D01*
X027576Y003996D01*
X027576Y004149D01*
X027500Y004226D01*
X027576Y004379D02*
X027576Y004686D01*
X027576Y004533D02*
X027116Y004533D01*
X027270Y004379D01*
X027193Y004226D02*
X027116Y004149D01*
X027116Y003996D01*
X027193Y003919D01*
X025578Y004412D02*
X025501Y004335D01*
X025348Y004335D01*
X025271Y004412D01*
X025271Y004488D01*
X025348Y004565D01*
X025501Y004565D01*
X025578Y004488D01*
X025578Y004412D01*
X025501Y004565D02*
X025578Y004642D01*
X025578Y004719D01*
X025501Y004795D01*
X025348Y004795D01*
X025271Y004719D01*
X025271Y004642D01*
X025348Y004565D01*
X025117Y004488D02*
X025117Y004412D01*
X025041Y004335D01*
X024887Y004335D01*
X024810Y004412D01*
X024657Y004412D02*
X024580Y004335D01*
X024427Y004335D01*
X024350Y004412D01*
X024350Y004719D01*
X024427Y004795D01*
X024580Y004795D01*
X024657Y004719D01*
X024810Y004719D02*
X024887Y004795D01*
X025041Y004795D01*
X025117Y004719D01*
X025117Y004642D01*
X025041Y004565D01*
X025117Y004488D01*
X025041Y004565D02*
X024964Y004565D01*
X025303Y004879D02*
X025610Y004879D01*
X025687Y004956D01*
X025687Y005110D01*
X025610Y005186D01*
X025610Y005340D02*
X025687Y005417D01*
X025687Y005570D01*
X025610Y005647D01*
X025533Y005647D01*
X025456Y005570D01*
X025456Y005493D01*
X025456Y005570D02*
X025380Y005647D01*
X025303Y005647D01*
X025226Y005570D01*
X025226Y005417D01*
X025303Y005340D01*
X025303Y005186D02*
X025226Y005110D01*
X025226Y004956D01*
X025303Y004879D01*
X024281Y004874D02*
X023974Y004567D01*
X023974Y004490D01*
X023821Y004567D02*
X023744Y004490D01*
X023590Y004490D01*
X023514Y004567D01*
X023360Y004567D02*
X023283Y004490D01*
X023130Y004490D01*
X023053Y004567D01*
X023053Y004874D01*
X023130Y004950D01*
X023283Y004950D01*
X023360Y004874D01*
X023514Y004874D02*
X023590Y004950D01*
X023744Y004950D01*
X023821Y004874D01*
X023821Y004797D01*
X023744Y004720D01*
X023821Y004643D01*
X023821Y004567D01*
X023744Y004720D02*
X023667Y004720D01*
X023974Y004950D02*
X024281Y004950D01*
X024281Y004874D01*
X022835Y004689D02*
X022835Y004612D01*
X022759Y004535D01*
X022835Y004458D01*
X022835Y004382D01*
X022759Y004305D01*
X022605Y004305D01*
X022528Y004382D01*
X022375Y004382D02*
X022298Y004305D01*
X022145Y004305D01*
X022068Y004382D01*
X022068Y004689D01*
X022145Y004765D01*
X022298Y004765D01*
X022375Y004689D01*
X022528Y004689D02*
X022605Y004765D01*
X022759Y004765D01*
X022835Y004689D01*
X022759Y004535D02*
X022682Y004535D01*
X021915Y004305D02*
X021761Y004305D01*
X021838Y004305D02*
X021838Y004765D01*
X021761Y004765D02*
X021915Y004765D01*
X022782Y006295D02*
X023089Y006295D01*
X023242Y006371D02*
X023319Y006295D01*
X023473Y006295D01*
X023549Y006371D01*
X023549Y006448D01*
X023473Y006525D01*
X023319Y006525D01*
X023242Y006602D01*
X023242Y006678D01*
X023319Y006755D01*
X023473Y006755D01*
X023549Y006678D01*
X023549Y006602D01*
X023473Y006525D01*
X023319Y006525D02*
X023242Y006448D01*
X023242Y006371D01*
X022782Y006295D02*
X022782Y006755D01*
X025226Y006107D02*
X025303Y005954D01*
X025456Y005800D01*
X025456Y006030D01*
X025533Y006107D01*
X025610Y006107D01*
X025687Y006030D01*
X025687Y005877D01*
X025610Y005800D01*
X025456Y005800D01*
X025804Y007920D02*
X025804Y008380D01*
X026034Y008380D01*
X026111Y008304D01*
X026111Y008150D01*
X026034Y008073D01*
X025804Y008073D01*
X025957Y008073D02*
X026111Y007920D01*
X026264Y007920D02*
X026571Y007920D01*
X026418Y007920D02*
X026418Y008380D01*
X026264Y008227D01*
X026725Y008304D02*
X026801Y008380D01*
X026955Y008380D01*
X027032Y008304D01*
X027032Y008227D01*
X026955Y008150D01*
X027032Y008073D01*
X027032Y007997D01*
X026955Y007920D01*
X026801Y007920D01*
X026725Y007997D01*
X026878Y008150D02*
X026955Y008150D01*
X027615Y008816D02*
X027691Y008739D01*
X027998Y008739D01*
X028075Y008816D01*
X028075Y008969D01*
X027998Y009046D01*
X027998Y009199D02*
X028075Y009276D01*
X028075Y009429D01*
X027998Y009506D01*
X027922Y009506D01*
X027845Y009429D01*
X027845Y009199D01*
X027998Y009199D01*
X027845Y009199D02*
X027691Y009353D01*
X027615Y009506D01*
X027845Y009660D02*
X027845Y009967D01*
X028075Y009890D02*
X027615Y009890D01*
X027845Y009660D01*
X028655Y009746D02*
X028655Y009900D01*
X028731Y009977D01*
X028808Y009977D01*
X029115Y009670D01*
X029115Y009977D01*
X028731Y009670D02*
X028655Y009746D01*
X028655Y009516D02*
X028655Y009209D01*
X028885Y009209D01*
X028808Y009363D01*
X028808Y009439D01*
X028885Y009516D01*
X029038Y009516D01*
X029115Y009439D01*
X029115Y009286D01*
X029038Y009209D01*
X029038Y009056D02*
X029115Y008979D01*
X029115Y008826D01*
X029038Y008749D01*
X028731Y008749D01*
X028655Y008826D01*
X028655Y008979D01*
X028731Y009056D01*
X027691Y009046D02*
X027615Y008969D01*
X027615Y008816D01*
X026523Y009197D02*
X026523Y009273D01*
X026446Y009350D01*
X026216Y009350D01*
X026216Y009197D01*
X026293Y009120D01*
X026446Y009120D01*
X026523Y009197D01*
X026369Y009504D02*
X026216Y009350D01*
X026062Y009427D02*
X026062Y009504D01*
X025986Y009580D01*
X025832Y009580D01*
X025755Y009504D01*
X025602Y009504D02*
X025602Y009350D01*
X025525Y009273D01*
X025295Y009273D01*
X025295Y009120D02*
X025295Y009580D01*
X025525Y009580D01*
X025602Y009504D01*
X025448Y009273D02*
X025602Y009120D01*
X025755Y009120D02*
X026062Y009427D01*
X026062Y009120D02*
X025755Y009120D01*
X026369Y009504D02*
X026523Y009580D01*
X029115Y008155D02*
X029422Y008155D01*
X033526Y010916D02*
X033526Y011146D01*
X033603Y011223D01*
X033756Y011223D01*
X033833Y011146D01*
X033833Y010916D01*
X033833Y011069D02*
X033987Y011223D01*
X033987Y010916D02*
X033526Y010916D01*
X031700Y012360D02*
X031700Y012436D01*
X031470Y012436D02*
X031470Y012283D01*
X031547Y012206D01*
X030383Y012983D02*
X030383Y013136D01*
X030306Y013213D01*
X030306Y013366D02*
X030383Y013366D01*
X030306Y013366D02*
X029999Y013673D01*
X029922Y013673D01*
X029922Y013366D01*
X029999Y013213D02*
X029922Y013136D01*
X029922Y012983D01*
X029999Y012906D01*
X030306Y012906D01*
X030383Y012983D01*
X030383Y013827D02*
X030383Y014134D01*
X030383Y013980D02*
X029922Y013980D01*
X030076Y013827D01*
X030602Y014198D02*
X030678Y014121D01*
X030832Y014121D01*
X030909Y014198D01*
X031062Y014121D02*
X031369Y014121D01*
X031474Y014166D02*
X031550Y014089D01*
X031704Y014089D01*
X031781Y014166D01*
X031753Y014121D02*
X031829Y014198D01*
X031829Y014352D01*
X031753Y014428D01*
X031676Y014428D01*
X031523Y014352D01*
X031523Y014582D01*
X031829Y014582D01*
X031781Y014473D02*
X031704Y014550D01*
X031550Y014550D01*
X031474Y014473D01*
X031474Y014166D01*
X031523Y014198D02*
X031599Y014121D01*
X031753Y014121D01*
X031934Y014089D02*
X032241Y014089D01*
X032087Y014089D02*
X032087Y014550D01*
X031934Y014396D01*
X032394Y014320D02*
X032701Y014320D01*
X032625Y014550D02*
X032625Y014089D01*
X032394Y014320D02*
X032625Y014550D01*
X031216Y014582D02*
X031216Y014121D01*
X030602Y014198D02*
X030602Y014505D01*
X030678Y014582D01*
X030832Y014582D01*
X030909Y014505D01*
X031062Y014428D02*
X031216Y014582D01*
X030116Y014745D02*
X030116Y015052D01*
X030039Y015205D02*
X030116Y015282D01*
X030116Y015436D01*
X030039Y015512D01*
X029962Y015512D01*
X029886Y015436D01*
X029886Y015359D01*
X029886Y015436D02*
X029809Y015512D01*
X029732Y015512D01*
X029655Y015436D01*
X029655Y015282D01*
X029732Y015205D01*
X029507Y015160D02*
X029431Y015237D01*
X029507Y015160D02*
X029507Y015007D01*
X029431Y014930D01*
X029124Y014930D01*
X029047Y015007D01*
X029047Y015160D01*
X029124Y015237D01*
X029124Y015390D02*
X029047Y015467D01*
X029047Y015620D01*
X029124Y015697D01*
X029200Y015697D01*
X029507Y015390D01*
X029507Y015697D01*
X029431Y015851D02*
X029507Y015927D01*
X029507Y016081D01*
X029431Y016158D01*
X029354Y016158D01*
X029277Y016081D01*
X029277Y015851D01*
X029431Y015851D01*
X029277Y015851D02*
X029124Y016004D01*
X029047Y016158D01*
X029825Y016300D02*
X029825Y015993D01*
X029902Y015916D01*
X030055Y015916D01*
X030132Y015993D01*
X030286Y015993D02*
X030362Y015916D01*
X030516Y015916D01*
X030593Y015993D01*
X030593Y016147D01*
X030516Y016223D01*
X030439Y016223D01*
X030286Y016147D01*
X030286Y016377D01*
X030593Y016377D01*
X030536Y016482D02*
X030383Y016482D01*
X030306Y016559D01*
X030152Y016559D02*
X030076Y016482D01*
X029922Y016482D01*
X029845Y016559D01*
X029845Y016866D01*
X029922Y016943D01*
X030076Y016943D01*
X030152Y016866D01*
X030306Y016943D02*
X030306Y016713D01*
X030459Y016789D01*
X030536Y016789D01*
X030613Y016713D01*
X030613Y016559D01*
X030536Y016482D01*
X030766Y016559D02*
X030843Y016482D01*
X030996Y016482D01*
X031073Y016559D01*
X031073Y016866D01*
X030996Y016943D01*
X030843Y016943D01*
X030766Y016866D01*
X030766Y016789D01*
X030843Y016713D01*
X031073Y016713D01*
X030613Y016943D02*
X030306Y016943D01*
X030399Y017181D02*
X030322Y017258D01*
X030399Y017181D02*
X030552Y017181D01*
X030629Y017258D01*
X030629Y017412D01*
X030552Y017488D01*
X030475Y017488D01*
X030322Y017412D01*
X030322Y017642D01*
X030629Y017642D01*
X030782Y017642D02*
X031089Y017642D01*
X031089Y017565D01*
X030782Y017258D01*
X030782Y017181D01*
X030168Y017258D02*
X030092Y017181D01*
X029938Y017181D01*
X029862Y017258D01*
X029862Y017565D01*
X029938Y017642D01*
X030092Y017642D01*
X030168Y017565D01*
X030055Y016377D02*
X029902Y016377D01*
X029825Y016300D01*
X030055Y016377D02*
X030132Y016300D01*
X030746Y016300D02*
X030746Y016223D01*
X030823Y016147D01*
X030976Y016147D01*
X031053Y016070D01*
X031053Y015993D01*
X030976Y015916D01*
X030823Y015916D01*
X030746Y015993D01*
X030746Y016070D01*
X030823Y016147D01*
X030976Y016147D02*
X031053Y016223D01*
X031053Y016300D01*
X030976Y016377D01*
X030823Y016377D01*
X030746Y016300D01*
X030116Y014745D02*
X029655Y014745D01*
X034537Y016156D02*
X034614Y016079D01*
X034767Y016079D01*
X034844Y016156D01*
X034997Y016310D02*
X035304Y016310D01*
X035458Y016156D02*
X035458Y016463D01*
X035535Y016540D01*
X035688Y016540D01*
X035765Y016463D01*
X035458Y016156D01*
X035535Y016079D01*
X035688Y016079D01*
X035765Y016156D01*
X035765Y016463D01*
X035228Y016540D02*
X034997Y016310D01*
X034844Y016463D02*
X034767Y016540D01*
X034614Y016540D01*
X034537Y016463D01*
X034537Y016156D01*
X035228Y016079D02*
X035228Y016540D01*
X035678Y015529D02*
X035908Y015529D01*
X035985Y015452D01*
X035985Y015299D01*
X035908Y015222D01*
X035678Y015222D01*
X035753Y015143D02*
X035753Y014989D01*
X035830Y014912D01*
X035830Y014759D02*
X035907Y014759D01*
X035983Y014682D01*
X036060Y014759D01*
X036137Y014759D01*
X036214Y014682D01*
X036214Y014529D01*
X036137Y014452D01*
X036137Y014299D02*
X036214Y014222D01*
X036214Y014068D01*
X036137Y013992D01*
X035830Y013992D01*
X035753Y014068D01*
X035753Y014222D01*
X035830Y014299D01*
X035830Y014452D02*
X035753Y014529D01*
X035753Y014682D01*
X035830Y014759D01*
X035983Y014682D02*
X035983Y014605D01*
X036540Y014655D02*
X036617Y014732D01*
X036694Y014732D01*
X036770Y014655D01*
X036847Y014732D01*
X036924Y014732D01*
X037000Y014655D01*
X037000Y014502D01*
X036924Y014425D01*
X036924Y014272D02*
X037000Y014195D01*
X037000Y014041D01*
X036924Y013965D01*
X036617Y013965D01*
X036540Y014041D01*
X036540Y014195D01*
X036617Y014272D01*
X036617Y014425D02*
X036540Y014502D01*
X036540Y014655D01*
X036770Y014655D02*
X036770Y014579D01*
X036770Y014885D02*
X036770Y015192D01*
X036829Y015069D02*
X036676Y015069D01*
X036599Y015145D01*
X036906Y015452D01*
X036906Y015145D01*
X036829Y015069D01*
X037000Y015116D02*
X036540Y015116D01*
X036770Y014885D01*
X036599Y015145D02*
X036599Y015452D01*
X036676Y015529D01*
X036829Y015529D01*
X036906Y015452D01*
X036292Y015529D02*
X036292Y015069D01*
X036445Y015069D02*
X036138Y015069D01*
X035985Y015069D02*
X035831Y015222D01*
X035830Y015219D02*
X035753Y015143D01*
X035678Y015069D02*
X035678Y015529D01*
X035830Y015219D02*
X035907Y015219D01*
X036214Y014912D01*
X036214Y015219D01*
X036138Y015375D02*
X036292Y015529D01*
X039360Y015736D02*
X039437Y015660D01*
X039591Y015660D01*
X039667Y015736D01*
X039821Y015736D02*
X039898Y015660D01*
X040051Y015660D01*
X040128Y015736D01*
X040128Y015813D01*
X040051Y015890D01*
X039821Y015890D01*
X039821Y015736D01*
X039821Y015890D02*
X039974Y016043D01*
X040128Y016120D01*
X040281Y015967D02*
X040435Y016120D01*
X040435Y015660D01*
X040588Y015660D02*
X040281Y015660D01*
X039667Y016043D02*
X039591Y016120D01*
X039437Y016120D01*
X039360Y016043D01*
X039360Y015736D01*
X039400Y016890D02*
X039706Y016890D01*
X039860Y017121D02*
X040167Y017121D01*
X040090Y017351D02*
X040090Y016890D01*
X039860Y017121D02*
X040090Y017351D01*
X039400Y017351D02*
X039400Y016890D01*
X038649Y017582D02*
X038343Y017582D01*
X038649Y017889D01*
X038649Y017965D01*
X038573Y018042D01*
X038419Y018042D01*
X038343Y017965D01*
X038189Y018042D02*
X038036Y017965D01*
X037882Y017812D01*
X038112Y017812D01*
X038189Y017735D01*
X038189Y017658D01*
X038112Y017582D01*
X037959Y017582D01*
X037882Y017658D01*
X037882Y017812D01*
X037729Y017965D02*
X037652Y018042D01*
X037498Y018042D01*
X037422Y017965D01*
X037422Y017658D01*
X037498Y017582D01*
X037652Y017582D01*
X037729Y017658D01*
X037631Y018416D02*
X037707Y018493D01*
X037631Y018416D02*
X037477Y018416D01*
X037400Y018493D01*
X037400Y018800D01*
X037477Y018877D01*
X037631Y018877D01*
X037707Y018800D01*
X037861Y018646D02*
X038091Y018646D01*
X038168Y018570D01*
X038168Y018493D01*
X038091Y018416D01*
X037938Y018416D01*
X037861Y018493D01*
X037861Y018646D01*
X038014Y018800D01*
X038168Y018877D01*
X038321Y018800D02*
X038398Y018877D01*
X038551Y018877D01*
X038628Y018800D01*
X038628Y018723D01*
X038551Y018646D01*
X038628Y018570D01*
X038628Y018493D01*
X038551Y018416D01*
X038398Y018416D01*
X038321Y018493D01*
X038475Y018646D02*
X038551Y018646D01*
X037317Y019132D02*
X036857Y019132D01*
X036857Y019362D01*
X036934Y019439D01*
X037087Y019439D01*
X037164Y019362D01*
X037164Y019132D01*
X037164Y019286D02*
X037317Y019439D01*
X037241Y019593D02*
X037164Y019593D01*
X037087Y019669D01*
X037087Y019823D01*
X037164Y019900D01*
X037241Y019900D01*
X037317Y019823D01*
X037317Y019669D01*
X037241Y019593D01*
X037087Y019669D02*
X037011Y019593D01*
X036934Y019593D01*
X036857Y019669D01*
X036857Y019823D01*
X036934Y019900D01*
X037011Y019900D01*
X037087Y019823D01*
X036627Y019616D02*
X036550Y019616D01*
X036243Y019923D01*
X036166Y019923D01*
X036166Y019616D01*
X036243Y019463D02*
X036397Y019463D01*
X036473Y019386D01*
X036473Y019156D01*
X036473Y019309D02*
X036627Y019463D01*
X036243Y019463D02*
X036166Y019386D01*
X036166Y019156D01*
X036627Y019156D01*
X035898Y019125D02*
X035437Y019125D01*
X035437Y019355D01*
X035514Y019432D01*
X035667Y019432D01*
X035744Y019355D01*
X035744Y019125D01*
X035744Y019278D02*
X035898Y019432D01*
X035821Y019585D02*
X035898Y019662D01*
X035898Y019815D01*
X035821Y019892D01*
X035667Y019892D01*
X035591Y019815D01*
X035591Y019739D01*
X035667Y019585D01*
X035437Y019585D01*
X035437Y019892D01*
X035282Y019823D02*
X035205Y019900D01*
X035128Y019900D01*
X035052Y019823D01*
X035052Y019593D01*
X035205Y019593D01*
X035282Y019670D01*
X035282Y019823D01*
X035282Y020053D02*
X035205Y020053D01*
X034898Y020360D01*
X034821Y020360D01*
X034821Y020053D01*
X034821Y019900D02*
X034898Y019747D01*
X035052Y019593D01*
X035205Y019440D02*
X035282Y019363D01*
X035282Y019209D01*
X035205Y019133D01*
X034898Y019133D01*
X034821Y019209D01*
X034821Y019363D01*
X034898Y019440D01*
X034648Y019308D02*
X034648Y019155D01*
X034571Y019078D01*
X034264Y019078D01*
X034188Y019155D01*
X034188Y019308D01*
X034264Y019385D01*
X034418Y019538D02*
X034418Y019768D01*
X034495Y019845D01*
X034571Y019845D01*
X034648Y019768D01*
X034648Y019615D01*
X034571Y019538D01*
X034418Y019538D01*
X034264Y019692D01*
X034188Y019845D01*
X034418Y019999D02*
X034418Y020229D01*
X034495Y020305D01*
X034571Y020305D01*
X034648Y020229D01*
X034648Y020075D01*
X034571Y019999D01*
X034418Y019999D01*
X034264Y020152D01*
X034188Y020305D01*
X034571Y019385D02*
X034648Y019308D01*
X033379Y018966D02*
X033379Y018813D01*
X033302Y018736D01*
X033149Y018736D02*
X033072Y018889D01*
X033072Y018966D01*
X033149Y019043D01*
X033302Y019043D01*
X033379Y018966D01*
X033149Y018736D02*
X032918Y018736D01*
X032918Y019043D01*
X033149Y018583D02*
X033149Y018276D01*
X032918Y018506D01*
X033379Y018506D01*
X033477Y018505D02*
X033553Y018581D01*
X033630Y018581D01*
X033707Y018505D01*
X033784Y018581D01*
X033860Y018581D01*
X033937Y018505D01*
X033937Y018351D01*
X033860Y018274D01*
X033937Y018121D02*
X033784Y017968D01*
X033784Y018044D02*
X033784Y017814D01*
X033937Y017814D02*
X033477Y017814D01*
X033477Y018044D01*
X033553Y018121D01*
X033707Y018121D01*
X033784Y018044D01*
X033553Y018274D02*
X033477Y018351D01*
X033477Y018505D01*
X033707Y018505D02*
X033707Y018428D01*
X033379Y018045D02*
X033302Y018122D01*
X033379Y018045D02*
X033379Y017892D01*
X033302Y017815D01*
X032995Y017815D01*
X032918Y017892D01*
X032918Y018045D01*
X032995Y018122D01*
X038121Y013643D02*
X038198Y013720D01*
X038505Y013720D01*
X038582Y013643D01*
X038582Y013489D01*
X038505Y013413D01*
X038351Y013489D02*
X038351Y013720D01*
X038351Y013489D02*
X038275Y013413D01*
X038198Y013413D01*
X038121Y013489D01*
X038121Y013643D01*
X038198Y013259D02*
X038351Y013259D01*
X038428Y013183D01*
X038428Y012952D01*
X038582Y012952D02*
X038121Y012952D01*
X038121Y013183D01*
X038198Y013259D01*
X038428Y013106D02*
X038582Y013259D01*
X037737Y011979D02*
X037814Y011902D01*
X037814Y011749D01*
X037737Y011672D01*
X037430Y011979D01*
X037737Y011979D01*
X037430Y011979D02*
X037354Y011902D01*
X037354Y011749D01*
X037430Y011672D01*
X037737Y011672D01*
X037737Y011518D02*
X037661Y011518D01*
X037584Y011442D01*
X037584Y011212D01*
X037737Y011212D01*
X037814Y011288D01*
X037814Y011442D01*
X037737Y011518D01*
X037584Y011212D02*
X037430Y011365D01*
X037354Y011518D01*
X037430Y011058D02*
X037354Y010981D01*
X037354Y010828D01*
X037430Y010751D01*
X037737Y010751D01*
X037814Y010828D01*
X037814Y010981D01*
X037737Y011058D01*
X037652Y008593D02*
X037498Y008593D01*
X037422Y008517D01*
X037422Y008210D01*
X037498Y008133D01*
X037652Y008133D01*
X037729Y008210D01*
X037882Y008210D02*
X037959Y008133D01*
X038112Y008133D01*
X038189Y008210D01*
X038189Y008363D01*
X038112Y008440D01*
X038036Y008440D01*
X037882Y008363D01*
X037882Y008593D01*
X038189Y008593D01*
X038343Y008517D02*
X038419Y008593D01*
X038573Y008593D01*
X038649Y008517D01*
X038343Y008210D01*
X038419Y008133D01*
X038573Y008133D01*
X038649Y008210D01*
X038649Y008517D01*
X038343Y008517D02*
X038343Y008210D01*
X037729Y008517D02*
X037652Y008593D01*
X037183Y007769D02*
X036877Y007769D01*
X036800Y007693D01*
X036800Y007539D01*
X036877Y007462D01*
X036953Y007462D01*
X037030Y007539D01*
X037030Y007769D01*
X037183Y007769D02*
X037260Y007693D01*
X037260Y007539D01*
X037183Y007462D01*
X037183Y007309D02*
X037260Y007232D01*
X037260Y007079D01*
X037183Y007002D01*
X036877Y007002D01*
X036800Y007079D01*
X036800Y007232D01*
X036877Y007309D01*
X039380Y007412D02*
X039686Y007412D01*
X039840Y007412D02*
X040147Y007719D01*
X040147Y007795D01*
X040070Y007872D01*
X039917Y007872D01*
X039840Y007795D01*
X039840Y007412D02*
X040147Y007412D01*
X040300Y007412D02*
X040300Y007488D01*
X040607Y007795D01*
X040607Y007872D01*
X040300Y007872D01*
X039380Y007872D02*
X039380Y007412D01*
X039488Y006745D02*
X039412Y006668D01*
X039412Y006361D01*
X039488Y006285D01*
X039642Y006285D01*
X039718Y006361D01*
X039872Y006515D02*
X040179Y006515D01*
X040332Y006592D02*
X040409Y006515D01*
X040639Y006515D01*
X040639Y006668D02*
X040639Y006361D01*
X040563Y006285D01*
X040409Y006285D01*
X040332Y006361D01*
X040332Y006592D02*
X040332Y006668D01*
X040409Y006745D01*
X040563Y006745D01*
X040639Y006668D01*
X040102Y006745D02*
X039872Y006515D01*
X039718Y006668D02*
X039642Y006745D01*
X039488Y006745D01*
X040102Y006745D02*
X040102Y006285D01*
X027179Y001559D02*
X027179Y001405D01*
X027103Y001328D01*
X026949Y001328D02*
X026872Y001482D01*
X026872Y001559D01*
X026949Y001635D01*
X027103Y001635D01*
X027179Y001559D01*
X026949Y001328D02*
X026719Y001328D01*
X026719Y001635D01*
X026258Y001632D02*
X025797Y001632D01*
X026027Y001402D01*
X026027Y001709D01*
X025951Y001248D02*
X025874Y001248D01*
X025797Y001172D01*
X025797Y001018D01*
X025874Y000941D01*
X025874Y000788D02*
X025797Y000711D01*
X025797Y000558D01*
X025874Y000481D01*
X026181Y000481D01*
X026258Y000558D01*
X026258Y000711D01*
X026181Y000788D01*
X026258Y000941D02*
X025951Y001248D01*
X026258Y001248D02*
X026258Y000941D01*
X026719Y000945D02*
X026719Y001098D01*
X026796Y001175D01*
X026872Y001175D01*
X027179Y000868D01*
X027179Y001175D01*
X026796Y000868D02*
X026719Y000945D01*
X026796Y000714D02*
X026719Y000638D01*
X026719Y000484D01*
X026796Y000408D01*
X027103Y000408D01*
X027179Y000484D01*
X027179Y000638D01*
X027103Y000714D01*
X025133Y002140D02*
X024826Y002140D01*
X024979Y002140D02*
X024979Y002600D01*
X024826Y002447D01*
X024672Y002140D02*
X024365Y002140D01*
X024212Y002140D02*
X024058Y002293D01*
X024135Y002293D02*
X023905Y002293D01*
X023905Y002140D02*
X023905Y002600D01*
X024135Y002600D01*
X024212Y002524D01*
X024212Y002370D01*
X024135Y002293D01*
X024365Y002447D02*
X024519Y002600D01*
X024519Y002140D01*
X017605Y003580D02*
X017298Y003580D01*
X017529Y003810D01*
X017529Y003350D01*
X017145Y003426D02*
X017068Y003350D01*
X016915Y003350D01*
X016838Y003426D01*
X016838Y003733D01*
X016915Y003810D01*
X017068Y003810D01*
X017145Y003733D01*
X016685Y003810D02*
X016531Y003810D01*
X016608Y003810D02*
X016608Y003350D01*
X016531Y003350D02*
X016685Y003350D01*
X008202Y006222D02*
X008125Y006145D01*
X007972Y006145D01*
X007895Y006222D01*
X007895Y006375D02*
X008048Y006452D01*
X008125Y006452D01*
X008202Y006375D01*
X008202Y006222D01*
X007895Y006375D02*
X007895Y006605D01*
X008202Y006605D01*
X007742Y006145D02*
X007435Y006145D01*
X007435Y006605D01*
X005480Y006742D02*
X005403Y006665D01*
X005480Y006742D02*
X005480Y006895D01*
X005403Y006972D01*
X005327Y006972D01*
X005250Y006895D01*
X005250Y006742D01*
X005173Y006665D01*
X005096Y006665D01*
X005020Y006742D01*
X005020Y006895D01*
X005096Y006972D01*
X005173Y007125D02*
X005020Y007279D01*
X005480Y007279D01*
X005480Y007432D02*
X005480Y007125D01*
X005250Y006511D02*
X005327Y006435D01*
X005327Y006204D01*
X005480Y006204D02*
X005020Y006204D01*
X005020Y006435D01*
X005096Y006511D01*
X005250Y006511D01*
X005173Y004156D02*
X005096Y004156D01*
X005020Y004079D01*
X005020Y003926D01*
X005096Y003849D01*
X005096Y003696D02*
X005020Y003619D01*
X005020Y003466D01*
X005096Y003389D01*
X005403Y003389D01*
X005480Y003466D01*
X005480Y003619D01*
X005403Y003696D01*
X005480Y003849D02*
X005173Y004156D01*
X005480Y004156D02*
X005480Y003849D01*
X005500Y008895D02*
X005347Y008895D01*
X005270Y008972D01*
X005270Y009279D01*
X005347Y009355D01*
X005500Y009355D01*
X005577Y009279D01*
X005730Y009202D02*
X005884Y009355D01*
X005884Y008895D01*
X006037Y008895D02*
X005730Y008895D01*
X005577Y008972D02*
X005500Y008895D01*
X006191Y008972D02*
X006268Y008895D01*
X006421Y008895D01*
X006498Y008972D01*
X006498Y009279D01*
X006421Y009355D01*
X006268Y009355D01*
X006191Y009279D01*
X006191Y009202D01*
X006268Y009125D01*
X006498Y009125D01*
X006421Y009645D02*
X006268Y009645D01*
X006191Y009722D01*
X006498Y010029D01*
X006498Y009722D01*
X006421Y009645D01*
X006191Y009722D02*
X006191Y010029D01*
X006268Y010105D01*
X006421Y010105D01*
X006498Y010029D01*
X006037Y010029D02*
X005961Y010105D01*
X005807Y010105D01*
X005730Y010029D01*
X005577Y010029D02*
X005500Y010105D01*
X005347Y010105D01*
X005270Y010029D01*
X005270Y009722D01*
X005347Y009645D01*
X005500Y009645D01*
X005577Y009722D01*
X005730Y009645D02*
X006037Y009952D01*
X006037Y010029D01*
X006037Y009645D02*
X005730Y009645D01*
X005640Y015170D02*
X005486Y015170D01*
X005410Y015247D01*
X005256Y015170D02*
X004949Y015170D01*
X005256Y015477D01*
X005256Y015554D01*
X005179Y015630D01*
X005026Y015630D01*
X004949Y015554D01*
X004796Y015554D02*
X004796Y015400D01*
X004719Y015323D01*
X004489Y015323D01*
X004489Y015170D02*
X004489Y015630D01*
X004719Y015630D01*
X004796Y015554D01*
X004642Y015323D02*
X004796Y015170D01*
X005410Y015554D02*
X005486Y015630D01*
X005640Y015630D01*
X005717Y015554D01*
X005717Y015477D01*
X005640Y015400D01*
X005717Y015323D01*
X005717Y015247D01*
X005640Y015170D01*
X005640Y015400D02*
X005563Y015400D01*
X006514Y016020D02*
X006514Y016480D01*
X006744Y016480D01*
X006821Y016404D01*
X006821Y016250D01*
X006744Y016173D01*
X006514Y016173D01*
X006667Y016173D02*
X006821Y016020D01*
X006974Y016020D02*
X007281Y016327D01*
X007281Y016404D01*
X007204Y016480D01*
X007051Y016480D01*
X006974Y016404D01*
X006974Y016020D02*
X007281Y016020D01*
X007435Y016097D02*
X007511Y016020D01*
X007665Y016020D01*
X007742Y016097D01*
X007742Y016250D01*
X007665Y016327D01*
X007588Y016327D01*
X007435Y016250D01*
X007435Y016480D01*
X007742Y016480D01*
X006480Y017253D02*
X006020Y017253D01*
X006020Y017406D02*
X006020Y017099D01*
X006173Y017560D02*
X006020Y017713D01*
X006480Y017713D01*
X006480Y017560D02*
X006480Y017867D01*
X004523Y017995D02*
X004216Y017995D01*
X004523Y018302D01*
X004523Y018379D01*
X004446Y018455D01*
X004293Y018455D01*
X004216Y018379D01*
X004062Y018379D02*
X003986Y018455D01*
X003832Y018455D01*
X003755Y018379D01*
X003602Y018379D02*
X003602Y018225D01*
X003525Y018148D01*
X003295Y018148D01*
X003295Y017995D02*
X003295Y018455D01*
X003525Y018455D01*
X003602Y018379D01*
X003448Y018148D02*
X003602Y017995D01*
X003755Y017995D02*
X004062Y018302D01*
X004062Y018379D01*
X004062Y017995D02*
X003755Y017995D01*
X009895Y017165D02*
X010125Y016935D01*
X010125Y017242D01*
X010355Y017165D02*
X009895Y017165D01*
X009971Y016781D02*
X010125Y016781D01*
X010202Y016704D01*
X010202Y016474D01*
X010355Y016474D02*
X009895Y016474D01*
X009895Y016704D01*
X009971Y016781D01*
X010202Y016628D02*
X010355Y016781D01*
X010476Y016205D02*
X010399Y016129D01*
X010355Y016167D02*
X009895Y016167D01*
X009939Y016205D02*
X009939Y015745D01*
X009939Y015898D02*
X010169Y015898D01*
X010246Y015975D01*
X010246Y016129D01*
X010169Y016205D01*
X009939Y016205D01*
X009895Y016321D02*
X009895Y016014D01*
X010092Y015898D02*
X010246Y015745D01*
X010399Y015745D02*
X010706Y016052D01*
X010706Y016129D01*
X010629Y016205D01*
X010476Y016205D01*
X010860Y015975D02*
X011167Y015975D01*
X011090Y015745D02*
X011090Y016205D01*
X010860Y015975D01*
X010706Y015745D02*
X010399Y015745D01*
D12*
X033297Y015803D02*
X033297Y014031D01*
X033494Y013835D01*
X035266Y013835D01*
X035266Y015803D01*
X033297Y015803D01*
X042480Y016619D02*
X042480Y013588D01*
X042480Y013273D02*
X043050Y013273D01*
X043050Y014316D01*
X043897Y014316D01*
X044192Y014021D01*
X045688Y014021D01*
X045688Y014356D01*
X046151Y014356D01*
X046151Y015852D01*
X045688Y015852D01*
X045688Y016186D01*
X044192Y016186D01*
X043897Y015891D01*
X043050Y015891D01*
X043050Y016934D01*
X042480Y016934D01*
X042559Y007343D02*
X043130Y007343D01*
X043130Y006299D01*
X043976Y006299D01*
X044272Y006594D01*
X045768Y006594D01*
X045768Y006260D01*
X046230Y006260D01*
X046230Y004764D01*
X045768Y004764D01*
X045768Y004429D01*
X044272Y004429D01*
X043976Y004724D01*
X043130Y004724D01*
X043130Y003681D01*
X042559Y003681D01*
X042559Y003996D02*
X042559Y007028D01*
X035266Y006354D02*
X035266Y004386D01*
X033494Y004386D01*
X033297Y004583D01*
X033297Y006354D01*
X035266Y006354D01*
D13*
X033593Y004051D03*
X033593Y013500D03*
D14*
X028937Y013632D02*
X028937Y014124D01*
X028917Y013494D02*
X027776Y013494D01*
X027776Y013278D01*
X028917Y013278D01*
X028917Y013494D01*
X018465Y006747D02*
X018465Y006708D01*
X018465Y006708D01*
X018465Y006707D02*
X018457Y006709D01*
X018451Y006713D01*
X018447Y006719D01*
X018445Y006727D01*
X018447Y006735D01*
X018451Y006741D01*
X018457Y006745D01*
X018465Y006747D01*
X018465Y006747D01*
X018473Y006745D01*
X018479Y006741D01*
X018483Y006735D01*
X018485Y006727D01*
X018483Y006719D01*
X018479Y006713D01*
X018473Y006709D01*
X018465Y006707D01*
X019138Y004875D02*
X015112Y004875D01*
X015112Y004405D01*
X015112Y004405D01*
X015112Y004875D01*
X015112Y004875D01*
X015112Y004875D01*
X019138Y004875D01*
X019138Y004875D01*
X019138Y004405D01*
X019138Y004875D01*
X019138Y004875D01*
X019138Y004405D02*
X019138Y004405D01*
X022276Y004106D02*
X022276Y002964D01*
X022434Y002964D01*
X022434Y004106D01*
X022276Y004106D01*
X022572Y002905D02*
X023123Y002905D01*
X027776Y004222D02*
X027776Y004439D01*
X028917Y004439D01*
X028917Y004222D01*
X027776Y004222D01*
X028937Y004577D02*
X028937Y005069D01*
X007875Y004883D02*
X007875Y005867D01*
X004891Y007643D02*
X004891Y008243D01*
D15*
X016125Y015424D03*
X017125Y015424D03*
X019125Y015424D03*
X020125Y015424D03*
M02*
