G75*
G70*
%OFA0B0*%
%FSLAX24Y24*%
%IPPOS*%
%LPD*%
%AMOC8*
5,1,8,0,0,1.08239X$1,22.5*
%
%ADD10R,0.0394X0.0433*%
%ADD11R,0.0591X0.0512*%
%ADD12R,0.0512X0.0591*%
%ADD13R,0.0433X0.0394*%
%ADD14R,0.2000X0.0900*%
%ADD15C,0.0157*%
%ADD16C,0.0276*%
%ADD17C,0.0118*%
%ADD18R,0.0236X0.0492*%
%ADD19R,0.0551X0.0236*%
%ADD20R,0.0256X0.0600*%
%ADD21R,0.1220X0.1024*%
%ADD22R,0.0420X0.0900*%
%ADD23R,0.4200X0.3500*%
%ADD24R,0.1063X0.0630*%
%ADD25R,0.0354X0.1102*%
%ADD26R,0.0315X0.0315*%
%ADD27R,0.0551X0.0394*%
D10*
X016450Y007931D03*
X016450Y008600D03*
X023986Y005939D03*
X024874Y005940D03*
X024874Y005271D03*
X023986Y005270D03*
X026048Y003097D03*
X026856Y003101D03*
X026856Y002432D03*
X026048Y002428D03*
X031589Y003693D03*
X032333Y003693D03*
X032333Y004362D03*
X031589Y004362D03*
X031553Y005370D03*
X032293Y005370D03*
X032293Y006039D03*
X031553Y006039D03*
X033207Y007323D03*
X034498Y007319D03*
X034498Y007988D03*
X034498Y008559D03*
X035128Y008559D03*
X035778Y007988D03*
X036427Y007988D03*
X037549Y007594D03*
X038339Y007522D03*
X039008Y007522D03*
X037549Y006925D03*
X036427Y007319D03*
X035778Y007319D03*
X033207Y007992D03*
X034498Y009228D03*
X035128Y009228D03*
X029460Y010750D03*
X028790Y010750D03*
X028270Y010750D03*
X027600Y010750D03*
X027085Y010750D03*
X026415Y010750D03*
X027295Y010085D03*
X027295Y009415D03*
X028335Y009425D03*
X028335Y010095D03*
X027150Y008750D03*
X026480Y008750D03*
X025960Y008750D03*
X025290Y008750D03*
X031679Y013142D03*
X032333Y013142D03*
X032333Y013811D03*
X031679Y013811D03*
X031663Y014819D03*
X032293Y014819D03*
X032293Y015488D03*
X031663Y015488D03*
X033207Y016772D03*
X034498Y016768D03*
X034498Y017437D03*
X034498Y018008D03*
X035128Y018008D03*
X035128Y018677D03*
X034498Y018677D03*
X035778Y017437D03*
X036427Y017437D03*
X037549Y017043D03*
X038359Y017001D03*
X039028Y017001D03*
X037549Y016374D03*
X036427Y016768D03*
X035778Y016768D03*
X033207Y017441D03*
X036053Y013709D03*
X036773Y013709D03*
X037558Y013190D03*
X036773Y013039D03*
X036053Y013039D03*
X035415Y012642D03*
X034748Y012811D03*
X034748Y012142D03*
X035415Y011972D03*
X036045Y011938D03*
X036714Y011938D03*
X037558Y012520D03*
X036703Y004260D03*
X036053Y004260D03*
X036053Y003591D03*
X036703Y003591D03*
X037538Y003786D03*
X037538Y003117D03*
X036714Y002489D03*
X036045Y002489D03*
X035415Y002524D03*
X034748Y002693D03*
X035415Y003193D03*
X034748Y003362D03*
X005835Y016000D03*
X005165Y016000D03*
X003960Y017625D03*
X003290Y017625D03*
D11*
X002750Y002165D03*
X003625Y002165D03*
X003625Y002835D03*
X002750Y002835D03*
X003625Y003876D03*
X004500Y003876D03*
X004500Y004624D03*
X003625Y004624D03*
X013875Y004585D03*
X013875Y003915D03*
X013875Y005540D03*
X013875Y006210D03*
X014375Y008001D03*
X015500Y008001D03*
X015500Y008749D03*
X014375Y008749D03*
X017510Y008257D03*
X018385Y008007D03*
X017510Y007509D03*
X018385Y007259D03*
X027165Y013012D03*
X027165Y013760D03*
X029528Y013760D03*
X029528Y013012D03*
X028502Y015236D03*
X028502Y015984D03*
D12*
X030540Y009375D03*
X031210Y009375D03*
X029904Y007149D03*
X029156Y007149D03*
X024770Y003095D03*
X024100Y003095D03*
X011999Y009750D03*
X011251Y009750D03*
X004374Y009875D03*
X003626Y009875D03*
X003626Y009000D03*
X004374Y009000D03*
X010665Y016625D03*
X011335Y016625D03*
X007999Y017000D03*
X007251Y017000D03*
D13*
X016125Y014460D03*
X017125Y014460D03*
X017125Y013790D03*
X016125Y013790D03*
X019125Y013665D03*
X019125Y014335D03*
X020125Y014460D03*
X020125Y013790D03*
X030685Y014947D03*
X030685Y015616D03*
X031667Y016138D03*
X032337Y016138D03*
X032333Y016736D03*
X031663Y016736D03*
X031653Y017414D03*
X032322Y017414D03*
X033848Y017437D03*
X035128Y017437D03*
X035778Y018008D03*
X036427Y018008D03*
X037096Y018008D03*
X037096Y018677D03*
X036427Y018677D03*
X035778Y018677D03*
X039102Y018643D03*
X039772Y018643D03*
X039776Y017846D03*
X039106Y017846D03*
X039026Y016197D03*
X038356Y016197D03*
X037530Y015843D03*
X037530Y015173D03*
X038356Y015154D03*
X039026Y015154D03*
X037543Y014389D03*
X037543Y013720D03*
X033756Y012782D03*
X033756Y012113D03*
X030845Y013149D03*
X030845Y013818D03*
X035984Y016020D03*
X036653Y016020D03*
X035128Y016768D03*
X033848Y016768D03*
X035778Y009228D03*
X036427Y009228D03*
X037096Y009228D03*
X037096Y008559D03*
X036427Y008559D03*
X035778Y008559D03*
X035128Y007988D03*
X033848Y007988D03*
X033848Y007319D03*
X035128Y007319D03*
X035994Y006571D03*
X036663Y006571D03*
X037530Y006394D03*
X038356Y006748D03*
X039026Y006748D03*
X039026Y005705D03*
X038356Y005705D03*
X037530Y005724D03*
X037543Y004941D03*
X037543Y004271D03*
X033756Y003334D03*
X033756Y002664D03*
X030845Y003700D03*
X030845Y004370D03*
X030685Y005498D03*
X030685Y006168D03*
X031667Y006689D03*
X032337Y006689D03*
X032333Y007287D03*
X031663Y007287D03*
X031653Y007965D03*
X032322Y007965D03*
X027698Y006904D03*
X027029Y006904D03*
X027032Y006104D03*
X027701Y006104D03*
X023156Y005943D03*
X023156Y005274D03*
X023995Y003940D03*
X024665Y003940D03*
X039106Y008398D03*
X039776Y008398D03*
X039772Y009194D03*
X039102Y009194D03*
D14*
X041510Y007252D03*
X041510Y005512D03*
X041510Y003772D03*
X041430Y013364D03*
X041430Y015104D03*
X041430Y016844D03*
D15*
X034793Y015016D03*
X034478Y015331D03*
X034085Y015331D03*
X033770Y015016D03*
X033770Y014622D03*
X034085Y014307D03*
X034478Y014307D03*
X034793Y014622D03*
X034478Y005882D03*
X034085Y005882D03*
X033770Y005567D03*
X033770Y005173D03*
X034085Y004858D03*
X034478Y004858D03*
X034793Y005173D03*
X034793Y005567D03*
D16*
X034478Y005567D03*
X034085Y005567D03*
X034085Y005173D03*
X034478Y005173D03*
X034478Y014622D03*
X034085Y014622D03*
X034085Y015016D03*
X034478Y015016D03*
D17*
X035128Y015114D02*
X035364Y015114D01*
X035364Y014917D02*
X035128Y014917D01*
X035128Y014720D02*
X035364Y014720D01*
X035364Y014524D02*
X035128Y014524D01*
X035128Y014327D02*
X035364Y014327D01*
X035364Y014130D02*
X035128Y014130D01*
X034970Y013972D02*
X034970Y013736D01*
X034774Y013736D02*
X034774Y013972D01*
X034577Y013972D02*
X034577Y013736D01*
X034380Y013736D02*
X034380Y013972D01*
X034183Y013972D02*
X034183Y013736D01*
X033986Y013736D02*
X033986Y013972D01*
X033789Y013972D02*
X033789Y013736D01*
X033593Y013736D02*
X033593Y013972D01*
X033435Y014130D02*
X033199Y014130D01*
X033199Y014327D02*
X033435Y014327D01*
X033435Y014524D02*
X033199Y014524D01*
X033199Y014720D02*
X033435Y014720D01*
X033435Y014917D02*
X033199Y014917D01*
X033199Y015114D02*
X033435Y015114D01*
X033435Y015311D02*
X033199Y015311D01*
X033199Y015508D02*
X033435Y015508D01*
X033593Y015665D02*
X033593Y015901D01*
X033789Y015901D02*
X033789Y015665D01*
X033986Y015665D02*
X033986Y015901D01*
X034183Y015901D02*
X034183Y015665D01*
X034380Y015665D02*
X034380Y015901D01*
X034577Y015901D02*
X034577Y015665D01*
X034774Y015665D02*
X034774Y015901D01*
X034970Y015901D02*
X034970Y015665D01*
X035128Y015508D02*
X035364Y015508D01*
X035364Y015311D02*
X035128Y015311D01*
X034970Y006453D02*
X034970Y006217D01*
X034774Y006217D02*
X034774Y006453D01*
X034577Y006453D02*
X034577Y006217D01*
X034380Y006217D02*
X034380Y006453D01*
X034183Y006453D02*
X034183Y006217D01*
X033986Y006217D02*
X033986Y006453D01*
X033789Y006453D02*
X033789Y006217D01*
X033593Y006217D02*
X033593Y006453D01*
X033435Y006059D02*
X033199Y006059D01*
X033199Y005862D02*
X033435Y005862D01*
X033435Y005665D02*
X033199Y005665D01*
X033199Y005469D02*
X033435Y005469D01*
X033435Y005272D02*
X033199Y005272D01*
X033199Y005075D02*
X033435Y005075D01*
X033435Y004878D02*
X033199Y004878D01*
X033199Y004681D02*
X033435Y004681D01*
X033593Y004524D02*
X033593Y004288D01*
X033789Y004288D02*
X033789Y004524D01*
X033986Y004524D02*
X033986Y004288D01*
X034183Y004288D02*
X034183Y004524D01*
X034380Y004524D02*
X034380Y004288D01*
X034577Y004288D02*
X034577Y004524D01*
X034774Y004524D02*
X034774Y004288D01*
X034970Y004288D02*
X034970Y004524D01*
X035128Y004681D02*
X035364Y004681D01*
X035364Y004878D02*
X035128Y004878D01*
X035128Y005075D02*
X035364Y005075D01*
X035364Y005272D02*
X035128Y005272D01*
X035128Y005469D02*
X035364Y005469D01*
X035364Y005665D02*
X035128Y005665D01*
X035128Y005862D02*
X035364Y005862D01*
X035364Y006059D02*
X035128Y006059D01*
D18*
X028720Y004823D03*
X028346Y004823D03*
X027972Y004823D03*
X027972Y003839D03*
X028720Y003839D03*
X028720Y012894D03*
X027972Y012894D03*
X027972Y013878D03*
X028346Y013878D03*
X028720Y013878D03*
D19*
X022847Y003909D03*
X022847Y003535D03*
X022847Y003161D03*
X021863Y003161D03*
X021863Y003535D03*
X021863Y003909D03*
D20*
X004625Y005807D03*
X004125Y005807D03*
X003625Y005807D03*
X003125Y005807D03*
X003125Y007943D03*
X003625Y007943D03*
X004125Y007943D03*
X004625Y007943D03*
D21*
X003875Y006875D03*
D22*
X015785Y006055D03*
X016455Y006055D03*
X017125Y006055D03*
X017795Y006055D03*
X018465Y006055D03*
D23*
X017125Y002405D03*
D24*
X009625Y002574D03*
X008250Y002574D03*
X007000Y002574D03*
X007000Y003676D03*
X008250Y003676D03*
X009625Y003676D03*
D25*
X008426Y005375D03*
X007324Y005375D03*
D26*
X016125Y015080D03*
X017125Y015080D03*
X017125Y015670D03*
X016125Y015670D03*
X019125Y015670D03*
X020125Y015670D03*
X020125Y015080D03*
X019125Y015080D03*
D27*
X009558Y016625D03*
X008692Y016251D03*
X008692Y016999D03*
X005683Y017250D03*
X004817Y016876D03*
X004817Y017624D03*
M02*
