G75*
G70*
%OFA0B0*%
%FSLAX24Y24*%
%IPPOS*%
%LPD*%
%AMOC8*
5,1,8,0,0,1.08239X$1,22.5*
%
%ADD10R,0.0433X0.0472*%
%ADD11R,0.0630X0.0551*%
%ADD12R,0.0551X0.0630*%
%ADD13R,0.0472X0.0433*%
%ADD14R,0.2039X0.0939*%
%ADD15C,0.0899*%
%ADD16C,0.0157*%
%ADD17C,0.0040*%
%ADD18R,0.0276X0.0531*%
%ADD19C,0.0606*%
%ADD20R,0.0591X0.0276*%
%ADD21R,0.0295X0.0640*%
%ADD22R,0.1260X0.1063*%
%ADD23R,0.0459X0.0939*%
%ADD24R,0.4239X0.3539*%
%ADD25R,0.1102X0.0669*%
%ADD26R,0.0394X0.1142*%
%ADD27C,0.0748*%
%ADD28R,0.0354X0.0354*%
%ADD29R,0.0591X0.0433*%
%ADD30R,0.0457X0.0457*%
%ADD31C,0.0457*%
%ADD32C,0.0378*%
%ADD33OC8,0.0378*%
%ADD34C,0.0339*%
%ADD35C,0.0535*%
%ADD36C,0.0614*%
%ADD37R,0.0378X0.0378*%
D10*
X016450Y007931D03*
X016450Y008600D03*
X023986Y005939D03*
X024874Y005940D03*
X024874Y005271D03*
X023986Y005270D03*
X026048Y003097D03*
X026856Y003101D03*
X026856Y002432D03*
X026048Y002428D03*
X031589Y003693D03*
X032333Y003693D03*
X032333Y004362D03*
X031589Y004362D03*
X031553Y005370D03*
X032293Y005370D03*
X032293Y006039D03*
X031553Y006039D03*
X033207Y007323D03*
X034498Y007319D03*
X034498Y007988D03*
X034498Y008559D03*
X035128Y008559D03*
X035778Y007988D03*
X036427Y007988D03*
X037549Y007594D03*
X038339Y007522D03*
X039008Y007522D03*
X037549Y006925D03*
X036427Y007319D03*
X035778Y007319D03*
X033207Y007992D03*
X034498Y009228D03*
X035128Y009228D03*
X029460Y010750D03*
X028790Y010750D03*
X028270Y010750D03*
X027600Y010750D03*
X027085Y010750D03*
X026415Y010750D03*
X027295Y010085D03*
X027295Y009415D03*
X028335Y009425D03*
X028335Y010095D03*
X027150Y008750D03*
X026480Y008750D03*
X025960Y008750D03*
X025290Y008750D03*
X031679Y013142D03*
X032333Y013142D03*
X032333Y013811D03*
X031679Y013811D03*
X031663Y014819D03*
X032293Y014819D03*
X032293Y015488D03*
X031663Y015488D03*
X033207Y016772D03*
X034498Y016768D03*
X034498Y017437D03*
X034498Y018008D03*
X035128Y018008D03*
X035128Y018677D03*
X034498Y018677D03*
X035778Y017437D03*
X036427Y017437D03*
X037549Y017043D03*
X038359Y017001D03*
X039028Y017001D03*
X037549Y016374D03*
X036427Y016768D03*
X035778Y016768D03*
X033207Y017441D03*
X036053Y013709D03*
X036773Y013709D03*
X037558Y013190D03*
X036773Y013039D03*
X036053Y013039D03*
X035415Y012642D03*
X034748Y012811D03*
X034748Y012142D03*
X035415Y011972D03*
X036045Y011938D03*
X036714Y011938D03*
X037558Y012520D03*
X036703Y004260D03*
X036053Y004260D03*
X036053Y003591D03*
X036703Y003591D03*
X037538Y003786D03*
X037538Y003117D03*
X036714Y002489D03*
X036045Y002489D03*
X035415Y002524D03*
X034748Y002693D03*
X035415Y003193D03*
X034748Y003362D03*
X005835Y016000D03*
X005165Y016000D03*
X003960Y017625D03*
X003290Y017625D03*
D11*
X014375Y008749D03*
X015500Y008749D03*
X015500Y008001D03*
X014375Y008001D03*
X017510Y008257D03*
X018385Y008007D03*
X017510Y007509D03*
X018385Y007259D03*
X013875Y006210D03*
X013875Y005540D03*
X013875Y004585D03*
X013875Y003915D03*
X004500Y003876D03*
X003625Y003876D03*
X003625Y004624D03*
X004500Y004624D03*
X003625Y002835D03*
X002750Y002835D03*
X002750Y002165D03*
X003625Y002165D03*
X027165Y013012D03*
X027165Y013760D03*
X029528Y013760D03*
X029528Y013012D03*
X028502Y015236D03*
X028502Y015984D03*
D12*
X030540Y009375D03*
X031210Y009375D03*
X029904Y007149D03*
X029156Y007149D03*
X024770Y003095D03*
X024100Y003095D03*
X011999Y009750D03*
X011251Y009750D03*
X004374Y009875D03*
X003626Y009875D03*
X003626Y009000D03*
X004374Y009000D03*
X010665Y016625D03*
X011335Y016625D03*
X007999Y017000D03*
X007251Y017000D03*
D13*
X016125Y014460D03*
X017125Y014460D03*
X017125Y013790D03*
X016125Y013790D03*
X019125Y013665D03*
X019125Y014335D03*
X020125Y014460D03*
X020125Y013790D03*
X030685Y014947D03*
X030685Y015616D03*
X031667Y016138D03*
X032337Y016138D03*
X032333Y016736D03*
X031663Y016736D03*
X031653Y017414D03*
X032322Y017414D03*
X033848Y017437D03*
X035128Y017437D03*
X035778Y018008D03*
X036427Y018008D03*
X037096Y018008D03*
X037096Y018677D03*
X036427Y018677D03*
X035778Y018677D03*
X039102Y018643D03*
X039772Y018643D03*
X039776Y017846D03*
X039106Y017846D03*
X039026Y016197D03*
X038356Y016197D03*
X037530Y015843D03*
X037530Y015173D03*
X038356Y015154D03*
X039026Y015154D03*
X037543Y014389D03*
X037543Y013720D03*
X033756Y012782D03*
X033756Y012113D03*
X030845Y013149D03*
X030845Y013818D03*
X035984Y016020D03*
X036653Y016020D03*
X035128Y016768D03*
X033848Y016768D03*
X035778Y009228D03*
X036427Y009228D03*
X037096Y009228D03*
X037096Y008559D03*
X036427Y008559D03*
X035778Y008559D03*
X035128Y007988D03*
X033848Y007988D03*
X033848Y007319D03*
X035128Y007319D03*
X035994Y006571D03*
X036663Y006571D03*
X037530Y006394D03*
X038356Y006748D03*
X039026Y006748D03*
X039026Y005705D03*
X038356Y005705D03*
X037530Y005724D03*
X037543Y004941D03*
X037543Y004271D03*
X033756Y003334D03*
X033756Y002664D03*
X030845Y003700D03*
X030845Y004370D03*
X030685Y005498D03*
X030685Y006168D03*
X031667Y006689D03*
X032337Y006689D03*
X032333Y007287D03*
X031663Y007287D03*
X031653Y007965D03*
X032322Y007965D03*
X027698Y006904D03*
X027029Y006904D03*
X027032Y006104D03*
X027701Y006104D03*
X023156Y005943D03*
X023156Y005274D03*
X023995Y003940D03*
X024665Y003940D03*
X039106Y008398D03*
X039776Y008398D03*
X039772Y009194D03*
X039102Y009194D03*
D14*
X041510Y007252D03*
X041510Y005512D03*
X041510Y003772D03*
X041430Y013364D03*
X041430Y015104D03*
X041430Y016844D03*
D15*
X029441Y009444D03*
X021961Y009444D03*
X029441Y005704D03*
X029441Y001964D03*
X021961Y001964D03*
D16*
X033198Y004681D02*
X033436Y004681D01*
X033198Y004681D02*
X033198Y004681D01*
X033436Y004681D01*
X033436Y004681D01*
X033436Y004878D02*
X033198Y004878D01*
X033198Y004878D01*
X033436Y004878D01*
X033436Y004878D01*
X033436Y005075D02*
X033198Y005075D01*
X033198Y005075D01*
X033436Y005075D01*
X033436Y005075D01*
X033436Y005272D02*
X033198Y005272D01*
X033198Y005272D01*
X033436Y005272D01*
X033436Y005272D01*
X033436Y005469D02*
X033198Y005469D01*
X033198Y005469D01*
X033436Y005469D01*
X033436Y005469D01*
X033436Y005665D02*
X033198Y005665D01*
X033198Y005665D01*
X033436Y005665D01*
X033436Y005665D01*
X033436Y005862D02*
X033198Y005862D01*
X033198Y005862D01*
X033436Y005862D01*
X033436Y005862D01*
X033436Y006059D02*
X033198Y006059D01*
X033198Y006059D01*
X033436Y006059D01*
X033436Y006059D01*
X033593Y006216D02*
X033593Y006454D01*
X033593Y006454D01*
X033593Y006216D01*
X033593Y006216D01*
X033593Y006372D02*
X033593Y006372D01*
X033789Y006454D02*
X033789Y006216D01*
X033789Y006454D02*
X033789Y006454D01*
X033789Y006216D01*
X033789Y006216D01*
X033789Y006372D02*
X033789Y006372D01*
X033986Y006454D02*
X033986Y006216D01*
X033986Y006454D02*
X033986Y006454D01*
X033986Y006216D01*
X033986Y006216D01*
X033986Y006372D02*
X033986Y006372D01*
X034183Y006454D02*
X034183Y006216D01*
X034183Y006454D02*
X034183Y006454D01*
X034183Y006216D01*
X034183Y006216D01*
X034183Y006372D02*
X034183Y006372D01*
X034380Y006454D02*
X034380Y006216D01*
X034380Y006454D02*
X034380Y006454D01*
X034380Y006216D01*
X034380Y006216D01*
X034380Y006372D02*
X034380Y006372D01*
X034577Y006454D02*
X034577Y006216D01*
X034577Y006454D02*
X034577Y006454D01*
X034577Y006216D01*
X034577Y006216D01*
X034577Y006372D02*
X034577Y006372D01*
X034774Y006454D02*
X034774Y006216D01*
X034774Y006454D02*
X034774Y006454D01*
X034774Y006216D01*
X034774Y006216D01*
X034774Y006372D02*
X034774Y006372D01*
X034970Y006454D02*
X034970Y006216D01*
X034970Y006454D02*
X034970Y006454D01*
X034970Y006216D01*
X034970Y006216D01*
X034970Y006372D02*
X034970Y006372D01*
X035127Y006059D02*
X035365Y006059D01*
X035365Y006059D01*
X035127Y006059D01*
X035127Y006059D01*
X035127Y005862D02*
X035365Y005862D01*
X035365Y005862D01*
X035127Y005862D01*
X035127Y005862D01*
X035127Y005665D02*
X035365Y005665D01*
X035365Y005665D01*
X035127Y005665D01*
X035127Y005665D01*
X035127Y005469D02*
X035365Y005469D01*
X035365Y005469D01*
X035127Y005469D01*
X035127Y005469D01*
X035127Y005272D02*
X035365Y005272D01*
X035365Y005272D01*
X035127Y005272D01*
X035127Y005272D01*
X035127Y005075D02*
X035365Y005075D01*
X035365Y005075D01*
X035127Y005075D01*
X035127Y005075D01*
X035127Y004878D02*
X035365Y004878D01*
X035365Y004878D01*
X035127Y004878D01*
X035127Y004878D01*
X035127Y004681D02*
X035365Y004681D01*
X035365Y004681D01*
X035127Y004681D01*
X035127Y004681D01*
X034970Y004525D02*
X034970Y004287D01*
X034970Y004287D01*
X034970Y004525D01*
X034970Y004525D01*
X034970Y004443D02*
X034970Y004443D01*
X034774Y004525D02*
X034774Y004287D01*
X034774Y004287D01*
X034774Y004525D01*
X034774Y004525D01*
X034774Y004443D02*
X034774Y004443D01*
X034577Y004525D02*
X034577Y004287D01*
X034577Y004287D01*
X034577Y004525D01*
X034577Y004525D01*
X034577Y004443D02*
X034577Y004443D01*
X034380Y004525D02*
X034380Y004287D01*
X034380Y004287D01*
X034380Y004525D01*
X034380Y004525D01*
X034380Y004443D02*
X034380Y004443D01*
X034183Y004525D02*
X034183Y004287D01*
X034183Y004287D01*
X034183Y004525D01*
X034183Y004525D01*
X034183Y004443D02*
X034183Y004443D01*
X033986Y004525D02*
X033986Y004287D01*
X033986Y004287D01*
X033986Y004525D01*
X033986Y004525D01*
X033986Y004443D02*
X033986Y004443D01*
X033789Y004525D02*
X033789Y004287D01*
X033789Y004287D01*
X033789Y004525D01*
X033789Y004525D01*
X033789Y004443D02*
X033789Y004443D01*
X033593Y004525D02*
X033593Y004287D01*
X033593Y004287D01*
X033593Y004525D01*
X033593Y004525D01*
X033593Y004443D02*
X033593Y004443D01*
X033593Y013735D02*
X033593Y013973D01*
X033593Y013735D02*
X033593Y013735D01*
X033593Y013973D01*
X033593Y013973D01*
X033593Y013891D02*
X033593Y013891D01*
X033789Y013973D02*
X033789Y013735D01*
X033789Y013735D01*
X033789Y013973D01*
X033789Y013973D01*
X033789Y013891D02*
X033789Y013891D01*
X033986Y013973D02*
X033986Y013735D01*
X033986Y013735D01*
X033986Y013973D01*
X033986Y013973D01*
X033986Y013891D02*
X033986Y013891D01*
X034183Y013973D02*
X034183Y013735D01*
X034183Y013735D01*
X034183Y013973D01*
X034183Y013973D01*
X034183Y013891D02*
X034183Y013891D01*
X034380Y013973D02*
X034380Y013735D01*
X034380Y013735D01*
X034380Y013973D01*
X034380Y013973D01*
X034380Y013891D02*
X034380Y013891D01*
X034577Y013973D02*
X034577Y013735D01*
X034577Y013735D01*
X034577Y013973D01*
X034577Y013973D01*
X034577Y013891D02*
X034577Y013891D01*
X034774Y013973D02*
X034774Y013735D01*
X034774Y013735D01*
X034774Y013973D01*
X034774Y013973D01*
X034774Y013891D02*
X034774Y013891D01*
X034970Y013973D02*
X034970Y013735D01*
X034970Y013735D01*
X034970Y013973D01*
X034970Y013973D01*
X034970Y013891D02*
X034970Y013891D01*
X035127Y014130D02*
X035365Y014130D01*
X035365Y014130D01*
X035127Y014130D01*
X035127Y014130D01*
X035127Y014327D02*
X035365Y014327D01*
X035365Y014327D01*
X035127Y014327D01*
X035127Y014327D01*
X035127Y014524D02*
X035365Y014524D01*
X035365Y014524D01*
X035127Y014524D01*
X035127Y014524D01*
X035127Y014720D02*
X035365Y014720D01*
X035365Y014720D01*
X035127Y014720D01*
X035127Y014720D01*
X035127Y014917D02*
X035365Y014917D01*
X035365Y014917D01*
X035127Y014917D01*
X035127Y014917D01*
X035127Y015114D02*
X035365Y015114D01*
X035365Y015114D01*
X035127Y015114D01*
X035127Y015114D01*
X035127Y015311D02*
X035365Y015311D01*
X035365Y015311D01*
X035127Y015311D01*
X035127Y015311D01*
X035127Y015508D02*
X035365Y015508D01*
X035365Y015508D01*
X035127Y015508D01*
X035127Y015508D01*
X034970Y015664D02*
X034970Y015902D01*
X034970Y015902D01*
X034970Y015664D01*
X034970Y015664D01*
X034970Y015820D02*
X034970Y015820D01*
X034774Y015902D02*
X034774Y015664D01*
X034774Y015902D02*
X034774Y015902D01*
X034774Y015664D01*
X034774Y015664D01*
X034774Y015820D02*
X034774Y015820D01*
X034577Y015902D02*
X034577Y015664D01*
X034577Y015902D02*
X034577Y015902D01*
X034577Y015664D01*
X034577Y015664D01*
X034577Y015820D02*
X034577Y015820D01*
X034380Y015902D02*
X034380Y015664D01*
X034380Y015902D02*
X034380Y015902D01*
X034380Y015664D01*
X034380Y015664D01*
X034380Y015820D02*
X034380Y015820D01*
X034183Y015902D02*
X034183Y015664D01*
X034183Y015902D02*
X034183Y015902D01*
X034183Y015664D01*
X034183Y015664D01*
X034183Y015820D02*
X034183Y015820D01*
X033986Y015902D02*
X033986Y015664D01*
X033986Y015902D02*
X033986Y015902D01*
X033986Y015664D01*
X033986Y015664D01*
X033986Y015820D02*
X033986Y015820D01*
X033789Y015902D02*
X033789Y015664D01*
X033789Y015902D02*
X033789Y015902D01*
X033789Y015664D01*
X033789Y015664D01*
X033789Y015820D02*
X033789Y015820D01*
X033593Y015902D02*
X033593Y015664D01*
X033593Y015902D02*
X033593Y015902D01*
X033593Y015664D01*
X033593Y015664D01*
X033593Y015820D02*
X033593Y015820D01*
X033436Y015508D02*
X033198Y015508D01*
X033198Y015508D01*
X033436Y015508D01*
X033436Y015508D01*
X033436Y015311D02*
X033198Y015311D01*
X033198Y015311D01*
X033436Y015311D01*
X033436Y015311D01*
X033436Y015114D02*
X033198Y015114D01*
X033198Y015114D01*
X033436Y015114D01*
X033436Y015114D01*
X033436Y014917D02*
X033198Y014917D01*
X033198Y014917D01*
X033436Y014917D01*
X033436Y014917D01*
X033436Y014720D02*
X033198Y014720D01*
X033198Y014720D01*
X033436Y014720D01*
X033436Y014720D01*
X033436Y014524D02*
X033198Y014524D01*
X033198Y014524D01*
X033436Y014524D01*
X033436Y014524D01*
X033436Y014327D02*
X033198Y014327D01*
X033198Y014327D01*
X033436Y014327D01*
X033436Y014327D01*
X033436Y014130D02*
X033198Y014130D01*
X033198Y014130D01*
X033436Y014130D01*
X033436Y014130D01*
D17*
X033701Y014238D02*
X034085Y014238D01*
X034478Y014238D01*
X034862Y014238D01*
X034862Y014622D01*
X034478Y014622D01*
X034478Y014819D01*
X034478Y015016D01*
X034862Y015016D01*
X034862Y015400D01*
X034478Y015400D01*
X034478Y015213D01*
X034518Y015213D01*
X034522Y015248D01*
X034533Y015281D01*
X034552Y015311D01*
X034577Y015336D01*
X034607Y015354D01*
X034640Y015366D01*
X034675Y015370D01*
X034710Y015366D01*
X034744Y015354D01*
X034773Y015336D01*
X034798Y015311D01*
X034817Y015281D01*
X034829Y015248D01*
X034833Y015213D01*
X034829Y015178D01*
X034817Y015144D01*
X034798Y015114D01*
X034773Y015089D01*
X034744Y015071D01*
X034710Y015059D01*
X034675Y015055D01*
X034640Y015059D01*
X034607Y015071D01*
X034577Y015089D01*
X034552Y015114D01*
X034533Y015144D01*
X034522Y015178D01*
X034518Y015213D01*
X034478Y015213D01*
X034478Y015016D01*
X034862Y015016D01*
X034862Y014622D01*
X034478Y014622D01*
X034478Y014425D01*
X034518Y014425D01*
X034522Y014460D01*
X034533Y014494D01*
X034552Y014523D01*
X034577Y014548D01*
X034607Y014567D01*
X034640Y014579D01*
X034675Y014583D01*
X034710Y014579D01*
X034744Y014567D01*
X034773Y014548D01*
X034798Y014523D01*
X034817Y014494D01*
X034829Y014460D01*
X034833Y014425D01*
X034829Y014390D01*
X034817Y014357D01*
X034798Y014327D01*
X034773Y014302D01*
X034744Y014283D01*
X034710Y014272D01*
X034675Y014268D01*
X034640Y014272D01*
X034607Y014283D01*
X034577Y014302D01*
X034552Y014327D01*
X034533Y014357D01*
X034522Y014390D01*
X034518Y014425D01*
X034478Y014425D01*
X034478Y014238D01*
X034478Y014622D01*
X034085Y014622D01*
X034085Y014819D01*
X034085Y015016D01*
X034478Y015016D01*
X034478Y015400D01*
X034085Y015400D01*
X034085Y015213D01*
X034124Y015213D01*
X034128Y015248D01*
X034140Y015281D01*
X034158Y015311D01*
X034183Y015336D01*
X034213Y015354D01*
X034246Y015366D01*
X034281Y015370D01*
X034317Y015366D01*
X034350Y015354D01*
X034380Y015336D01*
X034405Y015311D01*
X034423Y015281D01*
X034435Y015248D01*
X034439Y015213D01*
X034435Y015178D01*
X034423Y015144D01*
X034405Y015114D01*
X034380Y015089D01*
X034350Y015071D01*
X034317Y015059D01*
X034281Y015055D01*
X034246Y015059D01*
X034213Y015071D01*
X034183Y015089D01*
X034158Y015114D01*
X034140Y015144D01*
X034128Y015178D01*
X034124Y015213D01*
X034085Y015213D01*
X034085Y015016D01*
X034478Y015016D01*
X034478Y014622D01*
X034085Y014622D01*
X034085Y014425D01*
X034124Y014425D01*
X034128Y014460D01*
X034140Y014494D01*
X034158Y014523D01*
X034183Y014548D01*
X034213Y014567D01*
X034246Y014579D01*
X034281Y014583D01*
X034317Y014579D01*
X034350Y014567D01*
X034380Y014548D01*
X034405Y014523D01*
X034423Y014494D01*
X034435Y014460D01*
X034439Y014425D01*
X034435Y014390D01*
X034423Y014357D01*
X034405Y014327D01*
X034380Y014302D01*
X034350Y014283D01*
X034317Y014272D01*
X034281Y014268D01*
X034246Y014272D01*
X034213Y014283D01*
X034183Y014302D01*
X034158Y014327D01*
X034140Y014357D01*
X034128Y014390D01*
X034124Y014425D01*
X034085Y014425D01*
X034085Y014238D01*
X034085Y014622D01*
X033701Y014622D01*
X033701Y014819D01*
X033701Y015016D01*
X034085Y015016D01*
X034085Y015400D01*
X033701Y015400D01*
X033701Y015213D01*
X033730Y015213D01*
X033734Y015248D01*
X033746Y015281D01*
X033765Y015311D01*
X033790Y015336D01*
X033819Y015354D01*
X033853Y015366D01*
X033888Y015370D01*
X033923Y015366D01*
X033956Y015354D01*
X033986Y015336D01*
X034011Y015311D01*
X034030Y015281D01*
X034041Y015248D01*
X034045Y015213D01*
X034041Y015178D01*
X034030Y015144D01*
X034011Y015114D01*
X033986Y015089D01*
X033956Y015071D01*
X033923Y015059D01*
X033888Y015055D01*
X033853Y015059D01*
X033819Y015071D01*
X033790Y015089D01*
X033765Y015114D01*
X033746Y015144D01*
X033734Y015178D01*
X033730Y015213D01*
X033701Y015213D01*
X033701Y015016D01*
X034085Y015016D01*
X034085Y014622D01*
X033701Y014622D01*
X033701Y014425D01*
X033730Y014425D01*
X033734Y014460D01*
X033746Y014494D01*
X033765Y014523D01*
X033790Y014548D01*
X033819Y014567D01*
X033853Y014579D01*
X033888Y014583D01*
X033923Y014579D01*
X033956Y014567D01*
X033986Y014548D01*
X034011Y014523D01*
X034030Y014494D01*
X034041Y014460D01*
X034045Y014425D01*
X034041Y014390D01*
X034030Y014357D01*
X034011Y014327D01*
X033986Y014302D01*
X033956Y014283D01*
X033923Y014272D01*
X033888Y014268D01*
X033853Y014272D01*
X033819Y014283D01*
X033790Y014302D01*
X033765Y014327D01*
X033746Y014357D01*
X033734Y014390D01*
X033730Y014425D01*
X033701Y014425D01*
X033701Y014238D01*
X033701Y014245D02*
X034085Y014245D01*
X034478Y014245D01*
X034862Y014245D01*
X034862Y014284D02*
X034744Y014284D01*
X034793Y014322D02*
X034862Y014322D01*
X034862Y014361D02*
X034818Y014361D01*
X034830Y014399D02*
X034862Y014399D01*
X034862Y014438D02*
X034831Y014438D01*
X034823Y014476D02*
X034862Y014476D01*
X034862Y014515D02*
X034804Y014515D01*
X034766Y014553D02*
X034862Y014553D01*
X034862Y014592D02*
X034478Y014592D01*
X034085Y014592D01*
X033701Y014592D01*
X033701Y014630D02*
X034085Y014630D01*
X034478Y014630D01*
X034862Y014630D01*
X034862Y014669D02*
X034719Y014669D01*
X034710Y014665D02*
X034744Y014677D01*
X034773Y014696D01*
X034798Y014721D01*
X034817Y014751D01*
X034829Y014784D01*
X034862Y014784D01*
X034829Y014784D02*
X034833Y014819D01*
X034829Y014854D01*
X034817Y014887D01*
X034798Y014917D01*
X034773Y014942D01*
X034744Y014961D01*
X034710Y014972D01*
X034675Y014976D01*
X034640Y014972D01*
X034607Y014961D01*
X034577Y014942D01*
X034552Y014917D01*
X034533Y014887D01*
X034522Y014854D01*
X034518Y014819D01*
X034478Y014819D01*
X034518Y014819D01*
X034522Y014784D01*
X034533Y014751D01*
X034552Y014721D01*
X034577Y014696D01*
X034607Y014677D01*
X034640Y014665D01*
X034675Y014661D01*
X034710Y014665D01*
X034631Y014669D02*
X034478Y014669D01*
X034326Y014669D01*
X034317Y014665D02*
X034350Y014677D01*
X034380Y014696D01*
X034405Y014721D01*
X034423Y014751D01*
X034435Y014784D01*
X034478Y014784D01*
X034522Y014784D01*
X034518Y014823D02*
X034478Y014823D01*
X034439Y014823D01*
X034439Y014819D02*
X034435Y014854D01*
X034423Y014887D01*
X034405Y014917D01*
X034380Y014942D01*
X034350Y014961D01*
X034317Y014972D01*
X034281Y014976D01*
X034246Y014972D01*
X034213Y014961D01*
X034183Y014942D01*
X034158Y014917D01*
X034140Y014887D01*
X034128Y014854D01*
X034124Y014819D01*
X034085Y014819D01*
X034124Y014819D01*
X034128Y014784D01*
X034085Y014784D01*
X034041Y014784D01*
X034045Y014819D01*
X034041Y014854D01*
X034030Y014887D01*
X034011Y014917D01*
X033986Y014942D01*
X033956Y014961D01*
X033923Y014972D01*
X033888Y014976D01*
X033853Y014972D01*
X033819Y014961D01*
X033790Y014942D01*
X033765Y014917D01*
X033746Y014887D01*
X033734Y014854D01*
X033730Y014819D01*
X033701Y014819D01*
X033730Y014819D01*
X033734Y014784D01*
X033701Y014784D01*
X033734Y014784D02*
X033746Y014751D01*
X033765Y014721D01*
X033790Y014696D01*
X033819Y014677D01*
X033853Y014665D01*
X033888Y014661D01*
X033923Y014665D01*
X033956Y014677D01*
X033986Y014696D01*
X034011Y014721D01*
X034030Y014751D01*
X034041Y014784D01*
X034045Y014823D02*
X034085Y014823D01*
X034124Y014823D01*
X034130Y014861D02*
X034085Y014861D01*
X034039Y014861D01*
X034022Y014900D02*
X034085Y014900D01*
X034147Y014900D01*
X034179Y014938D02*
X034085Y014938D01*
X033990Y014938D01*
X034085Y014977D02*
X034478Y014977D01*
X034862Y014977D01*
X034862Y015015D02*
X034478Y015015D01*
X034085Y015015D01*
X033701Y015015D01*
X033701Y014977D02*
X034085Y014977D01*
X034085Y015054D02*
X034478Y015054D01*
X034862Y015054D01*
X034862Y015092D02*
X034776Y015092D01*
X034808Y015131D02*
X034862Y015131D01*
X034862Y015169D02*
X034826Y015169D01*
X034832Y015208D02*
X034862Y015208D01*
X034862Y015246D02*
X034829Y015246D01*
X034815Y015285D02*
X034862Y015285D01*
X034862Y015323D02*
X034786Y015323D01*
X034723Y015362D02*
X034862Y015362D01*
X034627Y015362D02*
X034478Y015362D01*
X034329Y015362D01*
X034392Y015323D02*
X034478Y015323D01*
X034564Y015323D01*
X034536Y015285D02*
X034478Y015285D01*
X034421Y015285D01*
X034435Y015246D02*
X034478Y015246D01*
X034521Y015246D01*
X034518Y015208D02*
X034478Y015208D01*
X034438Y015208D01*
X034432Y015169D02*
X034478Y015169D01*
X034525Y015169D01*
X034542Y015131D02*
X034478Y015131D01*
X034415Y015131D01*
X034382Y015092D02*
X034478Y015092D01*
X034574Y015092D01*
X034573Y014938D02*
X034478Y014938D01*
X034384Y014938D01*
X034416Y014900D02*
X034478Y014900D01*
X034541Y014900D01*
X034524Y014861D02*
X034478Y014861D01*
X034433Y014861D01*
X034439Y014819D02*
X034435Y014784D01*
X034420Y014746D02*
X034478Y014746D01*
X034536Y014746D01*
X034566Y014707D02*
X034478Y014707D01*
X034391Y014707D01*
X034317Y014665D02*
X034281Y014661D01*
X034246Y014665D01*
X034213Y014677D01*
X034183Y014696D01*
X034158Y014721D01*
X034140Y014751D01*
X034128Y014784D01*
X034143Y014746D02*
X034085Y014746D01*
X034027Y014746D01*
X033997Y014707D02*
X034085Y014707D01*
X034172Y014707D01*
X034237Y014669D02*
X034085Y014669D01*
X033932Y014669D01*
X033844Y014669D02*
X033701Y014669D01*
X033701Y014707D02*
X033778Y014707D01*
X033749Y014746D02*
X033701Y014746D01*
X033701Y014823D02*
X033731Y014823D01*
X033737Y014861D02*
X033701Y014861D01*
X033701Y014900D02*
X033754Y014900D01*
X033786Y014938D02*
X033701Y014938D01*
X033701Y015054D02*
X034085Y015054D01*
X034085Y015092D02*
X034181Y015092D01*
X034148Y015131D02*
X034085Y015131D01*
X034021Y015131D01*
X034038Y015169D02*
X034085Y015169D01*
X034131Y015169D01*
X034125Y015208D02*
X034085Y015208D01*
X034045Y015208D01*
X034042Y015246D02*
X034085Y015246D01*
X034128Y015246D01*
X034142Y015285D02*
X034085Y015285D01*
X034027Y015285D01*
X033999Y015323D02*
X034085Y015323D01*
X034171Y015323D01*
X034234Y015362D02*
X034085Y015362D01*
X033936Y015362D01*
X033840Y015362D02*
X033701Y015362D01*
X033701Y015323D02*
X033777Y015323D01*
X033748Y015285D02*
X033701Y015285D01*
X033701Y015246D02*
X033734Y015246D01*
X033731Y015208D02*
X033701Y015208D01*
X033701Y015169D02*
X033737Y015169D01*
X033755Y015131D02*
X033701Y015131D01*
X033701Y015092D02*
X033787Y015092D01*
X033989Y015092D02*
X034085Y015092D01*
X034085Y014553D02*
X034191Y014553D01*
X034153Y014515D02*
X034085Y014515D01*
X034016Y014515D01*
X034036Y014476D02*
X034085Y014476D01*
X034134Y014476D01*
X034125Y014438D02*
X034085Y014438D01*
X034044Y014438D01*
X034042Y014399D02*
X034085Y014399D01*
X034127Y014399D01*
X034138Y014361D02*
X034085Y014361D01*
X034031Y014361D01*
X034006Y014322D02*
X034085Y014322D01*
X034163Y014322D01*
X034213Y014284D02*
X034085Y014284D01*
X033957Y014284D01*
X033819Y014284D02*
X033701Y014284D01*
X033701Y014322D02*
X033770Y014322D01*
X033745Y014361D02*
X033701Y014361D01*
X033701Y014399D02*
X033733Y014399D01*
X033732Y014438D02*
X033701Y014438D01*
X033701Y014476D02*
X033740Y014476D01*
X033759Y014515D02*
X033701Y014515D01*
X033701Y014553D02*
X033797Y014553D01*
X033978Y014553D02*
X034085Y014553D01*
X034372Y014553D02*
X034478Y014553D01*
X034585Y014553D01*
X034547Y014515D02*
X034478Y014515D01*
X034410Y014515D01*
X034429Y014476D02*
X034478Y014476D01*
X034527Y014476D01*
X034519Y014438D02*
X034478Y014438D01*
X034438Y014438D01*
X034436Y014399D02*
X034478Y014399D01*
X034521Y014399D01*
X034532Y014361D02*
X034478Y014361D01*
X034425Y014361D01*
X034400Y014322D02*
X034478Y014322D01*
X034557Y014322D01*
X034606Y014284D02*
X034478Y014284D01*
X034350Y014284D01*
X034785Y014707D02*
X034862Y014707D01*
X034862Y014746D02*
X034814Y014746D01*
X034832Y014823D02*
X034862Y014823D01*
X034862Y014861D02*
X034826Y014861D01*
X034809Y014900D02*
X034862Y014900D01*
X034862Y014938D02*
X034777Y014938D01*
X034862Y005951D02*
X034478Y005951D01*
X034478Y005764D01*
X034518Y005764D01*
X034522Y005799D01*
X034533Y005832D01*
X034552Y005862D01*
X034577Y005887D01*
X034607Y005906D01*
X034640Y005917D01*
X034675Y005921D01*
X034710Y005917D01*
X034744Y005906D01*
X034773Y005887D01*
X034798Y005862D01*
X034817Y005832D01*
X034829Y005799D01*
X034833Y005764D01*
X034829Y005729D01*
X034817Y005695D01*
X034798Y005666D01*
X034773Y005641D01*
X034744Y005622D01*
X034710Y005610D01*
X034675Y005606D01*
X034640Y005610D01*
X034607Y005622D01*
X034577Y005641D01*
X034552Y005666D01*
X034533Y005695D01*
X034522Y005729D01*
X034518Y005764D01*
X034478Y005764D01*
X034478Y005567D01*
X034862Y005567D01*
X034862Y005951D01*
X034862Y005929D02*
X034478Y005929D01*
X034085Y005929D01*
X033701Y005929D01*
X033701Y005951D02*
X034085Y005951D01*
X034478Y005951D01*
X034478Y005567D01*
X034862Y005567D01*
X034862Y005173D01*
X034478Y005173D01*
X034478Y005370D01*
X034478Y005567D01*
X034085Y005567D01*
X034085Y005764D01*
X034085Y005951D01*
X034085Y005567D01*
X034478Y005567D01*
X034478Y005173D01*
X034862Y005173D01*
X034862Y004789D01*
X034478Y004789D01*
X034478Y004976D01*
X034478Y005173D01*
X034085Y005173D01*
X034085Y005370D01*
X034085Y005567D01*
X033701Y005567D01*
X033701Y005764D01*
X033701Y005951D01*
X033701Y005891D02*
X033795Y005891D01*
X033790Y005887D02*
X033765Y005862D01*
X033746Y005832D01*
X033734Y005799D01*
X033730Y005764D01*
X033701Y005764D01*
X033730Y005764D01*
X033734Y005729D01*
X033746Y005695D01*
X033765Y005666D01*
X033790Y005641D01*
X033819Y005622D01*
X033853Y005610D01*
X033888Y005606D01*
X033923Y005610D01*
X033956Y005622D01*
X033986Y005641D01*
X034011Y005666D01*
X034030Y005695D01*
X034041Y005729D01*
X034045Y005764D01*
X034041Y005799D01*
X034030Y005832D01*
X034011Y005862D01*
X033986Y005887D01*
X033956Y005906D01*
X033923Y005917D01*
X033888Y005921D01*
X033853Y005917D01*
X033819Y005906D01*
X033790Y005887D01*
X033758Y005852D02*
X033701Y005852D01*
X033701Y005814D02*
X033739Y005814D01*
X033732Y005775D02*
X033701Y005775D01*
X033701Y005737D02*
X033733Y005737D01*
X033745Y005698D02*
X033701Y005698D01*
X033701Y005660D02*
X033771Y005660D01*
X033822Y005621D02*
X033701Y005621D01*
X033701Y005583D02*
X034085Y005583D01*
X034478Y005583D01*
X034862Y005583D01*
X034862Y005621D02*
X034741Y005621D01*
X034792Y005660D02*
X034862Y005660D01*
X034862Y005698D02*
X034818Y005698D01*
X034830Y005737D02*
X034862Y005737D01*
X034862Y005775D02*
X034831Y005775D01*
X034824Y005814D02*
X034862Y005814D01*
X034862Y005852D02*
X034805Y005852D01*
X034768Y005891D02*
X034862Y005891D01*
X034583Y005891D02*
X034478Y005891D01*
X034374Y005891D01*
X034380Y005887D02*
X034350Y005906D01*
X034317Y005917D01*
X034281Y005921D01*
X034246Y005917D01*
X034213Y005906D01*
X034183Y005887D01*
X034158Y005862D01*
X034140Y005832D01*
X034128Y005799D01*
X034124Y005764D01*
X034085Y005764D01*
X034124Y005764D01*
X034128Y005729D01*
X034140Y005695D01*
X034158Y005666D01*
X034183Y005641D01*
X034213Y005622D01*
X034246Y005610D01*
X034281Y005606D01*
X034317Y005610D01*
X034350Y005622D01*
X034380Y005641D01*
X034405Y005666D01*
X034423Y005695D01*
X034435Y005729D01*
X034439Y005764D01*
X034435Y005799D01*
X034423Y005832D01*
X034405Y005862D01*
X034380Y005887D01*
X034411Y005852D02*
X034478Y005852D01*
X034546Y005852D01*
X034527Y005814D02*
X034478Y005814D01*
X034430Y005814D01*
X034438Y005775D02*
X034478Y005775D01*
X034519Y005775D01*
X034521Y005737D02*
X034478Y005737D01*
X034436Y005737D01*
X034424Y005698D02*
X034478Y005698D01*
X034532Y005698D01*
X034558Y005660D02*
X034478Y005660D01*
X034399Y005660D01*
X034347Y005621D02*
X034478Y005621D01*
X034609Y005621D01*
X034640Y005524D02*
X034607Y005512D01*
X034577Y005493D01*
X034552Y005468D01*
X034533Y005438D01*
X034522Y005405D01*
X034518Y005370D01*
X034478Y005370D01*
X034518Y005370D01*
X034522Y005335D01*
X034533Y005302D01*
X034552Y005272D01*
X034577Y005247D01*
X034607Y005228D01*
X034640Y005217D01*
X034675Y005213D01*
X034710Y005217D01*
X034744Y005228D01*
X034773Y005247D01*
X034798Y005272D01*
X034817Y005302D01*
X034829Y005335D01*
X034833Y005370D01*
X034829Y005405D01*
X034817Y005438D01*
X034798Y005468D01*
X034773Y005493D01*
X034744Y005512D01*
X034710Y005524D01*
X034675Y005528D01*
X034640Y005524D01*
X034597Y005506D02*
X034478Y005506D01*
X034360Y005506D01*
X034350Y005512D02*
X034317Y005524D01*
X034281Y005528D01*
X034246Y005524D01*
X034213Y005512D01*
X034183Y005493D01*
X034158Y005468D01*
X034140Y005438D01*
X034128Y005405D01*
X034124Y005370D01*
X034085Y005370D01*
X034124Y005370D01*
X034128Y005335D01*
X034140Y005302D01*
X034158Y005272D01*
X034183Y005247D01*
X034213Y005228D01*
X034246Y005217D01*
X034281Y005213D01*
X034317Y005217D01*
X034350Y005228D01*
X034380Y005247D01*
X034405Y005272D01*
X034423Y005302D01*
X034435Y005335D01*
X034439Y005370D01*
X034435Y005405D01*
X034423Y005438D01*
X034405Y005468D01*
X034380Y005493D01*
X034350Y005512D01*
X034405Y005467D02*
X034478Y005467D01*
X034551Y005467D01*
X034530Y005429D02*
X034478Y005429D01*
X034427Y005429D01*
X034437Y005390D02*
X034478Y005390D01*
X034520Y005390D01*
X034520Y005352D02*
X034478Y005352D01*
X034437Y005352D01*
X034427Y005313D02*
X034478Y005313D01*
X034529Y005313D01*
X034550Y005275D02*
X034478Y005275D01*
X034406Y005275D01*
X034362Y005236D02*
X034478Y005236D01*
X034594Y005236D01*
X034640Y005130D02*
X034607Y005118D01*
X034577Y005100D01*
X034552Y005075D01*
X034533Y005045D01*
X034522Y005011D01*
X034518Y004976D01*
X034478Y004976D01*
X034518Y004976D01*
X034522Y004941D01*
X034533Y004908D01*
X034552Y004878D01*
X034577Y004853D01*
X034607Y004834D01*
X034640Y004823D01*
X034675Y004819D01*
X034710Y004823D01*
X034744Y004834D01*
X034773Y004853D01*
X034798Y004878D01*
X034817Y004908D01*
X034829Y004941D01*
X034833Y004976D01*
X034829Y005011D01*
X034817Y005045D01*
X034798Y005075D01*
X034773Y005100D01*
X034744Y005118D01*
X034710Y005130D01*
X034675Y005134D01*
X034640Y005130D01*
X034613Y005121D02*
X034478Y005121D01*
X034343Y005121D01*
X034350Y005118D02*
X034317Y005130D01*
X034281Y005134D01*
X034246Y005130D01*
X034213Y005118D01*
X034183Y005100D01*
X034158Y005075D01*
X034140Y005045D01*
X034128Y005011D01*
X034124Y004976D01*
X034085Y004976D01*
X034085Y005173D01*
X034478Y005173D01*
X034478Y004789D01*
X034085Y004789D01*
X034085Y004976D01*
X034124Y004976D01*
X034128Y004941D01*
X034140Y004908D01*
X034158Y004878D01*
X034183Y004853D01*
X034213Y004834D01*
X034246Y004823D01*
X034281Y004819D01*
X034317Y004823D01*
X034350Y004834D01*
X034380Y004853D01*
X034405Y004878D01*
X034423Y004908D01*
X034435Y004941D01*
X034439Y004976D01*
X034435Y005011D01*
X034423Y005045D01*
X034405Y005075D01*
X034380Y005100D01*
X034350Y005118D01*
X034397Y005082D02*
X034478Y005082D01*
X034560Y005082D01*
X034533Y005044D02*
X034478Y005044D01*
X034424Y005044D01*
X034436Y005005D02*
X034478Y005005D01*
X034521Y005005D01*
X034519Y004967D02*
X034478Y004967D01*
X034438Y004967D01*
X034430Y004928D02*
X034478Y004928D01*
X034526Y004928D01*
X034545Y004890D02*
X034478Y004890D01*
X034412Y004890D01*
X034376Y004851D02*
X034478Y004851D01*
X034581Y004851D01*
X034478Y004813D02*
X034862Y004813D01*
X034862Y004851D02*
X034770Y004851D01*
X034805Y004890D02*
X034862Y004890D01*
X034862Y004928D02*
X034824Y004928D01*
X034832Y004967D02*
X034862Y004967D01*
X034862Y005005D02*
X034829Y005005D01*
X034817Y005044D02*
X034862Y005044D01*
X034862Y005082D02*
X034791Y005082D01*
X034737Y005121D02*
X034862Y005121D01*
X034862Y005159D02*
X034478Y005159D01*
X034085Y005159D01*
X033701Y005159D01*
X033701Y005173D02*
X034085Y005173D01*
X034085Y005567D01*
X033701Y005567D01*
X033701Y005370D01*
X033730Y005370D01*
X033734Y005405D01*
X033746Y005438D01*
X033765Y005468D01*
X033790Y005493D01*
X033819Y005512D01*
X033853Y005524D01*
X033888Y005528D01*
X033923Y005524D01*
X033956Y005512D01*
X033986Y005493D01*
X034011Y005468D01*
X034030Y005438D01*
X034041Y005405D01*
X034045Y005370D01*
X034041Y005335D01*
X034030Y005302D01*
X034011Y005272D01*
X033986Y005247D01*
X033956Y005228D01*
X033923Y005217D01*
X033888Y005213D01*
X033853Y005217D01*
X033819Y005228D01*
X033790Y005247D01*
X033765Y005272D01*
X033746Y005302D01*
X033734Y005335D01*
X033730Y005370D01*
X033701Y005370D01*
X033701Y005173D01*
X034085Y005173D01*
X034085Y004789D01*
X033701Y004789D01*
X033701Y004976D01*
X033701Y005173D01*
X033701Y005198D02*
X034085Y005198D01*
X034478Y005198D01*
X034862Y005198D01*
X034862Y005236D02*
X034756Y005236D01*
X034800Y005275D02*
X034862Y005275D01*
X034862Y005313D02*
X034821Y005313D01*
X034831Y005352D02*
X034862Y005352D01*
X034862Y005390D02*
X034830Y005390D01*
X034821Y005429D02*
X034862Y005429D01*
X034862Y005467D02*
X034799Y005467D01*
X034754Y005506D02*
X034862Y005506D01*
X034862Y005544D02*
X034478Y005544D01*
X034085Y005544D01*
X033701Y005544D01*
X033701Y005506D02*
X033809Y005506D01*
X033764Y005467D02*
X033701Y005467D01*
X033701Y005429D02*
X033742Y005429D01*
X033733Y005390D02*
X033701Y005390D01*
X033701Y005352D02*
X033732Y005352D01*
X033742Y005313D02*
X033701Y005313D01*
X033701Y005275D02*
X033763Y005275D01*
X033807Y005236D02*
X033701Y005236D01*
X033701Y005121D02*
X033826Y005121D01*
X033819Y005118D02*
X033790Y005100D01*
X033765Y005075D01*
X033746Y005045D01*
X033734Y005011D01*
X033730Y004976D01*
X033701Y004976D01*
X033730Y004976D01*
X033734Y004941D01*
X033746Y004908D01*
X033765Y004878D01*
X033790Y004853D01*
X033819Y004834D01*
X033853Y004823D01*
X033888Y004819D01*
X033923Y004823D01*
X033956Y004834D01*
X033986Y004853D01*
X034011Y004878D01*
X034030Y004908D01*
X034041Y004941D01*
X034045Y004976D01*
X034041Y005011D01*
X034030Y005045D01*
X034011Y005075D01*
X033986Y005100D01*
X033956Y005118D01*
X033923Y005130D01*
X033888Y005134D01*
X033853Y005130D01*
X033819Y005118D01*
X033772Y005082D02*
X033701Y005082D01*
X033701Y005044D02*
X033746Y005044D01*
X033734Y005005D02*
X033701Y005005D01*
X033701Y004967D02*
X033731Y004967D01*
X033739Y004928D02*
X033701Y004928D01*
X033701Y004890D02*
X033758Y004890D01*
X033793Y004851D02*
X033701Y004851D01*
X033701Y004813D02*
X034085Y004813D01*
X034478Y004813D01*
X034187Y004851D02*
X034085Y004851D01*
X033982Y004851D01*
X034018Y004890D02*
X034085Y004890D01*
X034151Y004890D01*
X034133Y004928D02*
X034085Y004928D01*
X034037Y004928D01*
X034044Y004967D02*
X034085Y004967D01*
X034125Y004967D01*
X034127Y005005D02*
X034085Y005005D01*
X034042Y005005D01*
X034030Y005044D02*
X034085Y005044D01*
X034139Y005044D01*
X034166Y005082D02*
X034085Y005082D01*
X034003Y005082D01*
X033950Y005121D02*
X034085Y005121D01*
X034220Y005121D01*
X034201Y005236D02*
X034085Y005236D01*
X033969Y005236D01*
X034013Y005275D02*
X034085Y005275D01*
X034157Y005275D01*
X034136Y005313D02*
X034085Y005313D01*
X034034Y005313D01*
X034043Y005352D02*
X034085Y005352D01*
X034126Y005352D01*
X034126Y005390D02*
X034085Y005390D01*
X034043Y005390D01*
X034033Y005429D02*
X034085Y005429D01*
X034136Y005429D01*
X034158Y005467D02*
X034085Y005467D01*
X034012Y005467D01*
X033966Y005506D02*
X034085Y005506D01*
X034203Y005506D01*
X034216Y005621D02*
X034085Y005621D01*
X033954Y005621D01*
X034005Y005660D02*
X034085Y005660D01*
X034164Y005660D01*
X034139Y005698D02*
X034085Y005698D01*
X034031Y005698D01*
X034042Y005737D02*
X034085Y005737D01*
X034127Y005737D01*
X034125Y005775D02*
X034085Y005775D01*
X034044Y005775D01*
X034036Y005814D02*
X034085Y005814D01*
X034133Y005814D01*
X034152Y005852D02*
X034085Y005852D01*
X034017Y005852D01*
X033980Y005891D02*
X034085Y005891D01*
X034189Y005891D01*
D18*
X028720Y004823D03*
X028346Y004823D03*
X027972Y004823D03*
X027972Y003839D03*
X028720Y003839D03*
X028720Y012894D03*
X027972Y012894D03*
X027972Y013878D03*
X028346Y013878D03*
X028720Y013878D03*
D19*
X012125Y011158D02*
X012125Y010592D01*
X011125Y010592D02*
X011125Y011158D01*
X010125Y011158D02*
X010125Y010592D01*
X009125Y010592D02*
X009125Y011158D01*
X008125Y011158D02*
X008125Y010592D01*
D20*
X021863Y003909D03*
X021863Y003535D03*
X021863Y003161D03*
X022847Y003161D03*
X022847Y003535D03*
X022847Y003909D03*
D21*
X004625Y005807D03*
X004125Y005807D03*
X003625Y005807D03*
X003125Y005807D03*
X003125Y007943D03*
X003625Y007943D03*
X004125Y007943D03*
X004625Y007943D03*
D22*
X003875Y006875D03*
D23*
X015785Y006055D03*
X016455Y006055D03*
X017125Y006055D03*
X017795Y006055D03*
X018465Y006055D03*
D24*
X017125Y002405D03*
D25*
X009625Y002574D03*
X008250Y002574D03*
X007000Y002574D03*
X007000Y003676D03*
X008250Y003676D03*
X009625Y003676D03*
D26*
X008426Y005375D03*
X007324Y005375D03*
D27*
X007125Y012375D03*
X006125Y012375D03*
X005125Y012375D03*
X004125Y012375D03*
X003125Y012375D03*
X002125Y012375D03*
X001125Y012375D03*
X008125Y012375D03*
X009125Y012375D03*
X010125Y012375D03*
X011125Y012375D03*
X012125Y012375D03*
X013125Y012375D03*
X014125Y012375D03*
X015125Y012375D03*
X016125Y012375D03*
X017125Y012375D03*
X018125Y012375D03*
X019125Y012375D03*
X020125Y012375D03*
X020125Y019375D03*
X019125Y019375D03*
X018125Y019375D03*
X017125Y019375D03*
X016125Y019375D03*
X015125Y019375D03*
X014125Y019375D03*
X013125Y019375D03*
X012125Y019375D03*
X011125Y019375D03*
X010125Y019375D03*
X009125Y019375D03*
X008125Y019375D03*
X007125Y019375D03*
X006125Y019375D03*
X005125Y019375D03*
X004125Y019375D03*
X003125Y019375D03*
X002125Y019375D03*
X001125Y019375D03*
D28*
X016125Y015670D03*
X017125Y015670D03*
X017125Y015080D03*
X016125Y015080D03*
X019125Y015080D03*
X020125Y015080D03*
X020125Y015670D03*
X019125Y015670D03*
D29*
X009558Y016625D03*
X008692Y016251D03*
X008692Y016999D03*
X005683Y017250D03*
X004817Y016876D03*
X004817Y017624D03*
D30*
X000649Y001329D03*
X002731Y001563D03*
X003274Y000856D03*
X005657Y000856D03*
X006968Y001894D03*
X008218Y001894D03*
X009218Y001894D03*
X008125Y000856D03*
X010311Y000856D03*
X012062Y000856D03*
X013906Y000856D03*
X015624Y001409D03*
X016374Y001409D03*
X017124Y001409D03*
X017749Y001409D03*
X018499Y001409D03*
X018499Y002159D03*
X017749Y002159D03*
X017124Y002159D03*
X016374Y002159D03*
X015624Y002159D03*
X015624Y002909D03*
X016349Y002909D03*
X017049Y002909D03*
X017799Y002909D03*
X018524Y002909D03*
X018524Y003659D03*
X017799Y003659D03*
X017074Y003659D03*
X016349Y003659D03*
X015624Y003659D03*
X013974Y003284D03*
X017124Y005159D03*
X023998Y006508D03*
X024873Y006508D03*
X018349Y008659D03*
X017474Y008909D03*
X016474Y009159D03*
X015474Y009284D03*
X014349Y009284D03*
X005121Y007993D03*
X004981Y009063D03*
X004981Y009813D03*
X000774Y009704D03*
X000774Y007829D03*
X003586Y006878D03*
X004166Y006888D03*
X000774Y006204D03*
X000899Y004579D03*
X002981Y003813D03*
X000774Y003204D03*
X020124Y000856D03*
X022093Y000856D03*
X023530Y000883D03*
X025498Y000883D03*
X027467Y000883D03*
X029435Y000883D03*
X031404Y000883D03*
X033372Y000883D03*
X035341Y000883D03*
X037309Y000883D03*
X039278Y000883D03*
X041246Y000883D03*
X040977Y003818D03*
X042033Y003818D03*
X041908Y007255D03*
X040977Y007255D03*
X041908Y008686D03*
X041908Y010261D03*
X041908Y011835D03*
X041854Y013359D03*
X040854Y013359D03*
X040854Y016859D03*
X041854Y016859D03*
X041903Y018106D03*
X041903Y019731D03*
X039278Y020356D03*
X037309Y020356D03*
X035341Y020356D03*
X033372Y020356D03*
X031404Y020356D03*
X029435Y020356D03*
X027467Y020356D03*
X025498Y020356D03*
X023530Y020356D03*
X028560Y016606D03*
X004024Y016829D03*
X000599Y018097D03*
X000624Y014972D03*
D31*
X026250Y007000D03*
X027500Y004875D03*
X027375Y014875D03*
D32*
X024625Y016375D03*
X024625Y012625D03*
X037094Y019243D03*
D33*
X023875Y015625D03*
X023875Y013000D03*
X029625Y008375D03*
X029875Y007750D03*
X027125Y007750D03*
D34*
X038125Y013625D03*
X038375Y015625D03*
D35*
X018250Y005125D03*
X012000Y005125D03*
X002875Y015000D03*
D36*
X003000Y009375D03*
D37*
X013125Y016625D03*
M02*
